<svg xmlns="http://www.w3.org/2000/svg" xmlns:xlink="http://www.w3.org/1999/xlink" contentStyleType="text/css" data-diagram-type="SEQUENCE" height="779px" preserveAspectRatio="none" style="width:631px;height:779px;background:#FFFFFF;" version="1.1" viewBox="0 0 631 779" width="631px" zoomAndPan="magnify"><defs/><g><rect fill="none" height="182.2361" style="stroke:#000000;stroke-width:1.5;" width="604.118" x="10" y="264.598"/><rect fill="none" height="51.412" style="stroke:#000000;stroke-width:1.5;" width="584.118" x="20" y="323.01"/><rect fill="none" height="51.412" style="stroke:#000000;stroke-width:1.5;" width="584.118" x="20" y="388.4221"/><rect fill="none" height="83.118" style="stroke:#000000;stroke-width:1.5;" width="584.118" x="20" y="460.8341"/><rect fill="none" height="83.118" style="stroke:#000000;stroke-width:1.5;" width="584.118" x="20" y="557.9521"/><g><title>Utilisateur</title><rect fill="#000000" fill-opacity="0.00000" height="664.4143" width="8" x="63.0339" y="57.0679"/><line style="stroke:#181818;stroke-width:0.5;stroke-dasharray:5,5;" x1="67" x2="67" y1="57.0679" y2="721.4822"/></g><g><title>Application</title><rect fill="#000000" fill-opacity="0.00000" height="664.4143" width="8" x="546.2422" y="57.0679"/><line style="stroke:#181818;stroke-width:0.5;stroke-dasharray:5,5;" x1="549.3663" x2="549.3663" y1="57.0679" y2="721.4822"/></g><g class="participant participant-head" data-participant="usr"><text fill="#000000" font-family="sans-serif" font-size="14" lengthAdjust="spacing" textLength="68.0677" x="30" y="52.9659">Utilisateur</text><ellipse cx="67.0339" cy="10" fill="#E2E2F0" rx="4.5" ry="4.5" style="stroke:#181818;stroke-width:0.5;"/><path d="M54.5339,16.5 L54.5339,21.5 L64.0339,21.5 L64.0339,23.7574 L54.5339,33.2574 L58.7765,37.5 L67.0339,29.2426 L75.2912,37.5 L79.5339,33.2574 L70.0339,23.7574 L70.0339,21.5 L79.5339,21.5 L79.5339,16.5 L54.5339,16.5" fill="#E2E2F0" style="stroke:#181818;stroke-width:0.5;"/></g><g class="participant participant-tail" data-participant="usr"><text fill="#000000" font-family="sans-serif" font-size="14" lengthAdjust="spacing" textLength="68.0677" x="30" y="735.4482">Utilisateur</text><ellipse cx="67.0339" cy="744.5501" fill="#E2E2F0" rx="4.5" ry="4.5" style="stroke:#181818;stroke-width:0.5;"/><path d="M54.5339,751.0501 L54.5339,756.0501 L64.0339,756.0501 L64.0339,758.3075 L54.5339,767.8075 L58.7765,772.0501 L67.0339,763.7928 L75.2912,772.0501 L79.5339,767.8075 L70.0339,758.3075 L70.0339,756.0501 L79.5339,756.0501 L79.5339,751.0501 L54.5339,751.0501" fill="#E2E2F0" style="stroke:#181818;stroke-width:0.5;"/></g><g class="participant participant-head" data-participant="app"><rect fill="#E2E2F0" height="33.0679" rx="2.5" ry="2.5" style="stroke:#181818;stroke-width:0.5;" width="87.7517" x="506.3663" y="23"/><text fill="#000000" font-family="sans-serif" font-size="14" lengthAdjust="spacing" textLength="73.7517" x="513.3663" y="44.9659">Application</text></g><g class="participant participant-tail" data-participant="app"><rect fill="#E2E2F0" height="33.0679" rx="2.5" ry="2.5" style="stroke:#181818;stroke-width:0.5;" width="87.7517" x="506.3663" y="720.4822"/><text fill="#000000" font-family="sans-serif" font-size="14" lengthAdjust="spacing" textLength="73.7517" x="513.3663" y="742.4482">Application</text></g><rect fill="#EEEEEE" height="3" style="stroke:#EEEEEE;stroke-width:1;" width="624.118" x="0" y="88.9209"/><line style="stroke:#000000;stroke-width:1;" x1="0" x2="624.118" y1="88.9209" y2="88.9209"/><line style="stroke:#000000;stroke-width:1;" x1="0" x2="624.118" y1="91.9209" y2="91.9209"/><rect fill="#EEEEEE" height="25.706" style="stroke:#000000;stroke-width:2;" width="79.91" x="272.104" y="77.0679"/><text fill="#000000" font-family="sans-serif" font-size="13" font-weight="bold" lengthAdjust="spacing" textLength="62.53" x="278.104" y="94.9649">Pr&#233;requis</text><g class="message" data-participant-1="usr" data-participant-2="app"><polygon fill="#181818" points="538.2422,132.4799,548.2422,136.4799,538.2422,140.4799,542.2422,136.4799" style="stroke:#181818;stroke-width:1;"/><line style="stroke:#181818;stroke-width:1;" x1="67.0339" x2="544.2422" y1="136.4799" y2="136.4799"/><text fill="#000000" font-family="sans-serif" font-size="13" font-weight="bold" lengthAdjust="spacing" textLength="7.436" x="263.881" y="130.6709">1</text><text fill="#000000" font-family="sans-serif" font-size="13" lengthAdjust="spacing" textLength="78.0781" x="275.317" y="130.6709">se connecter</text></g><polygon fill="#FEFFDD" points="39,149.4799,578,149.4799,588,161.4799,578,174.4799,39,174.4799,29,161.4799,39,149.4799" style="stroke:#181818;stroke-width:0.5;"/><text fill="#000000" font-family="sans-serif" font-size="13" lengthAdjust="spacing" textLength="123.8511" x="89.0603" y="167.377">Avoir fait le sc&#233;nario</text><text fill="#000000" font-family="sans-serif" font-size="13" lengthAdjust="spacing" text-decoration="underline" textLength="127.3351" x="216.2914" y="167.377">Configurer son profil</text><text fill="#000000" font-family="sans-serif" font-size="13" lengthAdjust="spacing" textLength="90.3501" x="347.0065" y="167.377">du cas d'usage</text><text fill="#000000" font-family="sans-serif" font-size="13" lengthAdjust="spacing" text-decoration="underline" textLength="87.3211" x="440.7366" y="167.377">Modifier profil</text><rect fill="#EEEEEE" height="3" style="stroke:#EEEEEE;stroke-width:1;" width="624.118" x="0" y="202.039"/><line style="stroke:#000000;stroke-width:1;" x1="0" x2="624.118" y1="202.039" y2="202.039"/><line style="stroke:#000000;stroke-width:1;" x1="0" x2="624.118" y1="205.039" y2="205.039"/><rect fill="#EEEEEE" height="25.706" style="stroke:#000000;stroke-width:2;" width="81.782" x="271.168" y="190.186"/><text fill="#000000" font-family="sans-serif" font-size="13" font-weight="bold" lengthAdjust="spacing" textLength="64.402" x="277.168" y="208.083">Processus</text><g class="message" data-participant-1="usr" data-participant-2="app"><polygon fill="#181818" points="538.2422,245.598,548.2422,249.598,538.2422,253.598,542.2422,249.598" style="stroke:#181818;stroke-width:1;"/><line style="stroke:#181818;stroke-width:1;" x1="67.0339" x2="544.2422" y1="249.598" y2="249.598"/><text fill="#000000" font-family="sans-serif" font-size="13" font-weight="bold" lengthAdjust="spacing" textLength="7.436" x="176.5209" y="243.789">2</text><text fill="#000000" font-family="sans-serif" font-size="13" lengthAdjust="spacing" textLength="252.7982" x="187.9569" y="243.789">S&#233;lectionne menu Configuration du profil</text></g><path d="M10,264.598 L76.918,264.598 L76.918,274.304 L66.918,284.304 L10,284.304 L10,264.598" fill="#EEEEEE" style="stroke:#000000;stroke-width:1.5;"/><rect fill="none" height="182.2361" style="stroke:#000000;stroke-width:1.5;" width="604.118" x="10" y="264.598"/><text fill="#000000" font-family="sans-serif" font-size="13" font-weight="bold" lengthAdjust="spacing" textLength="21.918" x="25" y="279.495">opt</text><text fill="#000000" font-family="sans-serif" font-size="11" font-weight="bold" lengthAdjust="spacing" textLength="228.5344" x="91.918" y="278.3569">[modifier les param&#232;tres de notifications]</text><g class="message" data-participant-1="usr" data-participant-2="app"><polygon fill="#181818" points="538.2422,304.01,548.2422,308.01,538.2422,312.01,542.2422,308.01" style="stroke:#181818;stroke-width:1;"/><line style="stroke:#181818;stroke-width:1;" x1="67.0339" x2="544.2422" y1="308.01" y2="308.01"/><text fill="#000000" font-family="sans-serif" font-size="13" font-weight="bold" lengthAdjust="spacing" textLength="7.436" x="158.9839" y="302.201">3</text><text fill="#000000" font-family="sans-serif" font-size="13" lengthAdjust="spacing" textLength="287.8722" x="170.4199" y="302.201">S&#233;lectionne menu param&#232;tres des notifiactions</text></g><path d="M20,323.01 L86.918,323.01 L86.918,332.716 L76.918,342.716 L20,342.716 L20,323.01" fill="#EEEEEE" style="stroke:#000000;stroke-width:1.5;"/><rect fill="none" height="51.412" style="stroke:#000000;stroke-width:1.5;" width="584.118" x="20" y="323.01"/><text fill="#000000" font-family="sans-serif" font-size="13" font-weight="bold" lengthAdjust="spacing" textLength="21.918" x="35" y="337.907">opt</text><text fill="#000000" font-family="sans-serif" font-size="11" font-weight="bold" lengthAdjust="spacing" textLength="31.4378" x="101.918" y="336.7689">[mail]</text><g class="message" data-participant-1="usr" data-participant-2="app"><polygon fill="#181818" points="538.2422,362.4221,548.2422,366.4221,538.2422,370.4221,542.2422,366.4221" style="stroke:#181818;stroke-width:1;"/><line style="stroke:#181818;stroke-width:1;" x1="67.0339" x2="544.2422" y1="366.4221" y2="366.4221"/><text fill="#000000" font-family="sans-serif" font-size="13" font-weight="bold" lengthAdjust="spacing" textLength="7.436" x="96.6489" y="360.6131">4</text><text fill="#000000" font-family="sans-serif" font-size="13" lengthAdjust="spacing" textLength="412.5423" x="108.0849" y="360.6131">S&#233;lectionne ou d&#233;selectionne option de notification doubl&#233; par mail</text></g><path d="M20,388.4221 L86.918,388.4221 L86.918,398.1281 L76.918,408.1281 L20,408.1281 L20,388.4221" fill="#EEEEEE" style="stroke:#000000;stroke-width:1.5;"/><rect fill="none" height="51.412" style="stroke:#000000;stroke-width:1.5;" width="584.118" x="20" y="388.4221"/><text fill="#000000" font-family="sans-serif" font-size="13" font-weight="bold" lengthAdjust="spacing" textLength="21.918" x="35" y="403.3191">opt</text><text fill="#000000" font-family="sans-serif" font-size="11" font-weight="bold" lengthAdjust="spacing" textLength="34.5618" x="101.918" y="402.181">[appli]</text><g class="message" data-participant-1="usr" data-participant-2="app"><polygon fill="#181818" points="538.2422,427.8341,548.2422,431.8341,538.2422,435.8341,542.2422,431.8341" style="stroke:#181818;stroke-width:1;"/><line style="stroke:#181818;stroke-width:1;" x1="67.0339" x2="544.2422" y1="431.8341" y2="431.8341"/><text fill="#000000" font-family="sans-serif" font-size="13" font-weight="bold" lengthAdjust="spacing" textLength="7.436" x="79.0339" y="426.0251">5</text><text fill="#000000" font-family="sans-serif" font-size="13" lengthAdjust="spacing" textLength="447.7723" x="90.4699" y="426.0251">S&#233;lectionne ou d&#233;selectionne option de notification uniquement sur appli</text></g><path d="M20,460.8341 L86.918,460.8341 L86.918,470.5401 L76.918,480.5401 L20,480.5401 L20,460.8341" fill="#EEEEEE" style="stroke:#000000;stroke-width:1.5;"/><rect fill="none" height="83.118" style="stroke:#000000;stroke-width:1.5;" width="584.118" x="20" y="460.8341"/><text fill="#000000" font-family="sans-serif" font-size="13" font-weight="bold" lengthAdjust="spacing" textLength="21.918" x="35" y="475.7311">opt</text><text fill="#000000" font-family="sans-serif" font-size="11" font-weight="bold" lengthAdjust="spacing" textLength="175.5147" x="101.918" y="474.593">[modifier les profils recomand&#233;]</text><g class="message" data-participant-1="usr" data-participant-2="app"><polygon fill="#181818" points="538.2422,500.2461,548.2422,504.2461,538.2422,508.2461,542.2422,504.2461" style="stroke:#181818;stroke-width:1;"/><line style="stroke:#181818;stroke-width:1;" x1="67.0339" x2="544.2422" y1="504.2461" y2="504.2461"/><text fill="#000000" font-family="sans-serif" font-size="13" font-weight="bold" lengthAdjust="spacing" textLength="7.436" x="187.6294" y="498.4371">6</text><text fill="#000000" font-family="sans-serif" font-size="13" lengthAdjust="spacing" textLength="230.5812" x="199.0654" y="498.4371">S&#233;lectionne menu profil recommand&#233;</text></g><g class="message" data-participant-1="usr" data-participant-2="app"><polygon fill="#181818" points="538.2422,531.9521,548.2422,535.9521,538.2422,539.9521,542.2422,535.9521" style="stroke:#181818;stroke-width:1;"/><line style="stroke:#181818;stroke-width:1;" x1="67.0339" x2="544.2422" y1="535.9521" y2="535.9521"/><text fill="#000000" font-family="sans-serif" font-size="13" font-weight="bold" lengthAdjust="spacing" textLength="7.436" x="192.0104" y="530.1431">7</text><text fill="#000000" font-family="sans-serif" font-size="13" lengthAdjust="spacing" textLength="221.8192" x="203.4464" y="530.1431">Ajoute ou enl&#232;ve crit&#232;re de s&#233;lection</text></g><path d="M20,557.9521 L86.918,557.9521 L86.918,567.6582 L76.918,577.6582 L20,577.6582 L20,557.9521" fill="#EEEEEE" style="stroke:#000000;stroke-width:1.5;"/><rect fill="none" height="83.118" style="stroke:#000000;stroke-width:1.5;" width="584.118" x="20" y="557.9521"/><text fill="#000000" font-family="sans-serif" font-size="13" font-weight="bold" lengthAdjust="spacing" textLength="21.918" x="35" y="572.8492">opt</text><text fill="#000000" font-family="sans-serif" font-size="11" font-weight="bold" lengthAdjust="spacing" textLength="153.5589" x="101.918" y="571.7111">[modifier visibilit&#233; du profil]</text><g class="message" data-participant-1="usr" data-participant-2="app"><polygon fill="#181818" points="538.2422,597.3642,548.2422,601.3642,538.2422,605.3642,542.2422,601.3642" style="stroke:#181818;stroke-width:1;"/><line style="stroke:#181818;stroke-width:1;" x1="67.0339" x2="544.2422" y1="601.3642" y2="601.3642"/><text fill="#000000" font-family="sans-serif" font-size="13" font-weight="bold" lengthAdjust="spacing" textLength="7.436" x="193.9994" y="595.5552">8</text><text fill="#000000" font-family="sans-serif" font-size="13" lengthAdjust="spacing" textLength="217.8412" x="205.4354" y="595.5552">S&#233;lectionne menu visibilit&#233; du profil</text></g><g class="message" data-participant-1="usr" data-participant-2="app"><polygon fill="#181818" points="538.2422,629.0702,548.2422,633.0702,538.2422,637.0702,542.2422,633.0702" style="stroke:#181818;stroke-width:1;"/><line style="stroke:#181818;stroke-width:1;" x1="67.0339" x2="544.2422" y1="633.0702" y2="633.0702"/><text fill="#000000" font-family="sans-serif" font-size="13" font-weight="bold" lengthAdjust="spacing" textLength="7.436" x="192.0104" y="627.2612">9</text><text fill="#000000" font-family="sans-serif" font-size="13" lengthAdjust="spacing" textLength="221.8192" x="203.4464" y="627.2612">Ajoute ou enl&#232;ve crit&#232;re de s&#233;lection</text></g><g class="message" data-participant-1="usr" data-participant-2="app"><polygon fill="#181818" points="538.2422,667.7762,548.2422,671.7762,538.2422,675.7762,542.2422,671.7762" style="stroke:#181818;stroke-width:1;"/><line style="stroke:#181818;stroke-width:1;" x1="67.0339" x2="544.2422" y1="671.7762" y2="671.7762"/><text fill="#000000" font-family="sans-serif" font-size="13" font-weight="bold" lengthAdjust="spacing" textLength="14.872" x="179.3744" y="665.9672">10</text><text fill="#000000" font-family="sans-serif" font-size="13" lengthAdjust="spacing" textLength="239.6552" x="198.2464" y="665.9672">Clique sur enregistrer les modifications</text></g><g class="message" data-participant-1="app" data-participant-2="usr"><polygon fill="#181818" points="78.0339,699.4822,68.0339,703.4822,78.0339,707.4822,74.0339,703.4822" style="stroke:#181818;stroke-width:1;"/><line style="stroke:#181818;stroke-width:1;" x1="72.0339" x2="549.2422" y1="703.4822" y2="703.4822"/><text fill="#000000" font-family="sans-serif" font-size="13" font-weight="bold" lengthAdjust="spacing" textLength="14.872" x="223.7629" y="697.6732">11</text><text fill="#000000" font-family="sans-serif" font-size="13" lengthAdjust="spacing" textLength="150.8781" x="242.635" y="697.6732">Confirme la modification</text></g><!--SRC=[hPF1Rjim38RlUWeYbvts0WLI8EYvG85Yvq2HcPITBBgab69l53-7NsoKdBGni68PC1yCGoR__-DlsfVCgVGx5AS_AGrUV0-ARmLJm4TKzGVSH3ea29Zoeig7pFASVqM45uwHtvrhHx3waIcI-en5Lk0LYegpdao11fyoh3R342duJ9nQWHy6vzPhU99f53CdXVNQMHjylwyluSwO871A62e4rEibSKQZ45QTJpP79e6zfmm6fM4QanTYs6uVEEtfK0G5b1CCmdkAsorq1OBvTzzA7TGA7xcZFLdPfMHMnjH1jJjJSh1aIeDSKZvFOpH4ggJGOofmSMx3LhzPs3aUClGNjuWABTNfbCMUEwnszcuEwJpVNwoM0dfMyE5AePbwiuUFwsjHBj1De-BLoJ1FiQI3ZiikJcC5k5Atp3vDVVtY_zUr9B8rjSapQ95hX-hiskqFARVu5GG3zpwPrMtPjhQvwykspIkNt2R05AVJqLPMA4ydmGgl7w8psmBjI4ex-skonVYv9BUGtThvRt3BjNw8DUeMCoR10scMSvxp19SrhUNMLPllvjMN7Y7wHTbl]--></g></svg>