<svg xmlns="http://www.w3.org/2000/svg" xmlns:xlink="http://www.w3.org/1999/xlink" contentStyleType="text/css" data-diagram-type="SEQUENCE" height="293px" preserveAspectRatio="none" style="width:378px;height:293px;background:#FFFFFF;" version="1.1" viewBox="0 0 378 293" width="378px" zoomAndPan="magnify"><defs/><g><g><title>Utilisateur</title><rect fill="#000000" fill-opacity="0.00000" height="178.5301" width="8" x="38.0339" y="57.0679"/><line style="stroke:#181818;stroke-width:0.5;stroke-dasharray:5,5;" x1="42" x2="42" y1="57.0679" y2="235.598"/></g><g><title>Application</title><rect fill="#000000" fill-opacity="0.00000" height="178.5301" width="8" x="324.2661" y="57.0679"/><line style="stroke:#181818;stroke-width:0.5;stroke-dasharray:5,5;" x1="327.3902" x2="327.3902" y1="57.0679" y2="235.598"/></g><g class="participant participant-head" data-participant="usr"><text fill="#000000" font-family="sans-serif" font-size="14" lengthAdjust="spacing" textLength="68.0677" x="5" y="52.9659">Utilisateur</text><ellipse cx="42.0339" cy="10" fill="#E2E2F0" rx="4.5" ry="4.5" style="stroke:#181818;stroke-width:0.5;"/><path d="M29.5339,16.5 L29.5339,21.5 L39.0339,21.5 L39.0339,23.7574 L29.5339,33.2574 L33.7765,37.5 L42.0339,29.2426 L50.2912,37.5 L54.5339,33.2574 L45.0339,23.7574 L45.0339,21.5 L54.5339,21.5 L54.5339,16.5 L29.5339,16.5" fill="#E2E2F0" style="stroke:#181818;stroke-width:0.5;"/></g><g class="participant participant-tail" data-participant="usr"><text fill="#000000" font-family="sans-serif" font-size="14" lengthAdjust="spacing" textLength="68.0677" x="5" y="249.5639">Utilisateur</text><ellipse cx="42.0339" cy="258.6659" fill="#E2E2F0" rx="4.5" ry="4.5" style="stroke:#181818;stroke-width:0.5;"/><path d="M29.5339,265.1659 L29.5339,270.1659 L39.0339,270.1659 L39.0339,272.4233 L29.5339,281.9233 L33.7765,286.1659 L42.0339,277.9086 L50.2912,286.1659 L54.5339,281.9233 L45.0339,272.4233 L45.0339,270.1659 L54.5339,270.1659 L54.5339,265.1659 L29.5339,265.1659" fill="#E2E2F0" style="stroke:#181818;stroke-width:0.5;"/></g><g class="participant participant-head" data-participant="app"><rect fill="#E2E2F0" height="33.0679" rx="2.5" ry="2.5" style="stroke:#181818;stroke-width:0.5;" width="87.7517" x="284.3902" y="23"/><text fill="#000000" font-family="sans-serif" font-size="14" lengthAdjust="spacing" textLength="73.7517" x="291.3902" y="44.9659">Application</text></g><g class="participant participant-tail" data-participant="app"><rect fill="#E2E2F0" height="33.0679" rx="2.5" ry="2.5" style="stroke:#181818;stroke-width:0.5;" width="87.7517" x="284.3902" y="234.598"/><text fill="#000000" font-family="sans-serif" font-size="14" lengthAdjust="spacing" textLength="73.7517" x="291.3902" y="256.5639">Application</text></g><g class="message" data-participant-1="usr" data-participant-2="app"><polygon fill="#181818" points="316.2661,86.7739,326.2661,90.7739,316.2661,94.7739,320.2661,90.7739" style="stroke:#181818;stroke-width:1;"/><line style="stroke:#181818;stroke-width:1;" x1="42.0339" x2="322.2661" y1="90.7739" y2="90.7739"/><text fill="#000000" font-family="sans-serif" font-size="13" font-weight="bold" lengthAdjust="spacing" textLength="7.436" x="108.3609" y="84.9649">1</text><text fill="#000000" font-family="sans-serif" font-size="13" lengthAdjust="spacing" textLength="142.1421" x="119.7969" y="84.9649">Acc&#232;de &#224; la messagerie</text></g><g class="message" data-participant-1="app" data-participant-2="usr"><polygon fill="#181818" points="53.0339,118.4799,43.0339,122.4799,53.0339,126.4799,49.0339,122.4799" style="stroke:#181818;stroke-width:1;"/><line style="stroke:#181818;stroke-width:1;" x1="47.0339" x2="327.2661" y1="122.4799" y2="122.4799"/><text fill="#000000" font-family="sans-serif" font-size="13" font-weight="bold" lengthAdjust="spacing" textLength="7.436" x="102.4849" y="116.6709">2</text><text fill="#000000" font-family="sans-serif" font-size="13" lengthAdjust="spacing" textLength="153.8941" x="113.9209" y="116.6709">Montre les conversations</text></g><g class="message" data-participant-1="app" data-participant-2="usr"><polygon fill="#181818" points="53.0339,150.186,43.0339,154.186,53.0339,158.186,49.0339,154.186" style="stroke:#181818;stroke-width:1;"/><line style="stroke:#181818;stroke-width:1;" x1="47.0339" x2="327.2661" y1="154.186" y2="154.186"/><text fill="#000000" font-family="sans-serif" font-size="13" font-weight="bold" lengthAdjust="spacing" textLength="7.436" x="76.2509" y="148.377">3</text><text fill="#000000" font-family="sans-serif" font-size="13" lengthAdjust="spacing" textLength="206.3622" x="87.6869" y="148.377">Notifie pour les messages non lus</text></g><g class="message" data-participant-1="usr" data-participant-2="app"><polygon fill="#181818" points="316.2661,181.892,326.2661,185.892,316.2661,189.892,320.2661,185.892" style="stroke:#181818;stroke-width:1;"/><line style="stroke:#181818;stroke-width:1;" x1="42.0339" x2="322.2661" y1="185.892" y2="185.892"/><text fill="#000000" font-family="sans-serif" font-size="13" font-weight="bold" lengthAdjust="spacing" textLength="7.436" x="100.9119" y="180.083">4</text><text fill="#000000" font-family="sans-serif" font-size="13" lengthAdjust="spacing" textLength="157.0401" x="112.3479" y="180.083">Choisit une conversations</text></g><g class="message" data-participant-1="app" data-participant-2="usr"><polygon fill="#181818" points="53.0339,213.598,43.0339,217.598,53.0339,221.598,49.0339,217.598" style="stroke:#181818;stroke-width:1;"/><line style="stroke:#181818;stroke-width:1;" x1="47.0339" x2="327.2661" y1="217.598" y2="217.598"/><text fill="#000000" font-family="sans-serif" font-size="13" font-weight="bold" lengthAdjust="spacing" textLength="7.436" x="54.0339" y="211.789">5</text><text fill="#000000" font-family="sans-serif" font-size="13" lengthAdjust="spacing" textLength="250.7962" x="65.4699" y="211.789">Montre les messages de la conversations</text></g><!--SRC=[VOunJWGn34NxdE9hUYwm1TA8UcaG1p31x5fax10x86v3oJtsOcG6X9Y6phBVV_xKmxGl3zoIFujMQhJ0-QMpPZwoEvruBd9IPDROKPJ3sbsy5yRPIh6tbBOLflkG8ax1lKqWH_UMHYOaIoKDJ7EjHJA5c6u0rPhIe71rlSuuOCxvyld8k7oW49Rl8aquhUT1hV01HzDeZCAERFhApJUdxwbR2taIHhNUDlP7vr1JbExxrpTd4vT0L_xF-kVthsyK7crteIy0]--></g></svg>