<svg xmlns="http://www.w3.org/2000/svg" xmlns:xlink="http://www.w3.org/1999/xlink" contentStyleType="text/css" data-diagram-type="SEQUENCE" height="1197px" preserveAspectRatio="none" style="width:531px;height:1197px;background:#FFFFFF;" version="1.1" viewBox="0 0 531 1197" width="531px" zoomAndPan="magnify"><defs/><g><rect fill="none" height="83.118" style="stroke:#000000;stroke-width:1.5;" width="408.527" x="61" y="232.892"/><rect fill="none" height="83.118" style="stroke:#000000;stroke-width:1.5;" width="408.527" x="61" y="330.01"/><rect fill="none" height="83.118" style="stroke:#000000;stroke-width:1.5;" width="408.527" x="61" y="427.1281"/><rect fill="none" height="83.118" style="stroke:#000000;stroke-width:1.5;" width="408.527" x="61" y="524.2461"/><rect fill="none" height="83.118" style="stroke:#000000;stroke-width:1.5;" width="408.527" x="61" y="621.3642"/><rect fill="none" height="83.118" style="stroke:#000000;stroke-width:1.5;" width="408.527" x="61" y="718.4822"/><rect fill="none" height="114.8241" style="stroke:#000000;stroke-width:1.5;" width="408.527" x="61" y="815.6003"/><rect fill="none" height="114.8241" style="stroke:#000000;stroke-width:1.5;" width="408.527" x="61" y="944.4243"/><g><title>Utilisateur</title><rect fill="#000000" fill-opacity="0.00000" height="1082.5925" width="8" x="104.0339" y="57.0679"/><line style="stroke:#181818;stroke-width:0.5;stroke-dasharray:5,5;" x1="108" x2="108" y1="57.0679" y2="1139.6604"/></g><g><title>Application</title><rect fill="#000000" fill-opacity="0.00000" height="1082.5925" width="8" x="411.6511" y="57.0679"/><line style="stroke:#181818;stroke-width:0.5;stroke-dasharray:5,5;" x1="414.7753" x2="414.7753" y1="57.0679" y2="1139.6604"/></g><g class="participant participant-head" data-participant="usr"><text fill="#000000" font-family="sans-serif" font-size="14" lengthAdjust="spacing" textLength="68.0677" x="71" y="52.9659">Utilisateur</text><ellipse cx="108.0339" cy="10" fill="#E2E2F0" rx="4.5" ry="4.5" style="stroke:#181818;stroke-width:0.5;"/><path d="M95.5339,16.5 L95.5339,21.5 L105.0339,21.5 L105.0339,23.7574 L95.5339,33.2574 L99.7765,37.5 L108.0339,29.2426 L116.2912,37.5 L120.5339,33.2574 L111.0339,23.7574 L111.0339,21.5 L120.5339,21.5 L120.5339,16.5 L95.5339,16.5" fill="#E2E2F0" style="stroke:#181818;stroke-width:0.5;"/></g><g class="participant participant-tail" data-participant="usr"><text fill="#000000" font-family="sans-serif" font-size="14" lengthAdjust="spacing" textLength="68.0677" x="71" y="1153.6264">Utilisateur</text><ellipse cx="108.0339" cy="1162.7284" fill="#E2E2F0" rx="4.5" ry="4.5" style="stroke:#181818;stroke-width:0.5;"/><path d="M95.5339,1169.2284 L95.5339,1174.2284 L105.0339,1174.2284 L105.0339,1176.4857 L95.5339,1185.9857 L99.7765,1190.2284 L108.0339,1181.971 L116.2912,1190.2284 L120.5339,1185.9857 L111.0339,1176.4857 L111.0339,1174.2284 L120.5339,1174.2284 L120.5339,1169.2284 L95.5339,1169.2284" fill="#E2E2F0" style="stroke:#181818;stroke-width:0.5;"/></g><g class="participant participant-head" data-participant="app"><rect fill="#E2E2F0" height="33.0679" rx="2.5" ry="2.5" style="stroke:#181818;stroke-width:0.5;" width="87.7517" x="371.7753" y="23"/><text fill="#000000" font-family="sans-serif" font-size="14" lengthAdjust="spacing" textLength="73.7517" x="378.7753" y="44.9659">Application</text></g><g class="participant participant-tail" data-participant="app"><rect fill="#E2E2F0" height="33.0679" rx="2.5" ry="2.5" style="stroke:#181818;stroke-width:0.5;" width="87.7517" x="371.7753" y="1138.6604"/><text fill="#000000" font-family="sans-serif" font-size="14" lengthAdjust="spacing" textLength="73.7517" x="378.7753" y="1160.6264">Application</text></g><rect fill="#EEEEEE" height="3" style="stroke:#EEEEEE;stroke-width:1;" width="524.3474" x="0" y="88.9209"/><line style="stroke:#000000;stroke-width:1;" x1="0" x2="524.3474" y1="88.9209" y2="88.9209"/><line style="stroke:#000000;stroke-width:1;" x1="0" x2="524.3474" y1="91.9209" y2="91.9209"/><rect fill="#EEEEEE" height="25.706" style="stroke:#000000;stroke-width:2;" width="79.91" x="222.2187" y="77.0679"/><text fill="#000000" font-family="sans-serif" font-size="13" font-weight="bold" lengthAdjust="spacing" textLength="62.53" x="228.2187" y="94.9649">Pr&#233;requis</text><g class="message" data-participant-1="usr" data-participant-2="app"><polygon fill="#181818" points="403.6511,132.4799,413.6511,136.4799,403.6511,140.4799,407.6511,136.4799" style="stroke:#181818;stroke-width:1;"/><line style="stroke:#181818;stroke-width:1;" x1="108.0339" x2="409.6511" y1="136.4799" y2="136.4799"/><text fill="#000000" font-family="sans-serif" font-size="13" font-weight="bold" lengthAdjust="spacing" textLength="7.436" x="217.0855" y="130.6709">1</text><text fill="#000000" font-family="sans-serif" font-size="13" lengthAdjust="spacing" textLength="78.0781" x="228.5215" y="130.6709">se connecter</text></g><polygon fill="#FEFFDD" points="15,149.4799,509,149.4799,519,161.4799,509,174.4799,15,174.4799,5,161.4799,15,149.4799" style="stroke:#181818;stroke-width:0.5;"/><text fill="#000000" font-family="sans-serif" font-size="13" lengthAdjust="spacing" textLength="123.8511" x="17" y="167.377">Avoir fait le sc&#233;nario</text><text fill="#000000" font-family="sans-serif" font-size="13" lengthAdjust="spacing" text-decoration="underline" textLength="153.1792" x="144.2311" y="167.377">Modifier son profil public</text><text fill="#000000" font-family="sans-serif" font-size="13" lengthAdjust="spacing" textLength="90.3501" x="300.7903" y="167.377">du cas d'usage</text><text fill="#000000" font-family="sans-serif" font-size="13" lengthAdjust="spacing" text-decoration="underline" textLength="112.8271" x="394.5203" y="167.377">Modifier son profil</text><rect fill="#EEEEEE" height="3" style="stroke:#EEEEEE;stroke-width:1;" width="524.3474" x="0" y="202.039"/><line style="stroke:#000000;stroke-width:1;" x1="0" x2="524.3474" y1="202.039" y2="202.039"/><line style="stroke:#000000;stroke-width:1;" x1="0" x2="524.3474" y1="205.039" y2="205.039"/><rect fill="#EEEEEE" height="25.706" style="stroke:#000000;stroke-width:2;" width="81.782" x="221.2827" y="190.186"/><text fill="#000000" font-family="sans-serif" font-size="13" font-weight="bold" lengthAdjust="spacing" textLength="64.402" x="227.2827" y="208.083">Processus</text><path d="M61,232.892 L127.918,232.892 L127.918,242.598 L117.918,252.598 L61,252.598 L61,232.892" fill="#EEEEEE" style="stroke:#000000;stroke-width:1.5;"/><rect fill="none" height="83.118" style="stroke:#000000;stroke-width:1.5;" width="408.527" x="61" y="232.892"/><text fill="#000000" font-family="sans-serif" font-size="13" font-weight="bold" lengthAdjust="spacing" textLength="21.918" x="76" y="247.789">opt</text><text fill="#000000" font-family="sans-serif" font-size="11" font-weight="bold" lengthAdjust="spacing" textLength="119.4701" x="142.918" y="246.6509">[modifier son pseudo]</text><g class="message" data-participant-1="usr" data-participant-2="app"><polygon fill="#181818" points="403.6511,272.304,413.6511,276.304,403.6511,280.304,407.6511,276.304" style="stroke:#181818;stroke-width:1;"/><line style="stroke:#181818;stroke-width:1;" x1="108.0339" x2="409.6511" y1="276.304" y2="276.304"/><text fill="#000000" font-family="sans-serif" font-size="13" font-weight="bold" lengthAdjust="spacing" textLength="7.436" x="166.7754" y="270.495">2</text><text fill="#000000" font-family="sans-serif" font-size="13" lengthAdjust="spacing" textLength="178.6982" x="178.2114" y="270.495">S&#233;lectionne le champ pseudo</text></g><g class="message" data-participant-1="usr" data-participant-2="app"><polygon fill="#181818" points="403.6511,304.01,413.6511,308.01,403.6511,312.01,407.6511,308.01" style="stroke:#181818;stroke-width:1;"/><line style="stroke:#181818;stroke-width:1;" x1="108.0339" x2="409.6511" y1="308.01" y2="308.01"/><text fill="#000000" font-family="sans-serif" font-size="13" font-weight="bold" lengthAdjust="spacing" textLength="7.436" x="201.2254" y="302.201">3</text><text fill="#000000" font-family="sans-serif" font-size="13" lengthAdjust="spacing" textLength="109.7981" x="212.6615" y="302.201">Change le pseudo</text></g><path d="M61,330.01 L127.918,330.01 L127.918,339.716 L117.918,349.716 L61,349.716 L61,330.01" fill="#EEEEEE" style="stroke:#000000;stroke-width:1.5;"/><rect fill="none" height="83.118" style="stroke:#000000;stroke-width:1.5;" width="408.527" x="61" y="330.01"/><text fill="#000000" font-family="sans-serif" font-size="13" font-weight="bold" lengthAdjust="spacing" textLength="21.918" x="76" y="344.907">opt</text><text fill="#000000" font-family="sans-serif" font-size="11" font-weight="bold" lengthAdjust="spacing" textLength="99.6483" x="142.918" y="343.7689">[modifier son &#226;ge]</text><g class="message" data-participant-1="usr" data-participant-2="app"><polygon fill="#181818" points="403.6511,369.4221,413.6511,373.4221,403.6511,377.4221,407.6511,373.4221" style="stroke:#181818;stroke-width:1;"/><line style="stroke:#181818;stroke-width:1;" x1="108.0339" x2="409.6511" y1="373.4221" y2="373.4221"/><text fill="#000000" font-family="sans-serif" font-size="13" font-weight="bold" lengthAdjust="spacing" textLength="7.436" x="165.6964" y="367.6131">4</text><text fill="#000000" font-family="sans-serif" font-size="13" lengthAdjust="spacing" textLength="180.8562" x="177.1324" y="367.6131">S&#233;lectionne le champ de l'&#226;ge</text></g><g class="message" data-participant-1="usr" data-participant-2="app"><polygon fill="#181818" points="403.6511,401.1281,413.6511,405.1281,403.6511,409.1281,407.6511,405.1281" style="stroke:#181818;stroke-width:1;"/><line style="stroke:#181818;stroke-width:1;" x1="108.0339" x2="409.6511" y1="405.1281" y2="405.1281"/><text fill="#000000" font-family="sans-serif" font-size="13" font-weight="bold" lengthAdjust="spacing" textLength="7.436" x="217.521" y="399.3191">5</text><text fill="#000000" font-family="sans-serif" font-size="13" lengthAdjust="spacing" textLength="77.2071" x="228.957" y="399.3191">change l'&#226;ge</text></g><path d="M61,427.1281 L127.918,427.1281 L127.918,436.8341 L117.918,446.8341 L61,446.8341 L61,427.1281" fill="#EEEEEE" style="stroke:#000000;stroke-width:1.5;"/><rect fill="none" height="83.118" style="stroke:#000000;stroke-width:1.5;" width="408.527" x="61" y="427.1281"/><text fill="#000000" font-family="sans-serif" font-size="13" font-weight="bold" lengthAdjust="spacing" textLength="21.918" x="76" y="442.0251">opt</text><text fill="#000000" font-family="sans-serif" font-size="11" font-weight="bold" lengthAdjust="spacing" textLength="94.9733" x="142.918" y="440.887">[modifier sa ville]</text><g class="message" data-participant-1="usr" data-participant-2="app"><polygon fill="#181818" points="403.6511,466.5401,413.6511,470.5401,403.6511,474.5401,407.6511,470.5401" style="stroke:#181818;stroke-width:1;"/><line style="stroke:#181818;stroke-width:1;" x1="108.0339" x2="409.6511" y1="470.5401" y2="470.5401"/><text fill="#000000" font-family="sans-serif" font-size="13" font-weight="bold" lengthAdjust="spacing" textLength="7.436" x="161.1334" y="464.7311">6</text><text fill="#000000" font-family="sans-serif" font-size="13" lengthAdjust="spacing" textLength="189.9822" x="172.5694" y="464.7311">S&#233;lectionne le champ de la ville</text></g><g class="message" data-participant-1="usr" data-participant-2="app"><polygon fill="#181818" points="403.6511,498.2461,413.6511,502.2461,403.6511,506.2461,407.6511,502.2461" style="stroke:#181818;stroke-width:1;"/><line style="stroke:#181818;stroke-width:1;" x1="108.0339" x2="409.6511" y1="502.2461" y2="502.2461"/><text fill="#000000" font-family="sans-serif" font-size="13" font-weight="bold" lengthAdjust="spacing" textLength="7.436" x="141.2629" y="496.4371">7</text><text fill="#000000" font-family="sans-serif" font-size="13" lengthAdjust="spacing" textLength="229.7232" x="152.6989" y="496.4371">S&#233;lectionne la ville parmis la s&#233;lection</text></g><path d="M61,524.2461 L127.918,524.2461 L127.918,533.9521 L117.918,543.9521 L61,543.9521 L61,524.2461" fill="#EEEEEE" style="stroke:#000000;stroke-width:1.5;"/><rect fill="none" height="83.118" style="stroke:#000000;stroke-width:1.5;" width="408.527" x="61" y="524.2461"/><text fill="#000000" font-family="sans-serif" font-size="13" font-weight="bold" lengthAdjust="spacing" textLength="21.918" x="76" y="539.1431">opt</text><text fill="#000000" font-family="sans-serif" font-size="11" font-weight="bold" lengthAdjust="spacing" textLength="111.7262" x="142.918" y="538.005">[modifier son genre]</text><g class="message" data-participant-1="usr" data-participant-2="app"><polygon fill="#181818" points="403.6511,563.6582,413.6511,567.6582,403.6511,571.6582,407.6511,567.6582" style="stroke:#181818;stroke-width:1;"/><line style="stroke:#181818;stroke-width:1;" x1="108.0339" x2="409.6511" y1="567.6582" y2="567.6582"/><text fill="#000000" font-family="sans-serif" font-size="13" font-weight="bold" lengthAdjust="spacing" textLength="7.436" x="161.7639" y="561.8492">8</text><text fill="#000000" font-family="sans-serif" font-size="13" lengthAdjust="spacing" textLength="188.7212" x="173.1999" y="561.8492">S&#233;lectionne le champ du genre</text></g><g class="message" data-participant-1="usr" data-participant-2="app"><polygon fill="#181818" points="403.6511,595.3642,413.6511,599.3642,403.6511,603.3642,407.6511,599.3642" style="stroke:#181818;stroke-width:1;"/><line style="stroke:#181818;stroke-width:1;" x1="108.0339" x2="409.6511" y1="599.3642" y2="599.3642"/><text fill="#000000" font-family="sans-serif" font-size="13" font-weight="bold" lengthAdjust="spacing" textLength="7.436" x="205.9185" y="593.5552">9</text><text fill="#000000" font-family="sans-serif" font-size="13" lengthAdjust="spacing" textLength="100.4121" x="217.3545" y="593.5552">Change le genre</text></g><path d="M61,621.3642 L127.918,621.3642 L127.918,631.0702 L117.918,641.0702 L61,641.0702 L61,621.3642" fill="#EEEEEE" style="stroke:#000000;stroke-width:1.5;"/><rect fill="none" height="83.118" style="stroke:#000000;stroke-width:1.5;" width="408.527" x="61" y="621.3642"/><text fill="#000000" font-family="sans-serif" font-size="13" font-weight="bold" lengthAdjust="spacing" textLength="21.918" x="76" y="636.2612">opt</text><text fill="#000000" font-family="sans-serif" font-size="11" font-weight="bold" lengthAdjust="spacing" textLength="131.9221" x="142.918" y="635.1231">[modifier sa biographie]</text><g class="message" data-participant-1="usr" data-participant-2="app"><polygon fill="#181818" points="403.6511,660.7762,413.6511,664.7762,403.6511,668.7762,407.6511,664.7762" style="stroke:#181818;stroke-width:1;"/><line style="stroke:#181818;stroke-width:1;" x1="108.0339" x2="409.6511" y1="664.7762" y2="664.7762"/><text fill="#000000" font-family="sans-serif" font-size="13" font-weight="bold" lengthAdjust="spacing" textLength="14.872" x="136.1214" y="658.9672">10</text><text fill="#000000" font-family="sans-serif" font-size="13" lengthAdjust="spacing" textLength="232.5702" x="154.9934" y="658.9672">S&#233;lectionne le champ de la biographie</text></g><g class="message" data-participant-1="usr" data-participant-2="app"><polygon fill="#181818" points="403.6511,692.4822,413.6511,696.4822,403.6511,700.4822,407.6511,696.4822" style="stroke:#181818;stroke-width:1;"/><line style="stroke:#181818;stroke-width:1;" x1="108.0339" x2="409.6511" y1="696.4822" y2="696.4822"/><text fill="#000000" font-family="sans-serif" font-size="13" font-weight="bold" lengthAdjust="spacing" textLength="14.872" x="186.9579" y="690.6732">11</text><text fill="#000000" font-family="sans-serif" font-size="13" lengthAdjust="spacing" textLength="130.8971" x="205.8299" y="690.6732">Change la biographie</text></g><path d="M61,718.4822 L127.918,718.4822 L127.918,728.1882 L117.918,738.1882 L61,738.1882 L61,718.4822" fill="#EEEEEE" style="stroke:#000000;stroke-width:1.5;"/><rect fill="none" height="83.118" style="stroke:#000000;stroke-width:1.5;" width="408.527" x="61" y="718.4822"/><text fill="#000000" font-family="sans-serif" font-size="13" font-weight="bold" lengthAdjust="spacing" textLength="21.918" x="76" y="733.3792">opt</text><text fill="#000000" font-family="sans-serif" font-size="11" font-weight="bold" lengthAdjust="spacing" textLength="174.9317" x="142.918" y="732.2411">[modifier ses centres d'int&#233;r&#234;ts]</text><g class="message" data-participant-1="usr" data-participant-2="app"><polygon fill="#181818" points="403.6511,757.8943,413.6511,761.8943,403.6511,765.8943,407.6511,761.8943" style="stroke:#181818;stroke-width:1;"/><line style="stroke:#181818;stroke-width:1;" x1="108.0339" x2="409.6511" y1="761.8943" y2="761.8943"/><text fill="#000000" font-family="sans-serif" font-size="13" font-weight="bold" lengthAdjust="spacing" textLength="14.872" x="120.0339" y="756.0853">12</text><text fill="#000000" font-family="sans-serif" font-size="13" lengthAdjust="spacing" textLength="264.7452" x="138.9059" y="756.0853">S&#233;lectionne le champ des centres d'int&#233;r&#234;ts</text></g><g class="message" data-participant-1="usr" data-participant-2="app"><polygon fill="#181818" points="403.6511,789.6003,413.6511,793.6003,403.6511,797.6003,407.6511,793.6003" style="stroke:#181818;stroke-width:1;"/><line style="stroke:#181818;stroke-width:1;" x1="108.0339" x2="409.6511" y1="793.6003" y2="793.6003"/><text fill="#000000" font-family="sans-serif" font-size="13" font-weight="bold" lengthAdjust="spacing" textLength="14.872" x="166.9509" y="787.7913">13</text><text fill="#000000" font-family="sans-serif" font-size="13" lengthAdjust="spacing" textLength="170.9111" x="185.8229" y="787.7913">Change les centre d'int&#233;r&#234;ts</text></g><path d="M61,815.6003 L127.918,815.6003 L127.918,825.3063 L117.918,835.3063 L61,835.3063 L61,815.6003" fill="#EEEEEE" style="stroke:#000000;stroke-width:1.5;"/><rect fill="none" height="114.8241" style="stroke:#000000;stroke-width:1.5;" width="408.527" x="61" y="815.6003"/><text fill="#000000" font-family="sans-serif" font-size="13" font-weight="bold" lengthAdjust="spacing" textLength="21.918" x="76" y="830.4973">opt</text><text fill="#000000" font-family="sans-serif" font-size="11" font-weight="bold" lengthAdjust="spacing" textLength="111.9682" x="142.918" y="829.3592">[ajouter des m&#233;dias]</text><g class="message" data-participant-1="usr" data-participant-2="app"><polygon fill="#181818" points="403.6511,855.0123,413.6511,859.0123,403.6511,863.0123,407.6511,859.0123" style="stroke:#181818;stroke-width:1;"/><line style="stroke:#181818;stroke-width:1;" x1="108.0339" x2="409.6511" y1="859.0123" y2="859.0123"/><text fill="#000000" font-family="sans-serif" font-size="13" font-weight="bold" lengthAdjust="spacing" textLength="14.872" x="157.3439" y="853.2033">14</text><text fill="#000000" font-family="sans-serif" font-size="13" lengthAdjust="spacing" textLength="190.1252" x="176.2159" y="853.2033">S&#233;lectionne la zone des m&#233;dias</text></g><g class="message" data-participant-1="usr" data-participant-2="app"><polygon fill="#181818" points="403.6511,886.7183,413.6511,890.7183,403.6511,894.7183,407.6511,890.7183" style="stroke:#181818;stroke-width:1;"/><line style="stroke:#181818;stroke-width:1;" x1="108.0339" x2="409.6511" y1="890.7183" y2="890.7183"/><text fill="#000000" font-family="sans-serif" font-size="13" font-weight="bold" lengthAdjust="spacing" textLength="14.872" x="160.7369" y="884.9093">15</text><text fill="#000000" font-family="sans-serif" font-size="13" lengthAdjust="spacing" textLength="183.3392" x="179.6089" y="884.9093">Choisi l'option ajoputer media</text></g><g class="message" data-participant-1="usr" data-participant-2="app"><polygon fill="#181818" points="403.6511,918.4243,413.6511,922.4243,403.6511,926.4243,407.6511,922.4243" style="stroke:#181818;stroke-width:1;"/><line style="stroke:#181818;stroke-width:1;" x1="108.0339" x2="409.6511" y1="922.4243" y2="922.4243"/><text fill="#000000" font-family="sans-serif" font-size="13" font-weight="bold" lengthAdjust="spacing" textLength="14.872" x="169.0634" y="916.6153">16</text><text fill="#000000" font-family="sans-serif" font-size="13" lengthAdjust="spacing" textLength="166.6861" x="187.9354" y="916.6153">Choisi les fichiers souhaiter</text></g><path d="M61,944.4243 L127.918,944.4243 L127.918,954.1304 L117.918,964.1304 L61,964.1304 L61,944.4243" fill="#EEEEEE" style="stroke:#000000;stroke-width:1.5;"/><rect fill="none" height="114.8241" style="stroke:#000000;stroke-width:1.5;" width="408.527" x="61" y="944.4243"/><text fill="#000000" font-family="sans-serif" font-size="13" font-weight="bold" lengthAdjust="spacing" textLength="21.918" x="76" y="959.3214">opt</text><text fill="#000000" font-family="sans-serif" font-size="11" font-weight="bold" lengthAdjust="spacing" textLength="128.9301" x="142.918" y="958.1833">[supprimer des m&#233;dias]</text><g class="message" data-participant-1="usr" data-participant-2="app"><polygon fill="#181818" points="403.6511,983.8364,413.6511,987.8364,403.6511,991.8364,407.6511,987.8364" style="stroke:#181818;stroke-width:1;"/><line style="stroke:#181818;stroke-width:1;" x1="108.0339" x2="409.6511" y1="987.8364" y2="987.8364"/><text fill="#000000" font-family="sans-serif" font-size="13" font-weight="bold" lengthAdjust="spacing" textLength="14.872" x="157.3439" y="982.0274">17</text><text fill="#000000" font-family="sans-serif" font-size="13" lengthAdjust="spacing" textLength="190.1252" x="176.2159" y="982.0274">S&#233;lectionne la zone des m&#233;dias</text></g><g class="message" data-participant-1="usr" data-participant-2="app"><polygon fill="#181818" points="403.6511,1015.5424,413.6511,1019.5424,403.6511,1023.5424,407.6511,1019.5424" style="stroke:#181818;stroke-width:1;"/><line style="stroke:#181818;stroke-width:1;" x1="108.0339" x2="409.6511" y1="1019.5424" y2="1019.5424"/><text fill="#000000" font-family="sans-serif" font-size="13" font-weight="bold" lengthAdjust="spacing" textLength="14.872" x="137.9544" y="1013.7334">18</text><text fill="#000000" font-family="sans-serif" font-size="13" lengthAdjust="spacing" textLength="228.9042" x="156.8264" y="1013.7334">Reste appuiez un instant sur le media</text></g><g class="message" data-participant-1="usr" data-participant-2="app"><polygon fill="#181818" points="403.6511,1047.2484,413.6511,1051.2484,403.6511,1055.2484,407.6511,1051.2484" style="stroke:#181818;stroke-width:1;"/><line style="stroke:#181818;stroke-width:1;" x1="108.0339" x2="409.6511" y1="1051.2484" y2="1051.2484"/><text fill="#000000" font-family="sans-serif" font-size="13" font-weight="bold" lengthAdjust="spacing" textLength="14.872" x="163.4214" y="1045.4394">19</text><text fill="#000000" font-family="sans-serif" font-size="13" lengthAdjust="spacing" textLength="177.9702" x="182.2934" y="1045.4394">Clique sur l'option supprimer</text></g><g class="message" data-participant-1="usr" data-participant-2="app"><polygon fill="#181818" points="403.6511,1085.9544,413.6511,1089.9544,403.6511,1093.9544,407.6511,1089.9544" style="stroke:#181818;stroke-width:1;"/><line style="stroke:#181818;stroke-width:1;" x1="108.0339" x2="409.6511" y1="1089.9544" y2="1089.9544"/><text fill="#000000" font-family="sans-serif" font-size="13" font-weight="bold" lengthAdjust="spacing" textLength="14.872" x="132.5789" y="1084.1454">20</text><text fill="#000000" font-family="sans-serif" font-size="13" lengthAdjust="spacing" textLength="239.6552" x="151.4509" y="1084.1454">Clique sur enregistrer les modifications</text></g><g class="message" data-participant-1="app" data-participant-2="usr"><polygon fill="#181818" points="119.0339,1117.6604,109.0339,1121.6604,119.0339,1125.6604,115.0339,1121.6604" style="stroke:#181818;stroke-width:1;"/><line style="stroke:#181818;stroke-width:1;" x1="113.0339" x2="414.6511" y1="1121.6604" y2="1121.6604"/><text fill="#000000" font-family="sans-serif" font-size="13" font-weight="bold" lengthAdjust="spacing" textLength="14.872" x="176.9674" y="1115.8514">21</text><text fill="#000000" font-family="sans-serif" font-size="13" lengthAdjust="spacing" textLength="150.8781" x="195.8394" y="1115.8514">Confirme la modification</text></g><!--SRC=[jLH1Rjim4Bph5GjVSke72hY0aNE0ea7F0asjfMqfBiCbKoJFoStzXZxMfMIhDI0Pzg6wI29dE3FaSarEx7E_nrZ9J_B1HDE3u4j6R_49HKoBEqUj1ui-NQ2CJHoVqvj3wDWv_bLLun1ilYTo92PXZXim0bbYfPn4beBn2JQx41nPauZz230XLDLs2r_ZS8mgJWBRRQKq-FIbJC9dzGIMlKTRJ41vEiy9rKLaaMbazyeKuM0eWPeIEnozYSHGrq_Sq84mWh274Fb03aBUgucwXYQ3LHFDGovfbz5rFKcWRw3edkoorItAezkAGuB-WYcO6vvu5rcUXwFJ85Jo5AUsCtrOXpzsnhSZy0HH4mjomqUBDuir-lsmmh0dlMb-GSp0ApbtdzYjd1CEj5vwBGFzbtb-9NYBFjvX9gyI_cxqX5YClYTkemaTtPl_Al4iVG5Rq4SPBsB4Kg_aazwNuNUIEwpSlC2y6sV69M4sPtvmraivBjqFnuQCt73AxwplwvJ7Zab8wr1Lb5U4mgZKepAk47JL0rdTmIXQ8BdJXg1DOpOiEOH8_V-m_0sbzAGGCk4xP0_a9PMM9pcMGrXrxaXRxeGwnvrjJiwhDK8frPP43oYEqQTYcRghL0Mkh49M5li3nNvCyo_i3m00]--></g></svg>