<svg xmlns="http://www.w3.org/2000/svg" xmlns:xlink="http://www.w3.org/1999/xlink" contentStyleType="text/css" data-diagram-type="SEQUENCE" height="614px" preserveAspectRatio="none" style="width:529px;height:614px;background:#FFFFFF;" version="1.1" viewBox="0 0 529 614" width="529px" zoomAndPan="magnify"><defs/><g><rect fill="none" height="100.0999" style="stroke:#000000;stroke-width:1.5;" width="502.3669" x="10" y="439.4221"/><g><title>Mod.rateur</title><rect fill="#000000" fill-opacity="0.00000" height="499.4541" width="8" x="58.3469" y="57.0679"/><line style="stroke:#181818;stroke-width:0.5;stroke-dasharray:5,5;" x1="62" x2="62" y1="57.0679" y2="556.522"/></g><g><title>Application</title><rect fill="#000000" fill-opacity="0.00000" height="499.4541" width="8" x="454.4911" y="57.0679"/><line style="stroke:#181818;stroke-width:0.5;stroke-dasharray:5,5;" x1="457.6152" x2="457.6152" y1="57.0679" y2="556.522"/></g><g class="participant participant-head" data-participant="m"><text fill="#000000" font-family="sans-serif" font-size="14" lengthAdjust="spacing" textLength="78.6937" x="20" y="52.9659">Mod&#233;rateur</text><ellipse cx="62.3469" cy="10" fill="#E2E2F0" rx="4.5" ry="4.5" style="stroke:#181818;stroke-width:0.5;"/><path d="M49.8469,16.5 L49.8469,21.5 L59.3469,21.5 L59.3469,23.7574 L49.8469,33.2574 L54.0895,37.5 L62.3469,29.2426 L70.6042,37.5 L74.8469,33.2574 L65.3469,23.7574 L65.3469,21.5 L74.8469,21.5 L74.8469,16.5 L49.8469,16.5" fill="#E2E2F0" style="stroke:#181818;stroke-width:0.5;"/></g><g class="participant participant-tail" data-participant="m"><text fill="#000000" font-family="sans-serif" font-size="14" lengthAdjust="spacing" textLength="78.6937" x="20" y="570.4879">Mod&#233;rateur</text><ellipse cx="62.3469" cy="579.5899" fill="#E2E2F0" rx="4.5" ry="4.5" style="stroke:#181818;stroke-width:0.5;"/><path d="M49.8469,586.0899 L49.8469,591.0899 L59.3469,591.0899 L59.3469,593.3473 L49.8469,602.8473 L54.0895,607.0899 L62.3469,598.8326 L70.6042,607.0899 L74.8469,602.8473 L65.3469,593.3473 L65.3469,591.0899 L74.8469,591.0899 L74.8469,586.0899 L49.8469,586.0899" fill="#E2E2F0" style="stroke:#181818;stroke-width:0.5;"/></g><g class="participant participant-head" data-participant="ins"><rect fill="#E2E2F0" height="33.0679" rx="2.5" ry="2.5" style="stroke:#181818;stroke-width:0.5;" width="87.7517" x="414.6152" y="23"/><text fill="#000000" font-family="sans-serif" font-size="14" lengthAdjust="spacing" textLength="73.7517" x="421.6152" y="44.9659">Application</text></g><g class="participant participant-tail" data-participant="ins"><rect fill="#E2E2F0" height="33.0679" rx="2.5" ry="2.5" style="stroke:#181818;stroke-width:0.5;" width="87.7517" x="414.6152" y="555.522"/><text fill="#000000" font-family="sans-serif" font-size="14" lengthAdjust="spacing" textLength="73.7517" x="421.6152" y="577.4879">Application</text></g><rect fill="#EEEEEE" height="3" style="stroke:#EEEEEE;stroke-width:1;" width="522.3669" x="0" y="88.9209"/><line style="stroke:#000000;stroke-width:1;" x1="0" x2="522.3669" y1="88.9209" y2="88.9209"/><line style="stroke:#000000;stroke-width:1;" x1="0" x2="522.3669" y1="91.9209" y2="91.9209"/><rect fill="#EEEEEE" height="25.706" style="stroke:#000000;stroke-width:2;" width="79.91" x="221.2284" y="77.0679"/><text fill="#000000" font-family="sans-serif" font-size="13" font-weight="bold" lengthAdjust="spacing" textLength="62.53" x="227.2284" y="94.9649">Pr&#233;requis</text><g class="message" data-participant-1="ins" data-participant-2="m"><polygon fill="#181818" points="73.3469,132.4799,63.3469,136.4799,73.3469,140.4799,69.3469,136.4799" style="stroke:#181818;stroke-width:1;"/><line style="stroke:#181818;stroke-width:1;" x1="67.3469" x2="457.4911" y1="136.4799" y2="136.4799"/><text fill="#000000" font-family="sans-serif" font-size="13" font-weight="bold" lengthAdjust="spacing" textLength="7.436" x="151.5914" y="130.6709">1</text><text fill="#000000" font-family="sans-serif" font-size="13" lengthAdjust="spacing" textLength="206.2192" x="163.0274" y="130.6709">notifie une demande d'inscription</text></g><rect fill="#EEEEEE" height="3" style="stroke:#EEEEEE;stroke-width:1;" width="522.3669" x="0" y="166.333"/><line style="stroke:#000000;stroke-width:1;" x1="0" x2="522.3669" y1="166.333" y2="166.333"/><line style="stroke:#000000;stroke-width:1;" x1="0" x2="522.3669" y1="169.333" y2="169.333"/><rect fill="#EEEEEE" height="25.706" style="stroke:#000000;stroke-width:2;" width="81.782" x="220.2924" y="154.4799"/><text fill="#000000" font-family="sans-serif" font-size="13" font-weight="bold" lengthAdjust="spacing" textLength="64.402" x="226.2924" y="172.377">Processus</text><g class="message" data-participant-1="m" data-participant-2="ins"><polygon fill="#181818" points="446.4911,209.892,456.4911,213.892,446.4911,217.892,450.4911,213.892" style="stroke:#181818;stroke-width:1;"/><line style="stroke:#181818;stroke-width:1;" x1="62.3469" x2="452.4911" y1="213.892" y2="213.892"/><text fill="#000000" font-family="sans-serif" font-size="13" font-weight="bold" lengthAdjust="spacing" textLength="7.436" x="136.5179" y="208.083">2</text><text fill="#000000" font-family="sans-serif" font-size="13" lengthAdjust="spacing" textLength="236.3662" x="147.9539" y="208.083">commence le processus de v&#233;rification</text></g><g class="message" data-participant-1="ins" data-participant-2="m"><polygon fill="#181818" points="73.3469,241.598,63.3469,245.598,73.3469,249.598,69.3469,245.598" style="stroke:#181818;stroke-width:1;"/><line style="stroke:#181818;stroke-width:1;" x1="67.3469" x2="457.4911" y1="245.598" y2="245.598"/><text fill="#000000" font-family="sans-serif" font-size="13" font-weight="bold" lengthAdjust="spacing" textLength="7.436" x="155.4524" y="239.789">3</text><text fill="#000000" font-family="sans-serif" font-size="13" lengthAdjust="spacing" textLength="198.4972" x="166.8884" y="239.789">envoie des documents d'identit&#233;</text></g><g class="message" data-participant-1="m" data-participant-2="m"><line style="stroke:#181818;stroke-width:1;" x1="62.3469" x2="104.3469" y1="277.304" y2="277.304"/><line style="stroke:#181818;stroke-width:1;" x1="104.3469" x2="104.3469" y1="277.304" y2="290.304"/><line style="stroke:#181818;stroke-width:1;" x1="63.3469" x2="104.3469" y1="290.304" y2="290.304"/><polygon fill="#181818" points="73.3469,286.304,63.3469,290.304,73.3469,294.304,69.3469,290.304" style="stroke:#181818;stroke-width:1;"/><text fill="#000000" font-family="sans-serif" font-size="13" font-weight="bold" lengthAdjust="spacing" textLength="7.436" x="69.3469" y="271.495">4</text><text fill="#000000" font-family="sans-serif" font-size="13" lengthAdjust="spacing" textLength="293.2412" x="80.7829" y="271.495">v&#233;rifie si l'identit&#233; est d&#233;j&#224; associ&#233;e &#224; un compte</text></g><g class="message" data-participant-1="m" data-participant-2="m"><line style="stroke:#181818;stroke-width:1;" x1="62.3469" x2="104.3469" y1="322.01" y2="322.01"/><line style="stroke:#181818;stroke-width:1;" x1="104.3469" x2="104.3469" y1="322.01" y2="335.01"/><line style="stroke:#181818;stroke-width:1;" x1="63.3469" x2="104.3469" y1="335.01" y2="335.01"/><polygon fill="#181818" points="73.3469,331.01,63.3469,335.01,73.3469,339.01,69.3469,335.01" style="stroke:#181818;stroke-width:1;"/><text fill="#000000" font-family="sans-serif" font-size="13" font-weight="bold" lengthAdjust="spacing" textLength="7.436" x="69.3469" y="316.201">5</text><text fill="#000000" font-family="sans-serif" font-size="13" lengthAdjust="spacing" textLength="197.9902" x="80.7829" y="316.201">v&#233;rifie si l'individu a un &#226;ge l&#233;gal</text></g><g class="message" data-participant-1="m" data-participant-2="m"><line style="stroke:#181818;stroke-width:1;" x1="62.3469" x2="104.3469" y1="366.716" y2="366.716"/><line style="stroke:#181818;stroke-width:1;" x1="104.3469" x2="104.3469" y1="366.716" y2="379.716"/><line style="stroke:#181818;stroke-width:1;" x1="63.3469" x2="104.3469" y1="379.716" y2="379.716"/><polygon fill="#181818" points="73.3469,375.716,63.3469,379.716,73.3469,383.716,69.3469,379.716" style="stroke:#181818;stroke-width:1;"/><text fill="#000000" font-family="sans-serif" font-size="13" font-weight="bold" lengthAdjust="spacing" textLength="7.436" x="69.3469" y="360.907">6</text><text fill="#000000" font-family="sans-serif" font-size="13" lengthAdjust="spacing" textLength="370.7082" x="80.7829" y="360.907">v&#233;rifie si l'identit&#233; n'est pas blacklist&#233;e des sites de rencontre</text></g><g class="message" data-participant-1="m" data-participant-2="m"><line style="stroke:#181818;stroke-width:1;" x1="62.3469" x2="104.3469" y1="411.4221" y2="411.4221"/><line style="stroke:#181818;stroke-width:1;" x1="104.3469" x2="104.3469" y1="411.4221" y2="424.4221"/><line style="stroke:#181818;stroke-width:1;" x1="63.3469" x2="104.3469" y1="424.4221" y2="424.4221"/><polygon fill="#181818" points="73.3469,420.4221,63.3469,424.4221,73.3469,428.4221,69.3469,424.4221" style="stroke:#181818;stroke-width:1;"/><text fill="#000000" font-family="sans-serif" font-size="13" font-weight="bold" lengthAdjust="spacing" textLength="7.436" x="69.3469" y="405.6131">7</text><text fill="#000000" font-family="sans-serif" font-size="13" lengthAdjust="spacing" textLength="213.9802" x="80.7829" y="405.6131">v&#233;rifie si l'identit&#233; existe bel et bien</text></g><path d="M10,439.4221 L72.459,439.4221 L72.459,449.1281 L62.459,459.1281 L10,459.1281 L10,439.4221" fill="#EEEEEE" style="stroke:#000000;stroke-width:1.5;"/><rect fill="none" height="100.0999" style="stroke:#000000;stroke-width:1.5;" width="502.3669" x="10" y="439.4221"/><text fill="#000000" font-family="sans-serif" font-size="13" font-weight="bold" lengthAdjust="spacing" textLength="17.459" x="25" y="454.3191">alt</text><text fill="#000000" font-family="sans-serif" font-size="11" font-weight="bold" lengthAdjust="spacing" textLength="151.7769" x="87.459" y="453.181">[un des cas n'est pas valide]</text><g class="message" data-participant-1="m" data-participant-2="ins"><polygon fill="#181818" points="446.4911,478.8341,456.4911,482.8341,446.4911,486.8341,450.4911,482.8341" style="stroke:#181818;stroke-width:1;"/><line style="stroke:#181818;stroke-width:1;" x1="62.3469" x2="452.4911" y1="482.8341" y2="482.8341"/><text fill="#000000" font-family="sans-serif" font-size="13" font-weight="bold" lengthAdjust="spacing" textLength="7.436" x="198.2289" y="477.0251">8</text><text fill="#000000" font-family="sans-serif" font-size="13" lengthAdjust="spacing" textLength="112.9441" x="209.6649" y="477.0251">refuse l'inscription</text></g><line style="stroke:#000000;stroke-width:1;stroke-dasharray:2,2;" x1="10" x2="512.3669" y1="491.8341" y2="491.8341"/><text fill="#000000" font-family="sans-serif" font-size="11" font-weight="bold" lengthAdjust="spacing" textLength="138.907" x="15" y="503.593">[tous les cas sont valides]</text><g class="message" data-participant-1="m" data-participant-2="ins"><polygon fill="#181818" points="446.4911,527.522,456.4911,531.522,446.4911,535.522,450.4911,531.522" style="stroke:#181818;stroke-width:1;"/><line style="stroke:#181818;stroke-width:1;" x1="62.3469" x2="452.4911" y1="531.522" y2="531.522"/><text fill="#000000" font-family="sans-serif" font-size="13" font-weight="bold" lengthAdjust="spacing" textLength="7.436" x="199.6459" y="525.713">9</text><text fill="#000000" font-family="sans-serif" font-size="13" lengthAdjust="spacing" textLength="110.1101" x="211.0819" y="525.713">valide l'inscription</text></g><!--SRC=[XL5TJiCm37xFAQozx8aB80rf1vY4n0dIr2jcYLCIfy1j46yzHo-6qrOK9g7r9Otz_TcnHIANq60o-KBSssG3P7mjo0vFcBFjyEYfOt38yWTbdSJq91yUuJbw7z-CcKkmEyLs6fCLB6a7DaCmoX1or5iMs1txtfEpGf7dDd4snXmEy9YKfjwKuN0mHkjmzm3X7ZWAdGcXC4ABmNAhvrxxBb5VTLPwT9guBEnGkGgv1nT3gEE09kr_C2eng9tgBb5-sI4FaQgJeg8hIfPS_Lhz8Pd6HLk1gm129l1R7p0Bw0fUfa-TBqT7quYWby8rJ2_udmAtD51Rm5RezDLfvcdihB_foFlgsUis6s_TnLEMwbb7o2GuZvjq2P4buUtyxyf7QD032ZI4RAoNcgaAEdNP_0RhbMX0lstb2SybuppHzaRejIHHT-zNbQnnLe5yfR1KhnMu_GO0]--></g></svg>