<svg xmlns="http://www.w3.org/2000/svg" xmlns:xlink="http://www.w3.org/1999/xlink" contentStyleType="text/css" data-diagram-type="SEQUENCE" height="1501px" preserveAspectRatio="none" style="width:1049px;height:1501px;background:#FFFFFF;" version="1.1" viewBox="0 0 1049 1501" width="1049px" zoomAndPan="magnify"><defs/><g><rect fill="none" height="161.5301" style="stroke:#000000;stroke-width:1.5;" width="599.3983" x="10" y="368.716"/><rect fill="none" height="127.8241" style="stroke:#000000;stroke-width:1.5;" width="579.3983" x="20" y="395.4221"/><rect fill="none" height="197.2361" style="stroke:#000000;stroke-width:1.5;" width="651.7353" x="9" y="688.0702"/><rect fill="none" height="163.5301" style="stroke:#000000;stroke-width:1.5;" width="631.7353" x="19" y="714.7762"/><rect fill="none" height="161.5301" style="stroke:#000000;stroke-width:1.5;" width="643.2603" x="10" y="1007.4243"/><rect fill="none" height="127.8241" style="stroke:#000000;stroke-width:1.5;" width="623.2603" x="20" y="1034.1304"/><rect fill="none" height="100.0999" style="stroke:#000000;stroke-width:1.5;" width="410.061" x="20" y="1326.7785"/><g><title>Utilisateur</title><rect fill="#000000" fill-opacity="0.00000" height="1386.8105" width="8" x="63.0339" y="57.0679"/><line style="stroke:#181818;stroke-width:0.5;stroke-dasharray:5,5;" x1="67" x2="67" y1="57.0679" y2="1443.8784"/></g><g><title>Application</title><rect fill="#000000" fill-opacity="0.00000" height="1386.8105" width="8" x="372.1851" y="57.0679"/><line style="stroke:#181818;stroke-width:0.5;stroke-dasharray:5,5;" x1="375.3092" x2="375.3092" y1="57.0679" y2="1443.8784"/></g><g class="participant participant-head" data-participant="u"><text fill="#000000" font-family="sans-serif" font-size="14" lengthAdjust="spacing" textLength="68.0677" x="30" y="52.9659">Utilisateur</text><ellipse cx="67.0339" cy="10" fill="#E2E2F0" rx="4.5" ry="4.5" style="stroke:#181818;stroke-width:0.5;"/><path d="M54.5339,16.5 L54.5339,21.5 L64.0339,21.5 L64.0339,23.7574 L54.5339,33.2574 L58.7765,37.5 L67.0339,29.2426 L75.2912,37.5 L79.5339,33.2574 L70.0339,23.7574 L70.0339,21.5 L79.5339,21.5 L79.5339,16.5 L54.5339,16.5" fill="#E2E2F0" style="stroke:#181818;stroke-width:0.5;"/></g><g class="participant participant-tail" data-participant="u"><text fill="#000000" font-family="sans-serif" font-size="14" lengthAdjust="spacing" textLength="68.0677" x="30" y="1457.8444">Utilisateur</text><ellipse cx="67.0339" cy="1466.9464" fill="#E2E2F0" rx="4.5" ry="4.5" style="stroke:#181818;stroke-width:0.5;"/><path d="M54.5339,1473.4464 L54.5339,1478.4464 L64.0339,1478.4464 L64.0339,1480.7037 L54.5339,1490.2037 L58.7765,1494.4464 L67.0339,1486.189 L75.2912,1494.4464 L79.5339,1490.2037 L70.0339,1480.7037 L70.0339,1478.4464 L79.5339,1478.4464 L79.5339,1473.4464 L54.5339,1473.4464" fill="#E2E2F0" style="stroke:#181818;stroke-width:0.5;"/></g><g class="participant participant-head" data-participant="app"><rect fill="#E2E2F0" height="33.0679" rx="2.5" ry="2.5" style="stroke:#181818;stroke-width:0.5;" width="87.7517" x="332.3092" y="23"/><text fill="#000000" font-family="sans-serif" font-size="14" lengthAdjust="spacing" textLength="73.7517" x="339.3092" y="44.9659">Application</text></g><g class="participant participant-tail" data-participant="app"><rect fill="#E2E2F0" height="33.0679" rx="2.5" ry="2.5" style="stroke:#181818;stroke-width:0.5;" width="87.7517" x="332.3092" y="1442.8784"/><text fill="#000000" font-family="sans-serif" font-size="14" lengthAdjust="spacing" textLength="73.7517" x="339.3092" y="1464.8444">Application</text></g><rect fill="#EEEEEE" height="3" style="stroke:#EEEEEE;stroke-width:1;" width="1042.4595" x="0" y="88.9209"/><line style="stroke:#000000;stroke-width:1;" x1="0" x2="1042.4595" y1="88.9209" y2="88.9209"/><line style="stroke:#000000;stroke-width:1;" x1="0" x2="1042.4595" y1="91.9209" y2="91.9209"/><rect fill="#EEEEEE" height="25.706" style="stroke:#000000;stroke-width:2;" width="79.91" x="481.2747" y="77.0679"/><text fill="#000000" font-family="sans-serif" font-size="13" font-weight="bold" lengthAdjust="spacing" textLength="62.53" x="487.2747" y="94.9649">Pr&#233;requis</text><g class="message" data-participant-1="u" data-participant-2="app"><polygon fill="#181818" points="364.1851,132.4799,374.1851,136.4799,364.1851,140.4799,368.1851,136.4799" style="stroke:#181818;stroke-width:1;"/><line style="stroke:#181818;stroke-width:1;" x1="67.0339" x2="370.1851" y1="136.4799" y2="136.4799"/><text fill="#000000" font-family="sans-serif" font-size="13" font-weight="bold" lengthAdjust="spacing" textLength="7.436" x="161.7074" y="130.6709">1</text><text fill="#000000" font-family="sans-serif" font-size="13" lengthAdjust="spacing" textLength="108.3681" x="173.1434" y="130.6709">connexion &#224; l'URL</text></g><g class="message" data-participant-1="app" data-participant-2="u"><polygon fill="#181818" points="78.0339,164.186,68.0339,168.186,78.0339,172.186,74.0339,168.186" style="stroke:#181818;stroke-width:1;"/><line style="stroke:#181818;stroke-width:1;" x1="72.0339" x2="375.1851" y1="168.186" y2="168.186"/><text fill="#000000" font-family="sans-serif" font-size="13" font-weight="bold" lengthAdjust="spacing" textLength="7.436" x="79.0339" y="162.377">2</text><text fill="#000000" font-family="sans-serif" font-size="13" lengthAdjust="spacing" textLength="273.7152" x="90.4699" y="162.377">proposition de la page inscription/connexion</text></g><g class="message" data-participant-1="u" data-participant-2="app"><polygon fill="#181818" points="364.1851,195.892,374.1851,199.892,364.1851,203.892,368.1851,199.892" style="stroke:#181818;stroke-width:1;"/><line style="stroke:#181818;stroke-width:1;" x1="67.0339" x2="370.1851" y1="199.892" y2="199.892"/><text fill="#000000" font-family="sans-serif" font-size="13" font-weight="bold" lengthAdjust="spacing" textLength="7.436" x="126.9324" y="194.083">3</text><text fill="#000000" font-family="sans-serif" font-size="13" lengthAdjust="spacing" textLength="177.9182" x="138.3684" y="194.083">choix de la page d'inscription</text></g><rect fill="#EEEEEE" height="3" style="stroke:#EEEEEE;stroke-width:1;" width="1042.4595" x="0" y="229.745"/><line style="stroke:#000000;stroke-width:1;" x1="0" x2="1042.4595" y1="229.745" y2="229.745"/><line style="stroke:#000000;stroke-width:1;" x1="0" x2="1042.4595" y1="232.745" y2="232.745"/><rect fill="#EEEEEE" height="25.706" style="stroke:#000000;stroke-width:2;" width="81.782" x="480.3388" y="217.892"/><text fill="#000000" font-family="sans-serif" font-size="13" font-weight="bold" lengthAdjust="spacing" textLength="64.402" x="486.3388" y="235.789">Processus</text><g class="message" data-participant-1="app" data-participant-2="u"><polygon fill="#181818" points="78.0339,273.304,68.0339,277.304,78.0339,281.304,74.0339,277.304" style="stroke:#181818;stroke-width:1;"/><line style="stroke:#181818;stroke-width:1;" x1="72.0339" x2="375.1851" y1="277.304" y2="277.304"/><text fill="#000000" font-family="sans-serif" font-size="13" font-weight="bold" lengthAdjust="spacing" textLength="7.436" x="114.8749" y="271.495">4</text><text fill="#000000" font-family="sans-serif" font-size="13" lengthAdjust="spacing" textLength="202.0332" x="126.3109" y="271.495">affichage de la page d'inscription</text></g><g class="message" data-participant-1="u" data-participant-2="app"><polygon fill="#181818" points="364.1851,305.01,374.1851,309.01,364.1851,313.01,368.1851,309.01" style="stroke:#181818;stroke-width:1;"/><line style="stroke:#181818;stroke-width:1;" x1="67.0339" x2="370.1851" y1="309.01" y2="309.01"/><text fill="#000000" font-family="sans-serif" font-size="13" font-weight="bold" lengthAdjust="spacing" textLength="7.436" x="165.5879" y="303.201">5</text><text fill="#000000" font-family="sans-serif" font-size="13" lengthAdjust="spacing" textLength="100.6071" x="177.0239" y="303.201">choix du pseudo</text></g><g class="message" data-participant-1="app" data-participant-2="app"><line style="stroke:#181818;stroke-width:1;" x1="376.1851" x2="418.1851" y1="340.716" y2="340.716"/><line style="stroke:#181818;stroke-width:1;" x1="418.1851" x2="418.1851" y1="340.716" y2="353.716"/><line style="stroke:#181818;stroke-width:1;" x1="377.1851" x2="418.1851" y1="353.716" y2="353.716"/><polygon fill="#181818" points="387.1851,349.716,377.1851,353.716,387.1851,357.716,383.1851,353.716" style="stroke:#181818;stroke-width:1;"/><text fill="#000000" font-family="sans-serif" font-size="13" font-weight="bold" lengthAdjust="spacing" textLength="7.436" x="383.1851" y="334.907">6</text><text fill="#000000" font-family="sans-serif" font-size="13" lengthAdjust="spacing" textLength="136.2011" x="394.6211" y="334.907">v&#233;rification du pseudo</text></g><path d="M542.6371,325.51 L542.6371,352.51 L886.6371,352.51 L886.6371,335.51 L876.6371,325.51 L542.6371,325.51" fill="#FEFFDD" style="stroke:#181818;stroke-width:0.5;"/><path d="M876.6371,325.51 L876.6371,335.51 L886.6371,335.51 L876.6371,325.51" fill="#FEFFDD" style="stroke:#181818;stroke-width:0.5;"/><text fill="#000000" font-family="sans-serif" font-size="13" lengthAdjust="spacing" textLength="323.8823" x="548.6371" y="344.407">Un pseudo d&#233;j&#224; utilis&#233; ou grossier ne sera pas valide.</text><path d="M10,368.716 L72.459,368.716 L72.459,378.4221 L62.459,388.4221 L10,388.4221 L10,368.716" fill="#EEEEEE" style="stroke:#000000;stroke-width:1.5;"/><rect fill="none" height="161.5301" style="stroke:#000000;stroke-width:1.5;" width="599.3983" x="10" y="368.716"/><text fill="#000000" font-family="sans-serif" font-size="13" font-weight="bold" lengthAdjust="spacing" textLength="17.459" x="25" y="383.6131">alt</text><text fill="#000000" font-family="sans-serif" font-size="11" font-weight="bold" lengthAdjust="spacing" textLength="107.2712" x="87.459" y="382.475">[pseudo non valide]</text><path d="M20,395.4221 L93.288,395.4221 L93.288,405.1281 L83.288,415.1281 L20,415.1281 L20,395.4221" fill="#EEEEEE" style="stroke:#000000;stroke-width:1.5;"/><rect fill="none" height="127.8241" style="stroke:#000000;stroke-width:1.5;" width="579.3983" x="20" y="395.4221"/><text fill="#000000" font-family="sans-serif" font-size="13" font-weight="bold" lengthAdjust="spacing" textLength="28.288" x="35" y="410.3191">loop</text><text fill="#000000" font-family="sans-serif" font-size="11" font-weight="bold" lengthAdjust="spacing" textLength="200.1106" x="108.288" y="409.181">[Jusqu&#8217;&#224; ce que le pseudo soit valide]</text><g class="message" data-participant-1="app" data-participant-2="u"><polygon fill="#181818" points="78.0339,434.8341,68.0339,438.8341,78.0339,442.8341,74.0339,438.8341" style="stroke:#181818;stroke-width:1;"/><line style="stroke:#181818;stroke-width:1;" x1="72.0339" x2="375.1851" y1="438.8341" y2="438.8341"/><text fill="#000000" font-family="sans-serif" font-size="13" font-weight="bold" lengthAdjust="spacing" textLength="7.436" x="124.3974" y="433.0251">7</text><text fill="#000000" font-family="sans-serif" font-size="13" lengthAdjust="spacing" textLength="182.9882" x="135.8334" y="433.0251">demande un nouveau pseudo</text></g><g class="message" data-participant-1="u" data-participant-2="app"><polygon fill="#181818" points="364.1851,466.5401,374.1851,470.5401,364.1851,474.5401,368.1851,470.5401" style="stroke:#181818;stroke-width:1;"/><line style="stroke:#181818;stroke-width:1;" x1="67.0339" x2="370.1851" y1="470.5401" y2="470.5401"/><text fill="#000000" font-family="sans-serif" font-size="13" font-weight="bold" lengthAdjust="spacing" textLength="7.436" x="137.2999" y="464.7311">8</text><text fill="#000000" font-family="sans-serif" font-size="13" lengthAdjust="spacing" textLength="157.1832" x="148.7359" y="464.7311">choix du nouveau pseudo</text></g><g class="message" data-participant-1="app" data-participant-2="app"><line style="stroke:#181818;stroke-width:1;" x1="376.1851" x2="418.1851" y1="502.2461" y2="502.2461"/><line style="stroke:#181818;stroke-width:1;" x1="418.1851" x2="418.1851" y1="502.2461" y2="515.2461"/><line style="stroke:#181818;stroke-width:1;" x1="377.1851" x2="418.1851" y1="515.2461" y2="515.2461"/><polygon fill="#181818" points="387.1851,511.2461,377.1851,515.2461,387.1851,519.2461,383.1851,515.2461" style="stroke:#181818;stroke-width:1;"/><text fill="#000000" font-family="sans-serif" font-size="13" font-weight="bold" lengthAdjust="spacing" textLength="7.436" x="383.1851" y="496.4371">9</text><text fill="#000000" font-family="sans-serif" font-size="13" lengthAdjust="spacing" textLength="192.7772" x="394.6211" y="496.4371">v&#233;rification du nouveau pseudo</text></g><g class="message" data-participant-1="app" data-participant-2="u"><polygon fill="#181818" points="78.0339,556.9521,68.0339,560.9521,78.0339,564.9521,74.0339,560.9521" style="stroke:#181818;stroke-width:1;"/><line style="stroke:#181818;stroke-width:1;" x1="72.0339" x2="375.1851" y1="560.9521" y2="560.9521"/><text fill="#000000" font-family="sans-serif" font-size="13" font-weight="bold" lengthAdjust="spacing" textLength="14.872" x="148.4864" y="555.1431">10</text><text fill="#000000" font-family="sans-serif" font-size="13" lengthAdjust="spacing" textLength="127.3741" x="167.3584" y="555.1431">validation de pseudo</text></g><g class="message" data-participant-1="u" data-participant-2="app"><polygon fill="#181818" points="364.1851,588.6582,374.1851,592.6582,364.1851,596.6582,368.1851,592.6582" style="stroke:#181818;stroke-width:1;"/><line style="stroke:#181818;stroke-width:1;" x1="67.0339" x2="370.1851" y1="592.6582" y2="592.6582"/><text fill="#000000" font-family="sans-serif" font-size="13" font-weight="bold" lengthAdjust="spacing" textLength="14.872" x="143.1499" y="586.8492">11</text><text fill="#000000" font-family="sans-serif" font-size="13" lengthAdjust="spacing" textLength="138.0471" x="162.0219" y="586.8492">choix de l'adresse mail</text></g><g class="message" data-participant-1="app" data-participant-2="app"><line style="stroke:#181818;stroke-width:1;" x1="376.1851" x2="418.1851" y1="624.3642" y2="624.3642"/><line style="stroke:#181818;stroke-width:1;" x1="418.1851" x2="418.1851" y1="624.3642" y2="637.3642"/><line style="stroke:#181818;stroke-width:1;" x1="377.1851" x2="418.1851" y1="637.3642" y2="637.3642"/><polygon fill="#181818" points="387.1851,633.3642,377.1851,637.3642,387.1851,641.3642,383.1851,637.3642" style="stroke:#181818;stroke-width:1;"/><text fill="#000000" font-family="sans-serif" font-size="13" font-weight="bold" lengthAdjust="spacing" textLength="14.872" x="383.1851" y="618.5552">12</text><text fill="#000000" font-family="sans-serif" font-size="13" lengthAdjust="spacing" textLength="173.6411" x="402.0571" y="618.5552">v&#233;rification de l'adresse mail</text></g><polygon fill="#FEFFDD" points="39,650.3642,404,650.3642,414,662.3642,404,675.3642,39,675.3642,29,662.3642,39,650.3642" style="stroke:#181818;stroke-width:0.5;"/><text fill="#000000" font-family="sans-serif" font-size="13" lengthAdjust="spacing" textLength="262.6912" x="52.1338" y="668.2612">Processus 12 d&#233;crit dans le cas d'utilisation</text><text fill="#000000" font-family="sans-serif" font-size="13" lengthAdjust="spacing" text-decoration="underline" textLength="72.722" x="318.2051" y="668.2612">v&#233;rifier mail</text><path d="M9,688.0702 L71.459,688.0702 L71.459,697.7762 L61.459,707.7762 L9,707.7762 L9,688.0702" fill="#EEEEEE" style="stroke:#000000;stroke-width:1.5;"/><rect fill="none" height="197.2361" style="stroke:#000000;stroke-width:1.5;" width="651.7353" x="9" y="688.0702"/><text fill="#000000" font-family="sans-serif" font-size="13" font-weight="bold" lengthAdjust="spacing" textLength="17.459" x="24" y="702.9672">alt</text><text fill="#000000" font-family="sans-serif" font-size="11" font-weight="bold" lengthAdjust="spacing" textLength="136.894" x="86.459" y="701.8291">[adresse mail non valide]</text><path d="M19,714.7762 L92.288,714.7762 L92.288,724.4822 L82.288,734.4822 L19,734.4822 L19,714.7762" fill="#EEEEEE" style="stroke:#000000;stroke-width:1.5;"/><rect fill="none" height="163.5301" style="stroke:#000000;stroke-width:1.5;" width="631.7353" x="19" y="714.7762"/><text fill="#000000" font-family="sans-serif" font-size="13" font-weight="bold" lengthAdjust="spacing" textLength="28.288" x="34" y="729.6732">loop</text><text fill="#000000" font-family="sans-serif" font-size="11" font-weight="bold" lengthAdjust="spacing" textLength="223.2984" x="107.288" y="728.5351">[Jusqu&#8217;&#224; ce que l'adresse mail soit valide]</text><g class="message" data-participant-1="app" data-participant-2="u"><polygon fill="#181818" points="78.0339,754.1882,68.0339,758.1882,78.0339,762.1882,74.0339,758.1882" style="stroke:#181818;stroke-width:1;"/><line style="stroke:#181818;stroke-width:1;" x1="72.0339" x2="375.1851" y1="758.1882" y2="758.1882"/><text fill="#000000" font-family="sans-serif" font-size="13" font-weight="bold" lengthAdjust="spacing" textLength="14.872" x="101.7254" y="752.3792">13</text><text fill="#000000" font-family="sans-serif" font-size="13" lengthAdjust="spacing" textLength="220.8962" x="120.5974" y="752.3792">demande une nouvelle adresse mail</text></g><g class="message" data-participant-1="u" data-participant-2="app"><polygon fill="#181818" points="364.1851,785.8943,374.1851,789.8943,364.1851,793.8943,368.1851,789.8943" style="stroke:#181818;stroke-width:1;"/><line style="stroke:#181818;stroke-width:1;" x1="67.0339" x2="370.1851" y1="789.8943" y2="789.8943"/><text fill="#000000" font-family="sans-serif" font-size="13" font-weight="bold" lengthAdjust="spacing" textLength="14.872" x="111.6314" y="784.0853">14</text><text fill="#000000" font-family="sans-serif" font-size="13" lengthAdjust="spacing" textLength="201.0842" x="130.5034" y="784.0853">choix de la nouvelle adresse mail</text></g><g class="message" data-participant-1="app" data-participant-2="app"><line style="stroke:#181818;stroke-width:1;" x1="376.1851" x2="418.1851" y1="821.6003" y2="821.6003"/><line style="stroke:#181818;stroke-width:1;" x1="418.1851" x2="418.1851" y1="821.6003" y2="834.6003"/><line style="stroke:#181818;stroke-width:1;" x1="377.1851" x2="418.1851" y1="834.6003" y2="834.6003"/><polygon fill="#181818" points="387.1851,830.6003,377.1851,834.6003,387.1851,838.6003,383.1851,834.6003" style="stroke:#181818;stroke-width:1;"/><text fill="#000000" font-family="sans-serif" font-size="13" font-weight="bold" lengthAdjust="spacing" textLength="14.872" x="383.1851" y="815.7913">15</text><text fill="#000000" font-family="sans-serif" font-size="13" lengthAdjust="spacing" textLength="236.6782" x="402.0571" y="815.7913">v&#233;rification de la nouvelle adresse mail</text></g><polygon fill="#FEFFDD" points="39,847.6003,404,847.6003,414,859.6003,404,872.6003,39,872.6003,29,859.6003,39,847.6003" style="stroke:#181818;stroke-width:0.5;"/><text fill="#000000" font-family="sans-serif" font-size="13" lengthAdjust="spacing" textLength="262.6912" x="52.1338" y="865.4973">Processus 15 d&#233;crit dans le cas d'utilisation</text><text fill="#000000" font-family="sans-serif" font-size="13" lengthAdjust="spacing" text-decoration="underline" textLength="72.722" x="318.2051" y="865.4973">v&#233;rifier mail</text><g class="message" data-participant-1="app" data-participant-2="u"><polygon fill="#181818" points="78.0339,912.0123,68.0339,916.0123,78.0339,920.0123,74.0339,916.0123" style="stroke:#181818;stroke-width:1;"/><line style="stroke:#181818;stroke-width:1;" x1="72.0339" x2="375.1851" y1="916.0123" y2="916.0123"/><text fill="#000000" font-family="sans-serif" font-size="13" font-weight="bold" lengthAdjust="spacing" textLength="14.872" x="153.8619" y="910.2033">16</text><text fill="#000000" font-family="sans-serif" font-size="13" lengthAdjust="spacing" textLength="116.6231" x="172.7339" y="910.2033">adresse mail valide</text></g><g class="message" data-participant-1="u" data-participant-2="app"><polygon fill="#181818" points="364.1851,943.7183,374.1851,947.7183,364.1851,951.7183,368.1851,947.7183" style="stroke:#181818;stroke-width:1;"/><line style="stroke:#181818;stroke-width:1;" x1="67.0339" x2="370.1851" y1="947.7183" y2="947.7183"/><text fill="#000000" font-family="sans-serif" font-size="13" font-weight="bold" lengthAdjust="spacing" textLength="14.872" x="143.6569" y="941.9093">17</text><text fill="#000000" font-family="sans-serif" font-size="13" lengthAdjust="spacing" textLength="137.0331" x="162.5289" y="941.9093">choix du mot de passe</text></g><g class="message" data-participant-1="app" data-participant-2="app"><line style="stroke:#181818;stroke-width:1;" x1="376.1851" x2="418.1851" y1="979.4243" y2="979.4243"/><line style="stroke:#181818;stroke-width:1;" x1="418.1851" x2="418.1851" y1="979.4243" y2="992.4243"/><line style="stroke:#181818;stroke-width:1;" x1="377.1851" x2="418.1851" y1="992.4243" y2="992.4243"/><polygon fill="#181818" points="387.1851,988.4243,377.1851,992.4243,387.1851,996.4243,383.1851,992.4243" style="stroke:#181818;stroke-width:1;"/><text fill="#000000" font-family="sans-serif" font-size="13" font-weight="bold" lengthAdjust="spacing" textLength="14.872" x="383.1851" y="973.6153">18</text><text fill="#000000" font-family="sans-serif" font-size="13" lengthAdjust="spacing" textLength="153.2181" x="402.0571" y="973.6153">v&#233;rification mot de passe</text></g><path d="M567.0901,964.2183 L567.0901,991.2183 L1032.0901,991.2183 L1032.0901,974.2183 L1022.0901,964.2183 L567.0901,964.2183" fill="#FEFFDD" style="stroke:#181818;stroke-width:0.5;"/><path d="M1022.0901,964.2183 L1022.0901,974.2183 L1032.0901,974.2183 L1022.0901,964.2183" fill="#FEFFDD" style="stroke:#181818;stroke-width:0.5;"/><text fill="#000000" font-family="sans-serif" font-size="13" lengthAdjust="spacing" textLength="444.1843" x="573.0901" y="983.1153">Un mot de passe pet &#233;tre trop court ou contenir des charact&#232;res interdit.</text><path d="M10,1007.4243 L72.459,1007.4243 L72.459,1017.1304 L62.459,1027.1304 L10,1027.1304 L10,1007.4243" fill="#EEEEEE" style="stroke:#000000;stroke-width:1.5;"/><rect fill="none" height="161.5301" style="stroke:#000000;stroke-width:1.5;" width="643.2603" x="10" y="1007.4243"/><text fill="#000000" font-family="sans-serif" font-size="13" font-weight="bold" lengthAdjust="spacing" textLength="17.459" x="25" y="1022.3214">alt</text><text fill="#000000" font-family="sans-serif" font-size="11" font-weight="bold" lengthAdjust="spacing" textLength="139.952" x="87.459" y="1021.1833">[mot de passe non valide]</text><path d="M20,1034.1304 L93.288,1034.1304 L93.288,1043.8364 L83.288,1053.8364 L20,1053.8364 L20,1034.1304" fill="#EEEEEE" style="stroke:#000000;stroke-width:1.5;"/><rect fill="none" height="127.8241" style="stroke:#000000;stroke-width:1.5;" width="623.2603" x="20" y="1034.1304"/><text fill="#000000" font-family="sans-serif" font-size="13" font-weight="bold" lengthAdjust="spacing" textLength="28.288" x="35" y="1049.0274">loop</text><text fill="#000000" font-family="sans-serif" font-size="11" font-weight="bold" lengthAdjust="spacing" textLength="232.7914" x="108.288" y="1047.8893">[Jusqu&#8217;&#224; ce que le mot de passe soit valide]</text><g class="message" data-participant-1="app" data-participant-2="u"><polygon fill="#181818" points="78.0339,1073.5424,68.0339,1077.5424,78.0339,1081.5424,74.0339,1077.5424" style="stroke:#181818;stroke-width:1;"/><line style="stroke:#181818;stroke-width:1;" x1="72.0339" x2="375.1851" y1="1077.5424" y2="1077.5424"/><text fill="#000000" font-family="sans-serif" font-size="13" font-weight="bold" lengthAdjust="spacing" textLength="14.872" x="102.4664" y="1071.7334">19</text><text fill="#000000" font-family="sans-serif" font-size="13" lengthAdjust="spacing" textLength="219.4142" x="121.3384" y="1071.7334">demande un nouveau mot de passe</text></g><g class="message" data-participant-1="u" data-participant-2="app"><polygon fill="#181818" points="364.1851,1105.2484,374.1851,1109.2484,364.1851,1113.2484,368.1851,1109.2484" style="stroke:#181818;stroke-width:1;"/><line style="stroke:#181818;stroke-width:1;" x1="67.0339" x2="370.1851" y1="1109.2484" y2="1109.2484"/><text fill="#000000" font-family="sans-serif" font-size="13" font-weight="bold" lengthAdjust="spacing" textLength="14.872" x="115.3689" y="1103.4394">20</text><text fill="#000000" font-family="sans-serif" font-size="13" lengthAdjust="spacing" textLength="193.6092" x="134.2409" y="1103.4394">choix du nouveau mot de passe</text></g><g class="message" data-participant-1="app" data-participant-2="app"><line style="stroke:#181818;stroke-width:1;" x1="376.1851" x2="418.1851" y1="1140.9544" y2="1140.9544"/><line style="stroke:#181818;stroke-width:1;" x1="418.1851" x2="418.1851" y1="1140.9544" y2="1153.9544"/><line style="stroke:#181818;stroke-width:1;" x1="377.1851" x2="418.1851" y1="1153.9544" y2="1153.9544"/><polygon fill="#181818" points="387.1851,1149.9544,377.1851,1153.9544,387.1851,1157.9544,383.1851,1153.9544" style="stroke:#181818;stroke-width:1;"/><text fill="#000000" font-family="sans-serif" font-size="13" font-weight="bold" lengthAdjust="spacing" textLength="14.872" x="383.1851" y="1135.1454">21</text><text fill="#000000" font-family="sans-serif" font-size="13" lengthAdjust="spacing" textLength="229.2032" x="402.0571" y="1135.1454">v&#233;rification du nouveau mot de passe</text></g><g class="message" data-participant-1="app" data-participant-2="u"><polygon fill="#181818" points="78.0339,1195.6604,68.0339,1199.6604,78.0339,1203.6604,74.0339,1199.6604" style="stroke:#181818;stroke-width:1;"/><line style="stroke:#181818;stroke-width:1;" x1="72.0339" x2="375.1851" y1="1199.6604" y2="1199.6604"/><text fill="#000000" font-family="sans-serif" font-size="13" font-weight="bold" lengthAdjust="spacing" textLength="14.872" x="129.9224" y="1193.8514">22</text><text fill="#000000" font-family="sans-serif" font-size="13" lengthAdjust="spacing" textLength="164.5022" x="148.7944" y="1193.8514">validation du mot de passe</text></g><g class="message" data-participant-1="u" data-participant-2="app"><polygon fill="#181818" points="364.1851,1227.3665,374.1851,1231.3665,364.1851,1235.3665,368.1851,1231.3665" style="stroke:#181818;stroke-width:1;"/><line style="stroke:#181818;stroke-width:1;" x1="67.0339" x2="370.1851" y1="1231.3665" y2="1231.3665"/><text fill="#000000" font-family="sans-serif" font-size="13" font-weight="bold" lengthAdjust="spacing" textLength="14.872" x="99.6454" y="1225.5575">23</text><text fill="#000000" font-family="sans-serif" font-size="13" lengthAdjust="spacing" textLength="225.0562" x="118.5174" y="1225.5575">transmission du document d'identit&#233;</text></g><g class="message" data-participant-1="app" data-participant-2="app"><line style="stroke:#181818;stroke-width:1;" x1="376.1851" x2="418.1851" y1="1263.0725" y2="1263.0725"/><line style="stroke:#181818;stroke-width:1;" x1="418.1851" x2="418.1851" y1="1263.0725" y2="1276.0725"/><line style="stroke:#181818;stroke-width:1;" x1="377.1851" x2="418.1851" y1="1276.0725" y2="1276.0725"/><polygon fill="#181818" points="387.1851,1272.0725,377.1851,1276.0725,387.1851,1280.0725,383.1851,1276.0725" style="stroke:#181818;stroke-width:1;"/><text fill="#000000" font-family="sans-serif" font-size="13" font-weight="bold" lengthAdjust="spacing" textLength="14.872" x="383.1851" y="1257.2635">24</text><text fill="#000000" font-family="sans-serif" font-size="13" lengthAdjust="spacing" textLength="241.0332" x="402.0571" y="1257.2635">v&#233;rification de la demande d'inscription</text></g><polygon fill="#FEFFDD" points="37,1289.0725,405,1289.0725,415,1301.0725,405,1314.0725,37,1314.0725,27,1301.0725,37,1289.0725" style="stroke:#181818;stroke-width:0.5;"/><text fill="#000000" font-family="sans-serif" font-size="13" lengthAdjust="spacing" textLength="262.6912" x="39" y="1306.9695">Processus 20 d&#233;crit dans le cas d'utilisation</text><text fill="#000000" font-family="sans-serif" font-size="13" lengthAdjust="spacing" text-decoration="underline" textLength="98.7351" x="305.0712" y="1306.9695">prouver identit&#233;</text><path d="M20,1326.7785 L82.459,1326.7785 L82.459,1336.4845 L72.459,1346.4845 L20,1346.4845 L20,1326.7785" fill="#EEEEEE" style="stroke:#000000;stroke-width:1.5;"/><rect fill="none" height="100.0999" style="stroke:#000000;stroke-width:1.5;" width="410.061" x="20" y="1326.7785"/><text fill="#000000" font-family="sans-serif" font-size="13" font-weight="bold" lengthAdjust="spacing" textLength="17.459" x="35" y="1341.6755">alt</text><text fill="#000000" font-family="sans-serif" font-size="11" font-weight="bold" lengthAdjust="spacing" textLength="101.3203" x="97.459" y="1340.5374">[demande valid&#233;e]</text><g class="message" data-participant-1="app" data-participant-2="u"><polygon fill="#181818" points="78.0339,1366.1905,68.0339,1370.1905,78.0339,1374.1905,74.0339,1370.1905" style="stroke:#181818;stroke-width:1;"/><line style="stroke:#181818;stroke-width:1;" x1="72.0339" x2="375.1851" y1="1370.1905" y2="1370.1905"/><text fill="#000000" font-family="sans-serif" font-size="13" font-weight="bold" lengthAdjust="spacing" textLength="14.872" x="119.3989" y="1364.3815">25</text><text fill="#000000" font-family="sans-serif" font-size="13" lengthAdjust="spacing" textLength="185.5492" x="138.2709" y="1364.3815">inscription valid&#233;e et termin&#233;e</text></g><line style="stroke:#000000;stroke-width:1;stroke-dasharray:2,2;" x1="20" x2="430.061" y1="1379.1905" y2="1379.1905"/><text fill="#000000" font-family="sans-serif" font-size="11" font-weight="bold" lengthAdjust="spacing" textLength="125.4431" x="25" y="1390.9494">[demande non valid&#233;e]</text><g class="message" data-participant-1="app" data-participant-2="u"><polygon fill="#181818" points="78.0339,1414.8784,68.0339,1418.8784,78.0339,1422.8784,74.0339,1418.8784" style="stroke:#181818;stroke-width:1;"/><line style="stroke:#181818;stroke-width:1;" x1="72.0339" x2="375.1851" y1="1418.8784" y2="1418.8784"/><text fill="#000000" font-family="sans-serif" font-size="13" font-weight="bold" lengthAdjust="spacing" textLength="14.872" x="85.4949" y="1413.0694">26</text><text fill="#000000" font-family="sans-serif" font-size="13" lengthAdjust="spacing" textLength="253.3572" x="104.3669" y="1413.0694">inscription non valid&#233;e et &#224; recommencer</text></g><!--SRC=[dLPBRjim4Dtp58DilEelG3S1N23ReWMA5buRB3cnfwL8XXyttVKQtNLPdqCtwKawP2HBYXt5hJOso3V3cVSUHv8vEPkRpnY4Y5_9UXba0n5lCrg5xp56kS5hGniB2crYs82IAhdmANqt25jdZFicH5s2YrKYGr4cpE42P8GiE2AH8YzjWejhxmqfcSZPkYsz5sAvX0-XtGS-cY8ibq9aUFQcx5s1SjRY7SEX_GLciVhuJl1wsSvNu8FpBbB91Xh1IF1SCv2DAf0looyEyUESMqTtum2z68LqzJZ53EHQpd2WlBaXjQqXZqKV7PF1HypQzMdgtexRfPkEYJ76fEulMDxOIKCQXNK98T1ccmJmix8zHhVxBynBhgItUt0PDi75I1Z08eiPIesno_DSeDLGajKqnZaFRtEypNz-_EGi2e6r1zQqonuTfRu4w9w12usDj4n3jfmoxr0UckYn9wXu13bBpOaOxgFqCbAcbYbx9tJGKv8lf0wiB48ZoSnfSeJTLXcaAWJNAWQJlBeiKh074cXfO-5GCUrwaRlhK3Akrzq9B4v9k5uFUXJTnuUDrP_JQbBXsOBXFQU6ovnq-AXmrUppCVDCFXLzn6t_Z3X-_NySzvactZysq8J8ZiCJ1cvSgWQJZ9rnpnJ6ueuNvg_s1EanGRjF0I7nhEDfc4Cgjvp7Ma9BWP6HY-EXh5BxcplWuSUZMbCw-x9FplldApzfz8oBVn9_rlK_YfmV0Wy2Xf9IOFSqn4Fo7gQToWs_uCeSr_nBgTsBfzpSCp6T_JCJulBbMUxbDnft6-1GoSCXqHzSMsttzqmC38ogEK20FSIUQCWMF9g8Xons19l9P1zaO_y4LAvfofT2g2By1G00]--></g></svg>