<svg xmlns="http://www.w3.org/2000/svg" xmlns:xlink="http://www.w3.org/1999/xlink" contentStyleType="text/css" data-diagram-type="SEQUENCE" height="790px" preserveAspectRatio="none" style="width:718px;height:790px;background:#FFFFFF;" version="1.1" viewBox="0 0 718 790" width="718px" zoomAndPan="magnify"><defs/><g><rect fill="none" height="334.0421" style="stroke:#000000;stroke-width:1.5;" width="691.7533" x="10" y="350.01"/><g><title>Mod.rateur</title><rect fill="#000000" fill-opacity="0.00000" height="675.6902" width="8" x="58.3469" y="57.0679"/><line style="stroke:#181818;stroke-width:0.5;stroke-dasharray:5,5;" x1="62" x2="62" y1="57.0679" y2="732.7581"/></g><g><title>Application</title><rect fill="#000000" fill-opacity="0.00000" height="675.6902" width="8" x="335.2841" y="57.0679"/><line style="stroke:#181818;stroke-width:0.5;stroke-dasharray:5,5;" x1="338.4082" x2="338.4082" y1="57.0679" y2="732.7581"/></g><g class="participant participant-head" data-participant="m"><text fill="#000000" font-family="sans-serif" font-size="14" lengthAdjust="spacing" textLength="78.6937" x="20" y="52.9659">Mod&#233;rateur</text><ellipse cx="62.3469" cy="10" fill="#E2E2F0" rx="4.5" ry="4.5" style="stroke:#181818;stroke-width:0.5;"/><path d="M49.8469,16.5 L49.8469,21.5 L59.3469,21.5 L59.3469,23.7574 L49.8469,33.2574 L54.0895,37.5 L62.3469,29.2426 L70.6042,37.5 L74.8469,33.2574 L65.3469,23.7574 L65.3469,21.5 L74.8469,21.5 L74.8469,16.5 L49.8469,16.5" fill="#E2E2F0" style="stroke:#181818;stroke-width:0.5;"/></g><g class="participant participant-tail" data-participant="m"><text fill="#000000" font-family="sans-serif" font-size="14" lengthAdjust="spacing" textLength="78.6937" x="20" y="746.724">Mod&#233;rateur</text><ellipse cx="62.3469" cy="755.826" fill="#E2E2F0" rx="4.5" ry="4.5" style="stroke:#181818;stroke-width:0.5;"/><path d="M49.8469,762.326 L49.8469,767.326 L59.3469,767.326 L59.3469,769.5834 L49.8469,779.0834 L54.0895,783.326 L62.3469,775.0687 L70.6042,783.326 L74.8469,779.0834 L65.3469,769.5834 L65.3469,767.326 L74.8469,767.326 L74.8469,762.326 L49.8469,762.326" fill="#E2E2F0" style="stroke:#181818;stroke-width:0.5;"/></g><g class="participant participant-head" data-participant="ins"><rect fill="#E2E2F0" height="33.0679" rx="2.5" ry="2.5" style="stroke:#181818;stroke-width:0.5;" width="87.7517" x="295.4082" y="23"/><text fill="#000000" font-family="sans-serif" font-size="14" lengthAdjust="spacing" textLength="73.7517" x="302.4082" y="44.9659">Application</text></g><g class="participant participant-tail" data-participant="ins"><rect fill="#E2E2F0" height="33.0679" rx="2.5" ry="2.5" style="stroke:#181818;stroke-width:0.5;" width="87.7517" x="295.4082" y="731.7581"/><text fill="#000000" font-family="sans-serif" font-size="14" lengthAdjust="spacing" textLength="73.7517" x="302.4082" y="753.724">Application</text></g><rect fill="#EEEEEE" height="3" style="stroke:#EEEEEE;stroke-width:1;" width="711.7533" x="0" y="88.9209"/><line style="stroke:#000000;stroke-width:1;" x1="0" x2="711.7533" y1="88.9209" y2="88.9209"/><line style="stroke:#000000;stroke-width:1;" x1="0" x2="711.7533" y1="91.9209" y2="91.9209"/><rect fill="#EEEEEE" height="25.706" style="stroke:#000000;stroke-width:2;" width="79.91" x="315.9216" y="77.0679"/><text fill="#000000" font-family="sans-serif" font-size="13" font-weight="bold" lengthAdjust="spacing" textLength="62.53" x="321.9216" y="94.9649">Pr&#233;requis</text><g class="message" data-participant-1="ins" data-participant-2="ins"><line style="stroke:#181818;stroke-width:1;" x1="339.2841" x2="381.2841" y1="136.4799" y2="136.4799"/><line style="stroke:#181818;stroke-width:1;" x1="381.2841" x2="381.2841" y1="136.4799" y2="149.4799"/><line style="stroke:#181818;stroke-width:1;" x1="340.2841" x2="381.2841" y1="149.4799" y2="149.4799"/><polygon fill="#181818" points="350.2841,145.4799,340.2841,149.4799,350.2841,153.4799,346.2841,149.4799" style="stroke:#181818;stroke-width:1;"/><text fill="#000000" font-family="sans-serif" font-size="13" font-weight="bold" lengthAdjust="spacing" textLength="7.436" x="346.2841" y="130.6709">1</text><text fill="#000000" font-family="sans-serif" font-size="13" lengthAdjust="spacing" textLength="170.8592" x="357.7201" y="130.6709">signale un contenu douteux</text></g><g class="message" data-participant-1="ins" data-participant-2="m"><polygon fill="#181818" points="73.3469,177.186,63.3469,181.186,73.3469,185.186,69.3469,181.186" style="stroke:#181818;stroke-width:1;"/><line style="stroke:#181818;stroke-width:1;" x1="67.3469" x2="338.2841" y1="181.186" y2="181.186"/><text fill="#000000" font-family="sans-serif" font-size="13" font-weight="bold" lengthAdjust="spacing" textLength="7.436" x="75.0034" y="175.377">2</text><text fill="#000000" font-family="sans-serif" font-size="13" lengthAdjust="spacing" textLength="240.1882" x="86.4394" y="175.377">pr&#233;vient le mod&#233;rateur du signalement</text></g><rect fill="#EEEEEE" height="3" style="stroke:#EEEEEE;stroke-width:1;" width="711.7533" x="0" y="211.039"/><line style="stroke:#000000;stroke-width:1;" x1="0" x2="711.7533" y1="211.039" y2="211.039"/><line style="stroke:#000000;stroke-width:1;" x1="0" x2="711.7533" y1="214.039" y2="214.039"/><rect fill="#EEEEEE" height="25.706" style="stroke:#000000;stroke-width:2;" width="81.782" x="314.9856" y="199.186"/><text fill="#000000" font-family="sans-serif" font-size="13" font-weight="bold" lengthAdjust="spacing" textLength="64.402" x="320.9856" y="217.083">Processus</text><g class="message" data-participant-1="m" data-participant-2="ins"><polygon fill="#181818" points="327.2841,254.598,337.2841,258.598,327.2841,262.598,331.2841,258.598" style="stroke:#181818;stroke-width:1;"/><line style="stroke:#181818;stroke-width:1;" x1="62.3469" x2="333.2841" y1="258.598" y2="258.598"/><text fill="#000000" font-family="sans-serif" font-size="13" font-weight="bold" lengthAdjust="spacing" textLength="7.436" x="76.9144" y="252.789">3</text><text fill="#000000" font-family="sans-serif" font-size="13" lengthAdjust="spacing" textLength="236.3662" x="88.3504" y="252.789">commence le processus de v&#233;rification</text></g><g class="message" data-participant-1="ins" data-participant-2="m"><polygon fill="#181818" points="73.3469,286.304,63.3469,290.304,73.3469,294.304,69.3469,290.304" style="stroke:#181818;stroke-width:1;"/><line style="stroke:#181818;stroke-width:1;" x1="67.3469" x2="338.2841" y1="290.304" y2="290.304"/><text fill="#000000" font-family="sans-serif" font-size="13" font-weight="bold" lengthAdjust="spacing" textLength="7.436" x="74.3469" y="284.495">4</text><text fill="#000000" font-family="sans-serif" font-size="13" lengthAdjust="spacing" textLength="241.5012" x="85.7829" y="284.495">envoie les informations du signalement</text></g><g class="message" data-participant-1="m" data-participant-2="m"><line style="stroke:#181818;stroke-width:1;" x1="62.3469" x2="104.3469" y1="322.01" y2="322.01"/><line style="stroke:#181818;stroke-width:1;" x1="104.3469" x2="104.3469" y1="322.01" y2="335.01"/><line style="stroke:#181818;stroke-width:1;" x1="63.3469" x2="104.3469" y1="335.01" y2="335.01"/><polygon fill="#181818" points="73.3469,331.01,63.3469,335.01,73.3469,339.01,69.3469,335.01" style="stroke:#181818;stroke-width:1;"/><text fill="#000000" font-family="sans-serif" font-size="13" font-weight="bold" lengthAdjust="spacing" textLength="7.436" x="69.3469" y="316.201">5</text><text fill="#000000" font-family="sans-serif" font-size="13" lengthAdjust="spacing" textLength="131.0661" x="80.7829" y="316.201">v&#233;rifie le signalement</text></g><path d="M10,350.01 L72.459,350.01 L72.459,359.716 L62.459,369.716 L10,369.716 L10,350.01" fill="#EEEEEE" style="stroke:#000000;stroke-width:1.5;"/><rect fill="none" height="334.0421" style="stroke:#000000;stroke-width:1.5;" width="691.7533" x="10" y="350.01"/><text fill="#000000" font-family="sans-serif" font-size="13" font-weight="bold" lengthAdjust="spacing" textLength="17.459" x="25" y="364.907">alt</text><text fill="#000000" font-family="sans-serif" font-size="11" font-weight="bold" lengthAdjust="spacing" textLength="147.2339" x="87.459" y="363.7689">[contenu jug&#233; inappropri&#233;]</text><g class="message" data-participant-1="m" data-participant-2="ins"><polygon fill="#181818" points="327.2841,389.4221,337.2841,393.4221,327.2841,397.4221,331.2841,393.4221" style="stroke:#181818;stroke-width:1;"/><line style="stroke:#181818;stroke-width:1;" x1="62.3469" x2="333.2841" y1="393.4221" y2="393.4221"/><text fill="#000000" font-family="sans-serif" font-size="13" font-weight="bold" lengthAdjust="spacing" textLength="7.436" x="108.8619" y="387.6131">6</text><text fill="#000000" font-family="sans-serif" font-size="13" lengthAdjust="spacing" textLength="172.4711" x="120.2979" y="387.6131">bloque la personne signal&#233;e</text></g><g class="message" data-participant-1="ins" data-participant-2="m"><polygon fill="#181818" points="73.3469,421.1281,63.3469,425.1281,73.3469,429.1281,69.3469,425.1281" style="stroke:#181818;stroke-width:1;"/><line style="stroke:#181818;stroke-width:1;" x1="67.3469" x2="338.2841" y1="425.1281" y2="425.1281"/><text fill="#000000" font-family="sans-serif" font-size="13" font-weight="bold" lengthAdjust="spacing" textLength="7.436" x="119.5024" y="419.3191">7</text><text fill="#000000" font-family="sans-serif" font-size="13" lengthAdjust="spacing" textLength="151.1901" x="130.9384" y="419.3191">demande de justification</text></g><g class="message" data-participant-1="m" data-participant-2="ins"><polygon fill="#181818" points="327.2841,452.8341,337.2841,456.8341,327.2841,460.8341,331.2841,456.8341" style="stroke:#181818;stroke-width:1;"/><line style="stroke:#181818;stroke-width:1;" x1="62.3469" x2="333.2841" y1="456.8341" y2="456.8341"/><text fill="#000000" font-family="sans-serif" font-size="13" font-weight="bold" lengthAdjust="spacing" textLength="7.436" x="174.6874" y="451.0251">8</text><text fill="#000000" font-family="sans-serif" font-size="13" lengthAdjust="spacing" textLength="40.82" x="186.1235" y="451.0251">justifie</text></g><g class="message" data-participant-1="ins" data-participant-2="ins"><line style="stroke:#181818;stroke-width:1;" x1="339.2841" x2="381.2841" y1="488.5401" y2="488.5401"/><line style="stroke:#181818;stroke-width:1;" x1="381.2841" x2="381.2841" y1="488.5401" y2="501.5401"/><line style="stroke:#181818;stroke-width:1;" x1="340.2841" x2="381.2841" y1="501.5401" y2="501.5401"/><polygon fill="#181818" points="350.2841,497.5401,340.2841,501.5401,350.2841,505.5401,346.2841,501.5401" style="stroke:#181818;stroke-width:1;"/><text fill="#000000" font-family="sans-serif" font-size="13" font-weight="bold" lengthAdjust="spacing" textLength="7.436" x="346.2841" y="482.7311">9</text><text fill="#000000" font-family="sans-serif" font-size="13" lengthAdjust="spacing" textLength="332.0332" x="357.7201" y="482.7311">pr&#233;vient l'utilisateur signal&#233; et transmet la justification</text></g><line style="stroke:#000000;stroke-width:1;stroke-dasharray:2,2;" x1="10" x2="701.7533" y1="510.5401" y2="510.5401"/><text fill="#000000" font-family="sans-serif" font-size="11" font-weight="bold" lengthAdjust="spacing" textLength="161.5338" x="15" y="522.299">[contenu non probl&#233;matique]</text><g class="message" data-participant-1="m" data-participant-2="ins"><polygon fill="#181818" points="327.2841,546.228,337.2841,550.228,327.2841,554.228,331.2841,550.228" style="stroke:#181818;stroke-width:1;"/><line style="stroke:#181818;stroke-width:1;" x1="62.3469" x2="333.2841" y1="550.228" y2="550.228"/><text fill="#000000" font-family="sans-serif" font-size="13" font-weight="bold" lengthAdjust="spacing" textLength="14.872" x="123.7144" y="544.419">10</text><text fill="#000000" font-family="sans-serif" font-size="13" lengthAdjust="spacing" textLength="135.3301" x="142.5864" y="544.419">annule le signalement</text></g><g class="message" data-participant-1="ins" data-participant-2="m"><polygon fill="#181818" points="73.3469,577.934,63.3469,581.934,73.3469,585.934,69.3469,581.934" style="stroke:#181818;stroke-width:1;"/><line style="stroke:#181818;stroke-width:1;" x1="67.3469" x2="338.2841" y1="581.934" y2="581.934"/><text fill="#000000" font-family="sans-serif" font-size="13" font-weight="bold" lengthAdjust="spacing" textLength="14.872" x="115.7844" y="576.125">11</text><text fill="#000000" font-family="sans-serif" font-size="13" lengthAdjust="spacing" textLength="151.1901" x="134.6564" y="576.125">demande de justification</text></g><g class="message" data-participant-1="m" data-participant-2="ins"><polygon fill="#181818" points="327.2841,609.6401,337.2841,613.6401,327.2841,617.6401,331.2841,613.6401" style="stroke:#181818;stroke-width:1;"/><line style="stroke:#181818;stroke-width:1;" x1="62.3469" x2="333.2841" y1="613.6401" y2="613.6401"/><text fill="#000000" font-family="sans-serif" font-size="13" font-weight="bold" lengthAdjust="spacing" textLength="14.872" x="170.9694" y="607.831">12</text><text fill="#000000" font-family="sans-serif" font-size="13" lengthAdjust="spacing" textLength="40.82" x="189.8415" y="607.831">justifie</text></g><g class="message" data-participant-1="ins" data-participant-2="ins"><line style="stroke:#181818;stroke-width:1;" x1="339.2841" x2="381.2841" y1="663.0521" y2="663.0521"/><line style="stroke:#181818;stroke-width:1;" x1="381.2841" x2="381.2841" y1="663.0521" y2="676.0521"/><line style="stroke:#181818;stroke-width:1;" x1="340.2841" x2="381.2841" y1="676.0521" y2="676.0521"/><polygon fill="#181818" points="350.2841,672.0521,340.2841,676.0521,350.2841,680.0521,346.2841,676.0521" style="stroke:#181818;stroke-width:1;"/><text fill="#000000" font-family="sans-serif" font-size="13" font-weight="bold" lengthAdjust="spacing" textLength="14.872" x="346.2841" y="648.3901">13</text><text fill="#000000" font-family="sans-serif" font-size="13" lengthAdjust="spacing" textLength="285.1293" x="365.1561" y="639.5371">pr&#233;vient l'utilisateur ayant &#233;mis le signalement</text><text fill="#000000" font-family="sans-serif" font-size="13" lengthAdjust="spacing" textLength="159.5751" x="431.3132" y="657.2431">et transmet la justification</text></g><g class="message" data-participant-1="m" data-participant-2="ins"><polygon fill="#181818" points="327.2841,710.7581,337.2841,714.7581,327.2841,718.7581,331.2841,714.7581" style="stroke:#181818;stroke-width:1;"/><line style="stroke:#181818;stroke-width:1;" x1="62.3469" x2="333.2841" y1="714.7581" y2="714.7581"/><text fill="#000000" font-family="sans-serif" font-size="13" font-weight="bold" lengthAdjust="spacing" textLength="14.872" x="82.7384" y="708.9491">14</text><text fill="#000000" font-family="sans-serif" font-size="13" lengthAdjust="spacing" textLength="217.2822" x="101.6104" y="708.9491">termine le processus de v&#233;rification</text></g><!--SRC=[lLCxRiCm3Drr2Y9BfrwWW0la004ATEt2o4ogLA9KVTBcI3w7BrRAiPqlq4urD1ZYu_lGD9RikRWrHPK-30UCw23HPo7MjAAKS4jBQxOCcZXVe51d7r_pmHAyUslzbrB35InMlksxY9bAN00cS4ewij4c86TOB4EmHcCsdeUouQHKqy1Bb2wHDWcQHYcvXiVdMds290vGX8huyEA32xI-YC3t17DF4AH_RyGc2DATF41R9W8drL7BQqbNZb9k5jBUkHgzKeGPqnBiXSriHjjdeiHxRogyvjZuw0P0kjO4UTpOCb8D6jSOj7bEk2lRlXDM3E8aHDDt0sIc6WolhPUF1HOXK4oUUUBiEvhX9xijEMI98sTNKZubkcKUwpSiG_5irWyb6slISTIJDb26796JanSnToj6Dj4SbJtNSQ-bimvG4jqnXCp5tftQ_sR4GrrZSIgBUca6tlWFmRazMpZvfvpXN_Rj1m00]--></g></svg>