<svg xmlns="http://www.w3.org/2000/svg" xmlns:xlink="http://www.w3.org/1999/xlink" contentStyleType="text/css" data-diagram-type="STATE" height="476px" preserveAspectRatio="none" style="width:556px;height:476px;background:#FFFFFF;" version="1.1" viewBox="0 0 556 476" width="556px" zoomAndPan="magnify"><defs/><g><g id="state1"><rect fill="#F1F1F1" height="71.7561" rx="12.5" ry="12.5" style="stroke:#181818;stroke-width:0.5;" width="235.8335" x="292.5" y="86"/><line style="stroke:#181818;stroke-width:0.5;" x1="292.5" x2="528.3335" y1="115.0679" y2="115.0679"/><text fill="#000000" font-family="sans-serif" font-size="14" lengthAdjust="spacing" textLength="155.8754" x="332.4791" y="105.9659">en attente de validation</text><text fill="#000000" font-family="sans-serif" font-size="12" lengthAdjust="spacing" textLength="152.6891" x="297.5" y="132.896">Compte nouvellement cr&#233;e</text><text fill="#000000" font-family="sans-serif" font-size="12" lengthAdjust="spacing" textLength="215.8335" x="297.5" y="149.2401">En attente de la validation de l'identit&#233;</text></g><g id="state2"><rect fill="#F1F1F1" height="55.412" rx="12.5" ry="12.5" style="stroke:#181818;stroke-width:0.5;" width="159.741" x="76.5" y="218"/><line style="stroke:#181818;stroke-width:0.5;" x1="76.5" x2="236.241" y1="247.0679" y2="247.0679"/><text fill="#000000" font-family="sans-serif" font-size="14" lengthAdjust="spacing" textLength="79.2397" x="116.7506" y="237.9659">valid&#233; / actif</text><text fill="#000000" font-family="sans-serif" font-size="12" lengthAdjust="spacing" textLength="139.741" x="81.5" y="264.896">&#201;tat normal d'un compte</text></g><g id="state3"><rect fill="#F1F1F1" height="55.412" rx="12.5" ry="12.5" style="stroke:#181818;stroke-width:0.5;" width="278.3138" x="271.5" y="218"/><line style="stroke:#181818;stroke-width:0.5;" x1="271.5" x2="549.8138" y1="247.0679" y2="247.0679"/><text fill="#000000" font-family="sans-serif" font-size="14" lengthAdjust="spacing" textLength="50.9598" x="385.177" y="237.9659">invalid&#233;</text><text fill="#000000" font-family="sans-serif" font-size="12" lengthAdjust="spacing" textLength="258.3138" x="276.5" y="264.896">les documents d'identit&#233; n'ont pas &#233;tait valid&#233;</text></g><g id="state4"><rect fill="#F1F1F1" height="55.412" rx="12.5" ry="12.5" style="stroke:#181818;stroke-width:0.5;" width="299.074" x="7" y="333"/><line style="stroke:#181818;stroke-width:0.5;" x1="7" x2="306.074" y1="362.0679" y2="362.0679"/><text fill="#000000" font-family="sans-serif" font-size="14" lengthAdjust="spacing" textLength="45.8498" x="133.6121" y="352.9659">bloqu&#233;</text><text fill="#000000" font-family="sans-serif" font-size="12" lengthAdjust="spacing" textLength="279.074" x="12" y="379.896">compte bloquer suite &#224; un mauvais comprtement</text></g><ellipse cx="410.5" cy="16" fill="#222222" rx="10" ry="10" style="stroke:#222222;stroke-width:1;"/><ellipse cx="257.5" cy="459" fill="none" rx="11" ry="11" style="stroke:#222222;stroke-width:1;"/><ellipse cx="257.5" cy="459" fill="#222222" rx="6" ry="6" style="stroke:#222222;stroke-width:1;"/><!--link *start* to state1--><g class="link" data-entity-1=".start." data-entity-2="state1" data-source-line="11" data-uid="lnk3" id="link_.start._state1"><path d="M410.5,26.23 C410.5,39.45 410.5,58.52 410.5,79.55" fill="none" id="*start*-to-state1" style="stroke:#181818;stroke-width:1;"/><polygon fill="#181818" points="410.5,85.55,414.5,76.55,410.5,80.55,406.5,76.55,410.5,85.55" style="stroke:#181818;stroke-width:1;"/></g><!--link state1 to state2--><g class="link" data-entity-1="state1" data-entity-2="state2" data-source-line="12" data-uid="lnk4" id="link_state1_state2"><path d="M337.03,158.14 C297.18,177.21 254.1327,197.801 217.4627,215.341" fill="none" id="state1-to-state2" style="stroke:#181818;stroke-width:1;"/><polygon fill="#181818" points="212.05,217.93,221.895,217.655,216.5606,215.7725,218.443,210.4381,212.05,217.93" style="stroke:#181818;stroke-width:1;"/></g><!--link state1 to state3--><g class="link" data-entity-1="state1" data-entity-2="state3" data-source-line="13" data-uid="lnk5" id="link_state1_state3"><path d="M398.82,158.14 C397.13,177.21 396.6566,194.4414 398.9666,211.9814" fill="none" id="state1-to-state3" style="stroke:#181818;stroke-width:1;"/><polygon fill="#181818" points="399.75,217.93,402.5406,208.4848,399.0971,212.9728,394.6091,209.5293,399.75,217.93" style="stroke:#181818;stroke-width:1;"/></g><!--link state3 to state1--><g class="link" data-entity-1="state3" data-entity-2="state1" data-source-line="14" data-uid="lnk6" id="link_state3_state1"><path d="M421.89,217.93 C424.32,200.39 425.2076,183.184 423.4276,164.114" fill="none" id="state3-to-state1" style="stroke:#181818;stroke-width:1;"/><polygon fill="#181818" points="422.87,158.14,419.7237,167.4728,423.3347,163.1184,427.6891,166.7293,422.87,158.14" style="stroke:#181818;stroke-width:1;"/></g><!--link state2 to state4--><g class="link" data-entity-1="state2" data-entity-2="state4" data-source-line="15" data-uid="lnk7" id="link_state2_state4"><path d="M145.47,273.28 C143.17,291.29 142.415,308.989 144.725,326.959" fill="none" id="state2-to-state4" style="stroke:#181818;stroke-width:1;"/><polygon fill="#181818" points="145.49,332.91,148.3099,323.4735,144.8525,327.9508,140.3752,324.4934,145.49,332.91" style="stroke:#181818;stroke-width:1;"/></g><!--link state4 to state2--><g class="link" data-entity-1="state4" data-entity-2="state2" data-source-line="16" data-uid="lnk8" id="link_state4_state2"><path d="M168.15,332.91 C170.61,314.94 171.4255,297.2357 168.9855,279.2257" fill="none" id="state4-to-state2" style="stroke:#181818;stroke-width:1;"/><polygon fill="#181818" points="168.18,273.28,165.4245,282.7355,168.8513,278.2347,173.3521,281.6615,168.18,273.28" style="stroke:#181818;stroke-width:1;"/></g><!--link state4 to *end*--><g class="link" data-entity-1="state4" data-entity-2=".end." data-source-line="17" data-uid="lnk10" id="link_state4_.end."><path d="M184.37,388.12 C206.55,409.32 231.7507,433.4062 245.5107,446.5462" fill="none" id="state4-to-*end*" style="stroke:#181818;stroke-width:1;"/><polygon fill="#181818" points="249.85,450.69,246.1036,441.5815,246.2339,447.2369,240.5786,447.3672,249.85,450.69" style="stroke:#181818;stroke-width:1;"/></g><!--link state2 to *end*--><g class="link" data-entity-1="state2" data-entity-2=".end." data-source-line="18" data-uid="lnk11" id="link_state2_.end."><path d="M236.66,267.81 C269.54,280.93 304.33,301.48 323.5,333 C336.2,353.88 332.52,365.28 323.5,388 C311.91,417.18 286.6543,437.8034 271.4443,448.5234" fill="none" id="state2-to-*end*" style="stroke:#181818;stroke-width:1;"/><polygon fill="#181818" points="266.54,451.98,276.2008,450.0647,270.6269,449.0995,271.5921,443.5256,266.54,451.98" style="stroke:#181818;stroke-width:1;"/></g><!--SRC=[PL0xJiGm4ErzYgSqaP1MYEnM53I8Ko2A8JQI9STUud7km2reSmvVZ8bZah1qCs_UJnEPsA0n7iHilCpQO29dDR4DlW55n8NpW4SyX-4g31_IP9mpW_3HZtasQgEy_35oTF0gG6kr72tdMQqYD8MHPzo3UhOVUsGdVlbB9aaS1tBGRVBeIubDRNtLxxgpw9o9qA5FIqUPzbZuDaZjgv3pp6GPLRyvlhlmcOv-5_5RKr5kPaHCLhRy3IaqK9h8na8PkNn5gTUxDvnEJ_Ltl__PaEuVSbQr-wsgsv6BgdrkVLP4Ce-IPVq1]--></g></svg>