<svg xmlns="http://www.w3.org/2000/svg" xmlns:xlink="http://www.w3.org/1999/xlink" contentStyleType="text/css" data-diagram-type="SEQUENCE" height="782px" preserveAspectRatio="none" style="width:618px;height:782px;background:#FFFFFF;" version="1.1" viewBox="0 0 618 782" width="618px" zoomAndPan="magnify"><defs/><g><rect fill="none" height="191.2361" style="stroke:#000000;stroke-width:1.5;" width="599.2233" x="10" y="74.0679"/><rect fill="none" height="222.9421" style="stroke:#000000;stroke-width:1.5;" width="584.5073" x="10" y="279.304"/><rect fill="none" height="191.2361" style="stroke:#000000;stroke-width:1.5;" width="602.3303" x="10" y="516.2461"/><g><title>Utilisateur</title><rect fill="#000000" fill-opacity="0.00000" height="667.4143" width="8" x="53.0339" y="57.0679"/><line style="stroke:#181818;stroke-width:0.5;stroke-dasharray:5,5;" x1="57" x2="57" y1="57.0679" y2="724.4822"/></g><g><title>Application</title><rect fill="#000000" fill-opacity="0.00000" height="667.4143" width="8" x="314.5271" y="57.0679"/><line style="stroke:#181818;stroke-width:0.5;stroke-dasharray:5,5;" x1="317.6512" x2="317.6512" y1="57.0679" y2="724.4822"/></g><g class="participant participant-head" data-participant="usr"><text fill="#000000" font-family="sans-serif" font-size="14" lengthAdjust="spacing" textLength="68.0677" x="20" y="52.9659">Utilisateur</text><ellipse cx="57.0339" cy="10" fill="#E2E2F0" rx="4.5" ry="4.5" style="stroke:#181818;stroke-width:0.5;"/><path d="M44.5339,16.5 L44.5339,21.5 L54.0339,21.5 L54.0339,23.7574 L44.5339,33.2574 L48.7765,37.5 L57.0339,29.2426 L65.2912,37.5 L69.5339,33.2574 L60.0339,23.7574 L60.0339,21.5 L69.5339,21.5 L69.5339,16.5 L44.5339,16.5" fill="#E2E2F0" style="stroke:#181818;stroke-width:0.5;"/></g><g class="participant participant-tail" data-participant="usr"><text fill="#000000" font-family="sans-serif" font-size="14" lengthAdjust="spacing" textLength="68.0677" x="20" y="738.4482">Utilisateur</text><ellipse cx="57.0339" cy="747.5501" fill="#E2E2F0" rx="4.5" ry="4.5" style="stroke:#181818;stroke-width:0.5;"/><path d="M44.5339,754.0501 L44.5339,759.0501 L54.0339,759.0501 L54.0339,761.3075 L44.5339,770.8075 L48.7765,775.0501 L57.0339,766.7928 L65.2912,775.0501 L69.5339,770.8075 L60.0339,761.3075 L60.0339,759.0501 L69.5339,759.0501 L69.5339,754.0501 L44.5339,754.0501" fill="#E2E2F0" style="stroke:#181818;stroke-width:0.5;"/></g><g class="participant participant-head" data-participant="app"><rect fill="#E2E2F0" height="33.0679" rx="2.5" ry="2.5" style="stroke:#181818;stroke-width:0.5;" width="87.7517" x="274.6512" y="23"/><text fill="#000000" font-family="sans-serif" font-size="14" lengthAdjust="spacing" textLength="73.7517" x="281.6512" y="44.9659">Application</text></g><g class="participant participant-tail" data-participant="app"><rect fill="#E2E2F0" height="33.0679" rx="2.5" ry="2.5" style="stroke:#181818;stroke-width:0.5;" width="87.7517" x="274.6512" y="723.4822"/><text fill="#000000" font-family="sans-serif" font-size="14" lengthAdjust="spacing" textLength="73.7517" x="281.6512" y="745.4482">Application</text></g><path d="M10,74.0679 L72.459,74.0679 L72.459,83.7739 L62.459,93.7739 L10,93.7739 L10,74.0679" fill="#EEEEEE" style="stroke:#000000;stroke-width:1.5;"/><rect fill="none" height="191.2361" style="stroke:#000000;stroke-width:1.5;" width="599.2233" x="10" y="74.0679"/><text fill="#000000" font-family="sans-serif" font-size="13" font-weight="bold" lengthAdjust="spacing" textLength="17.459" x="25" y="88.9649">alt</text><text fill="#000000" font-family="sans-serif" font-size="11" font-weight="bold" lengthAdjust="spacing" textLength="120.3061" x="87.459" y="87.8268">[signaler un message]</text><g class="message" data-participant-1="usr" data-participant-2="app"><polygon fill="#181818" points="306.5271,113.4799,316.5271,117.4799,306.5271,121.4799,310.5271,117.4799" style="stroke:#181818;stroke-width:1;"/><line style="stroke:#181818;stroke-width:1;" x1="57.0339" x2="312.5271" y1="117.4799" y2="117.4799"/><text fill="#000000" font-family="sans-serif" font-size="13" font-weight="bold" lengthAdjust="spacing" textLength="7.436" x="108.0144" y="111.6709">1</text><text fill="#000000" font-family="sans-serif" font-size="13" lengthAdjust="spacing" textLength="148.0961" x="119.4504" y="111.6709">S&#233;lectionne un message</text></g><g class="message" data-participant-1="app" data-participant-2="usr"><polygon fill="#181818" points="68.0339,145.186,58.0339,149.186,68.0339,153.186,64.0339,149.186" style="stroke:#181818;stroke-width:1;"/><line style="stroke:#181818;stroke-width:1;" x1="62.0339" x2="317.5271" y1="149.186" y2="149.186"/><text fill="#000000" font-family="sans-serif" font-size="13" font-weight="bold" lengthAdjust="spacing" textLength="7.436" x="77.1589" y="143.377">2</text><text fill="#000000" font-family="sans-serif" font-size="13" lengthAdjust="spacing" textLength="209.8072" x="88.5949" y="143.377">Montre les options sur le message</text></g><g class="message" data-participant-1="usr" data-participant-2="app"><polygon fill="#181818" points="306.5271,176.892,316.5271,180.892,306.5271,184.892,310.5271,180.892" style="stroke:#181818;stroke-width:1;"/><line style="stroke:#181818;stroke-width:1;" x1="57.0339" x2="312.5271" y1="180.892" y2="180.892"/><text fill="#000000" font-family="sans-serif" font-size="13" font-weight="bold" lengthAdjust="spacing" textLength="7.436" x="84.5364" y="175.083">3</text><text fill="#000000" font-family="sans-serif" font-size="13" lengthAdjust="spacing" textLength="195.0522" x="95.9724" y="175.083">S&#233;lectionne signaler le message</text></g><g class="message" data-participant-1="app" data-participant-2="usr"><polygon fill="#181818" points="68.0339,208.598,58.0339,212.598,68.0339,216.598,64.0339,212.598" style="stroke:#181818;stroke-width:1;"/><line style="stroke:#181818;stroke-width:1;" x1="62.0339" x2="317.5271" y1="212.598" y2="212.598"/><text fill="#000000" font-family="sans-serif" font-size="13" font-weight="bold" lengthAdjust="spacing" textLength="7.436" x="72.7519" y="206.789">4</text><text fill="#000000" font-family="sans-serif" font-size="13" lengthAdjust="spacing" textLength="218.6212" x="84.1879" y="206.789">Envoie un message de confirmation</text></g><g class="message" data-participant-1="app" data-participant-2="app"><line style="stroke:#181818;stroke-width:1;" x1="318.5271" x2="360.5271" y1="244.304" y2="244.304"/><line style="stroke:#181818;stroke-width:1;" x1="360.5271" x2="360.5271" y1="244.304" y2="257.304"/><line style="stroke:#181818;stroke-width:1;" x1="319.5271" x2="360.5271" y1="257.304" y2="257.304"/><polygon fill="#181818" points="329.5271,253.304,319.5271,257.304,329.5271,261.304,325.5271,257.304" style="stroke:#181818;stroke-width:1;"/><text fill="#000000" font-family="sans-serif" font-size="13" font-weight="bold" lengthAdjust="spacing" textLength="7.436" x="325.5271" y="238.495">5</text><text fill="#000000" font-family="sans-serif" font-size="13" lengthAdjust="spacing" textLength="260.2602" x="336.9631" y="238.495">Envoie du message signal&#233; au mod&#233;rateur</text></g><path d="M10,279.304 L72.459,279.304 L72.459,289.01 L62.459,299.01 L10,299.01 L10,279.304" fill="#EEEEEE" style="stroke:#000000;stroke-width:1.5;"/><rect fill="none" height="222.9421" style="stroke:#000000;stroke-width:1.5;" width="584.5073" x="10" y="279.304"/><text fill="#000000" font-family="sans-serif" font-size="13" font-weight="bold" lengthAdjust="spacing" textLength="17.459" x="25" y="294.201">alt</text><text fill="#000000" font-family="sans-serif" font-size="11" font-weight="bold" lengthAdjust="spacing" textLength="101.6943" x="87.459" y="293.0629">[signaler un profil]</text><g class="message" data-participant-1="usr" data-participant-2="app"><polygon fill="#181818" points="306.5271,318.716,316.5271,322.716,306.5271,326.716,310.5271,322.716" style="stroke:#181818;stroke-width:1;"/><line style="stroke:#181818;stroke-width:1;" x1="57.0339" x2="312.5271" y1="322.716" y2="322.716"/><text fill="#000000" font-family="sans-serif" font-size="13" font-weight="bold" lengthAdjust="spacing" textLength="7.436" x="124.8819" y="316.907">6</text><text fill="#000000" font-family="sans-serif" font-size="13" lengthAdjust="spacing" textLength="114.3611" x="136.3179" y="316.907">Consulter un profil</text></g><g class="message" data-participant-1="usr" data-participant-2="app"><polygon fill="#181818" points="306.5271,350.4221,316.5271,354.4221,306.5271,358.4221,310.5271,354.4221" style="stroke:#181818;stroke-width:1;"/><line style="stroke:#181818;stroke-width:1;" x1="57.0339" x2="312.5271" y1="354.4221" y2="354.4221"/><text fill="#000000" font-family="sans-serif" font-size="13" font-weight="bold" lengthAdjust="spacing" textLength="7.436" x="97.5169" y="348.6131">7</text><text fill="#000000" font-family="sans-serif" font-size="13" lengthAdjust="spacing" textLength="169.0912" x="108.9529" y="348.6131">S&#233;lectionne option du profil</text></g><g class="message" data-participant-1="app" data-participant-2="usr"><polygon fill="#181818" points="68.0339,382.1281,58.0339,386.1281,68.0339,390.1281,64.0339,386.1281" style="stroke:#181818;stroke-width:1;"/><line style="stroke:#181818;stroke-width:1;" x1="62.0339" x2="317.5271" y1="386.1281" y2="386.1281"/><text fill="#000000" font-family="sans-serif" font-size="13" font-weight="bold" lengthAdjust="spacing" textLength="7.436" x="88.2349" y="380.3191">8</text><text fill="#000000" font-family="sans-serif" font-size="13" lengthAdjust="spacing" textLength="187.6552" x="99.6709" y="380.3191">Montre les options sur le profil</text></g><g class="message" data-participant-1="usr" data-participant-2="app"><polygon fill="#181818" points="306.5271,413.8341,316.5271,417.8341,306.5271,421.8341,310.5271,417.8341" style="stroke:#181818;stroke-width:1;"/><line style="stroke:#181818;stroke-width:1;" x1="57.0339" x2="312.5271" y1="417.8341" y2="417.8341"/><text fill="#000000" font-family="sans-serif" font-size="13" font-weight="bold" lengthAdjust="spacing" textLength="7.436" x="95.6124" y="412.0251">9</text><text fill="#000000" font-family="sans-serif" font-size="13" lengthAdjust="spacing" textLength="172.9001" x="107.0484" y="412.0251">S&#233;lectionne signaler le profil</text></g><g class="message" data-participant-1="app" data-participant-2="usr"><polygon fill="#181818" points="68.0339,445.5401,58.0339,449.5401,68.0339,453.5401,64.0339,449.5401" style="stroke:#181818;stroke-width:1;"/><line style="stroke:#181818;stroke-width:1;" x1="62.0339" x2="317.5271" y1="449.5401" y2="449.5401"/><text fill="#000000" font-family="sans-serif" font-size="13" font-weight="bold" lengthAdjust="spacing" textLength="14.872" x="69.0339" y="443.7311">10</text><text fill="#000000" font-family="sans-serif" font-size="13" lengthAdjust="spacing" textLength="218.6212" x="87.9059" y="443.7311">Envoie un message de confirmation</text></g><g class="message" data-participant-1="app" data-participant-2="app"><line style="stroke:#181818;stroke-width:1;" x1="318.5271" x2="360.5271" y1="481.2461" y2="481.2461"/><line style="stroke:#181818;stroke-width:1;" x1="360.5271" x2="360.5271" y1="481.2461" y2="494.2461"/><line style="stroke:#181818;stroke-width:1;" x1="319.5271" x2="360.5271" y1="494.2461" y2="494.2461"/><polygon fill="#181818" points="329.5271,490.2461,319.5271,494.2461,329.5271,498.2461,325.5271,494.2461" style="stroke:#181818;stroke-width:1;"/><text fill="#000000" font-family="sans-serif" font-size="13" font-weight="bold" lengthAdjust="spacing" textLength="14.872" x="325.5271" y="475.4371">11</text><text fill="#000000" font-family="sans-serif" font-size="13" lengthAdjust="spacing" textLength="238.1082" x="344.3991" y="475.4371">Envoie du profil signal&#233; au mod&#233;rateur</text></g><path d="M10,516.2461 L72.459,516.2461 L72.459,525.9521 L62.459,535.9521 L10,535.9521 L10,516.2461" fill="#EEEEEE" style="stroke:#000000;stroke-width:1.5;"/><rect fill="none" height="191.2361" style="stroke:#000000;stroke-width:1.5;" width="602.3303" x="10" y="516.2461"/><text fill="#000000" font-family="sans-serif" font-size="13" font-weight="bold" lengthAdjust="spacing" textLength="17.459" x="25" y="531.1431">alt</text><text fill="#000000" font-family="sans-serif" font-size="11" font-weight="bold" lengthAdjust="spacing" textLength="216.8634" x="87.459" y="530.005">[signaler un contenu (Image, photo, ...)]</text><g class="message" data-participant-1="usr" data-participant-2="app"><polygon fill="#181818" points="306.5271,555.6582,316.5271,559.6582,306.5271,563.6582,310.5271,559.6582" style="stroke:#181818;stroke-width:1;"/><line style="stroke:#181818;stroke-width:1;" x1="57.0339" x2="312.5271" y1="559.6582" y2="559.6582"/><text fill="#000000" font-family="sans-serif" font-size="13" font-weight="bold" lengthAdjust="spacing" textLength="14.872" x="106.4674" y="553.8492">12</text><text fill="#000000" font-family="sans-serif" font-size="13" lengthAdjust="spacing" textLength="143.7541" x="125.3394" y="553.8492">S&#233;lectionner le contenu</text></g><g class="message" data-participant-1="app" data-participant-2="usr"><polygon fill="#181818" points="68.0339,587.3642,58.0339,591.3642,68.0339,595.3642,64.0339,591.3642" style="stroke:#181818;stroke-width:1;"/><line style="stroke:#181818;stroke-width:1;" x1="62.0339" x2="317.5271" y1="591.3642" y2="591.3642"/><text fill="#000000" font-family="sans-serif" font-size="13" font-weight="bold" lengthAdjust="spacing" textLength="14.872" x="84.4389" y="585.5552">13</text><text fill="#000000" font-family="sans-serif" font-size="13" lengthAdjust="spacing" textLength="187.8112" x="103.3109" y="585.5552">Montre les options du contenu</text></g><g class="message" data-participant-1="usr" data-participant-2="app"><polygon fill="#181818" points="306.5271,619.0702,316.5271,623.0702,306.5271,627.0702,310.5271,623.0702" style="stroke:#181818;stroke-width:1;"/><line style="stroke:#181818;stroke-width:1;" x1="57.0339" x2="312.5271" y1="623.0702" y2="623.0702"/><text fill="#000000" font-family="sans-serif" font-size="13" font-weight="bold" lengthAdjust="spacing" textLength="14.872" x="82.6319" y="617.2612">14</text><text fill="#000000" font-family="sans-serif" font-size="13" lengthAdjust="spacing" textLength="191.4252" x="101.5039" y="617.2612">S&#233;lectionne signaler le contunu</text></g><g class="message" data-participant-1="app" data-participant-2="usr"><polygon fill="#181818" points="68.0339,650.7762,58.0339,654.7762,68.0339,658.7762,64.0339,654.7762" style="stroke:#181818;stroke-width:1;"/><line style="stroke:#181818;stroke-width:1;" x1="62.0339" x2="317.5271" y1="654.7762" y2="654.7762"/><text fill="#000000" font-family="sans-serif" font-size="13" font-weight="bold" lengthAdjust="spacing" textLength="14.872" x="69.0339" y="648.9672">15</text><text fill="#000000" font-family="sans-serif" font-size="13" lengthAdjust="spacing" textLength="218.6212" x="87.9059" y="648.9672">Envoie un message de confirmation</text></g><g class="message" data-participant-1="app" data-participant-2="app"><line style="stroke:#181818;stroke-width:1;" x1="318.5271" x2="360.5271" y1="686.4822" y2="686.4822"/><line style="stroke:#181818;stroke-width:1;" x1="360.5271" x2="360.5271" y1="686.4822" y2="699.4822"/><line style="stroke:#181818;stroke-width:1;" x1="319.5271" x2="360.5271" y1="699.4822" y2="699.4822"/><polygon fill="#181818" points="329.5271,695.4822,319.5271,699.4822,329.5271,703.4822,325.5271,699.4822" style="stroke:#181818;stroke-width:1;"/><text fill="#000000" font-family="sans-serif" font-size="13" font-weight="bold" lengthAdjust="spacing" textLength="14.872" x="325.5271" y="680.6732">16</text><text fill="#000000" font-family="sans-serif" font-size="13" lengthAdjust="spacing" textLength="255.9312" x="344.3991" y="680.6732">Envoie du contenu signal&#233; au mod&#233;rateur</text></g><!--SRC=[fP11JiCm44NtESKeAv1A3j05KeLOiEYguW36cROMpenhZq4SAUV8nR0JY1fQQ52ziMpzFt_-Kr6OOlE2lWYlXfpoge60XuYaSOqXg1skhDaHQ2IPg9GMzXlvi0XxjfRVYwB_Wl9PZ3L12KPVWWeGWo-IHumsJf50kNBE6gt4CFK2vLmoMu6GafH53v6W6T8Bo2UDWBlxB8GbRBhMeivkmXDbbYHbDYnXpIGUmM80TjaG84IVtdEdZmlzj4nY7kcDpV4gK2DefgtnJTzouadNQAdZQ1cYkXPK-kEwQtrFi42gJ-4uprjZpsp_a3f6AnTKauu3cRpAiNucntaHnnX_3RcAuZ3rVn3JR46ASFFKfBG5k3qBBw2ggjiBXVeYN_PvkDAA4_qyLjaIpqPS1Ukx-1-qFW40]--></g></svg>