<svg xmlns="http://www.w3.org/2000/svg" xmlns:xlink="http://www.w3.org/1999/xlink" contentStyleType="text/css" data-diagram-type="SEQUENCE" height="646px" preserveAspectRatio="none" style="width:494px;height:646px;background:#FFFFFF;" version="1.1" viewBox="0 0 494 646" width="494px" zoomAndPan="magnify"><defs/><g><rect fill="none" height="51.412" style="stroke:#000000;stroke-width:1.5;" width="467.651" x="10" y="260.598"/><rect fill="none" height="51.412" style="stroke:#000000;stroke-width:1.5;" width="467.651" x="10" y="326.01"/><rect fill="none" height="51.412" style="stroke:#000000;stroke-width:1.5;" width="467.651" x="10" y="391.4221"/><rect fill="none" height="51.412" style="stroke:#000000;stroke-width:1.5;" width="467.651" x="10" y="456.8341"/><g><title>Utilisateur</title><rect fill="#000000" fill-opacity="0.00000" height="531.5902" width="8" x="53.0339" y="57.0679"/><line style="stroke:#181818;stroke-width:0.5;stroke-dasharray:5,5;" x1="57" x2="57" y1="57.0679" y2="588.6582"/></g><g><title>Application</title><rect fill="#000000" fill-opacity="0.00000" height="531.5902" width="8" x="419.7751" y="57.0679"/><line style="stroke:#181818;stroke-width:0.5;stroke-dasharray:5,5;" x1="422.8993" x2="422.8993" y1="57.0679" y2="588.6582"/></g><g class="participant participant-head" data-participant="usr"><text fill="#000000" font-family="sans-serif" font-size="14" lengthAdjust="spacing" textLength="68.0677" x="20" y="52.9659">Utilisateur</text><ellipse cx="57.0339" cy="10" fill="#E2E2F0" rx="4.5" ry="4.5" style="stroke:#181818;stroke-width:0.5;"/><path d="M44.5339,16.5 L44.5339,21.5 L54.0339,21.5 L54.0339,23.7574 L44.5339,33.2574 L48.7765,37.5 L57.0339,29.2426 L65.2912,37.5 L69.5339,33.2574 L60.0339,23.7574 L60.0339,21.5 L69.5339,21.5 L69.5339,16.5 L44.5339,16.5" fill="#E2E2F0" style="stroke:#181818;stroke-width:0.5;"/></g><g class="participant participant-tail" data-participant="usr"><text fill="#000000" font-family="sans-serif" font-size="14" lengthAdjust="spacing" textLength="68.0677" x="20" y="602.6241">Utilisateur</text><ellipse cx="57.0339" cy="611.7261" fill="#E2E2F0" rx="4.5" ry="4.5" style="stroke:#181818;stroke-width:0.5;"/><path d="M44.5339,618.2261 L44.5339,623.2261 L54.0339,623.2261 L54.0339,625.4834 L44.5339,634.9834 L48.7765,639.2261 L57.0339,630.9687 L65.2912,639.2261 L69.5339,634.9834 L60.0339,625.4834 L60.0339,623.2261 L69.5339,623.2261 L69.5339,618.2261 L44.5339,618.2261" fill="#E2E2F0" style="stroke:#181818;stroke-width:0.5;"/></g><g class="participant participant-head" data-participant="app"><rect fill="#E2E2F0" height="33.0679" rx="2.5" ry="2.5" style="stroke:#181818;stroke-width:0.5;" width="87.7517" x="379.8993" y="23"/><text fill="#000000" font-family="sans-serif" font-size="14" lengthAdjust="spacing" textLength="73.7517" x="386.8993" y="44.9659">Application</text></g><g class="participant participant-tail" data-participant="app"><rect fill="#E2E2F0" height="33.0679" rx="2.5" ry="2.5" style="stroke:#181818;stroke-width:0.5;" width="87.7517" x="379.8993" y="587.6582"/><text fill="#000000" font-family="sans-serif" font-size="14" lengthAdjust="spacing" textLength="73.7517" x="386.8993" y="609.6241">Application</text></g><rect fill="#EEEEEE" height="3" style="stroke:#EEEEEE;stroke-width:1;" width="487.651" x="0" y="88.9209"/><line style="stroke:#000000;stroke-width:1;" x1="0" x2="487.651" y1="88.9209" y2="88.9209"/><line style="stroke:#000000;stroke-width:1;" x1="0" x2="487.651" y1="91.9209" y2="91.9209"/><rect fill="#EEEEEE" height="25.706" style="stroke:#000000;stroke-width:2;" width="79.91" x="203.8705" y="77.0679"/><text fill="#000000" font-family="sans-serif" font-size="13" font-weight="bold" lengthAdjust="spacing" textLength="62.53" x="209.8705" y="94.9649">Pr&#233;requis</text><g class="message" data-participant-1="usr" data-participant-2="app"><polygon fill="#181818" points="411.7751,132.4799,421.7751,136.4799,411.7751,140.4799,415.7751,136.4799" style="stroke:#181818;stroke-width:1;"/><line style="stroke:#181818;stroke-width:1;" x1="57.0339" x2="417.7751" y1="136.4799" y2="136.4799"/><text fill="#000000" font-family="sans-serif" font-size="13" font-weight="bold" lengthAdjust="spacing" textLength="7.436" x="195.6475" y="130.6709">1</text><text fill="#000000" font-family="sans-serif" font-size="13" lengthAdjust="spacing" textLength="78.0781" x="207.0835" y="130.6709">se connecter</text></g><rect fill="#EEEEEE" height="3" style="stroke:#EEEEEE;stroke-width:1;" width="487.651" x="0" y="166.333"/><line style="stroke:#000000;stroke-width:1;" x1="0" x2="487.651" y1="166.333" y2="166.333"/><line style="stroke:#000000;stroke-width:1;" x1="0" x2="487.651" y1="169.333" y2="169.333"/><rect fill="#EEEEEE" height="25.706" style="stroke:#000000;stroke-width:2;" width="81.782" x="202.9345" y="154.4799"/><text fill="#000000" font-family="sans-serif" font-size="13" font-weight="bold" lengthAdjust="spacing" textLength="64.402" x="208.9345" y="172.377">Processus</text><g class="message" data-participant-1="usr" data-participant-2="app"><polygon fill="#181818" points="411.7751,209.892,421.7751,213.892,411.7751,217.892,415.7751,213.892" style="stroke:#181818;stroke-width:1;"/><line style="stroke:#181818;stroke-width:1;" x1="57.0339" x2="417.7751" y1="213.892" y2="213.892"/><text fill="#000000" font-family="sans-serif" font-size="13" font-weight="bold" lengthAdjust="spacing" textLength="7.436" x="121.9569" y="208.083">2</text><text fill="#000000" font-family="sans-serif" font-size="13" lengthAdjust="spacing" textLength="225.4592" x="133.3929" y="208.083">S&#233;lectionne l'onglet rechercher profil</text></g><g class="message" data-participant-1="app" data-participant-2="usr"><polygon fill="#181818" points="68.0339,241.598,58.0339,245.598,68.0339,249.598,64.0339,245.598" style="stroke:#181818;stroke-width:1;"/><line style="stroke:#181818;stroke-width:1;" x1="62.0339" x2="422.7751" y1="245.598" y2="245.598"/><text fill="#000000" font-family="sans-serif" font-size="13" font-weight="bold" lengthAdjust="spacing" textLength="7.436" x="189.57" y="239.789">3</text><text fill="#000000" font-family="sans-serif" font-size="13" lengthAdjust="spacing" textLength="90.2331" x="201.006" y="239.789">Affiche la page</text></g><path d="M10,260.598 L76.918,260.598 L76.918,270.304 L66.918,280.304 L10,280.304 L10,260.598" fill="#EEEEEE" style="stroke:#000000;stroke-width:1.5;"/><rect fill="none" height="51.412" style="stroke:#000000;stroke-width:1.5;" width="467.651" x="10" y="260.598"/><text fill="#000000" font-family="sans-serif" font-size="13" font-weight="bold" lengthAdjust="spacing" textLength="21.918" x="25" y="275.495">opt</text><text fill="#000000" font-family="sans-serif" font-size="11" font-weight="bold" lengthAdjust="spacing" textLength="108.9872" x="91.918" y="274.3569">[option de distance]</text><g class="message" data-participant-1="usr" data-participant-2="app"><polygon fill="#181818" points="411.7751,300.01,421.7751,304.01,411.7751,308.01,415.7751,304.01" style="stroke:#181818;stroke-width:1;"/><line style="stroke:#181818;stroke-width:1;" x1="57.0339" x2="417.7751" y1="304.01" y2="304.01"/><text fill="#000000" font-family="sans-serif" font-size="13" font-weight="bold" lengthAdjust="spacing" textLength="7.436" x="101.1569" y="298.201">4</text><text fill="#000000" font-family="sans-serif" font-size="13" lengthAdjust="spacing" textLength="267.0592" x="112.5929" y="298.201">S&#233;lectionne la distance entre les utilisateurs</text></g><path d="M10,326.01 L76.918,326.01 L76.918,335.716 L66.918,345.716 L10,345.716 L10,326.01" fill="#EEEEEE" style="stroke:#000000;stroke-width:1.5;"/><rect fill="none" height="51.412" style="stroke:#000000;stroke-width:1.5;" width="467.651" x="10" y="326.01"/><text fill="#000000" font-family="sans-serif" font-size="13" font-weight="bold" lengthAdjust="spacing" textLength="21.918" x="25" y="340.907">opt</text><text fill="#000000" font-family="sans-serif" font-size="11" font-weight="bold" lengthAdjust="spacing" textLength="88.7914" x="91.918" y="339.7689">[option de l'&#226;ge]</text><g class="message" data-participant-1="usr" data-participant-2="app"><polygon fill="#181818" points="411.7751,365.4221,421.7751,369.4221,411.7751,373.4221,415.7751,369.4221" style="stroke:#181818;stroke-width:1;"/><line style="stroke:#181818;stroke-width:1;" x1="57.0339" x2="417.7751" y1="369.4221" y2="369.4221"/><text fill="#000000" font-family="sans-serif" font-size="13" font-weight="bold" lengthAdjust="spacing" textLength="7.436" x="130.0364" y="363.6131">5</text><text fill="#000000" font-family="sans-serif" font-size="13" lengthAdjust="spacing" textLength="209.3002" x="141.4724" y="363.6131">S&#233;lectionne la tranche d'&#226;ge voulu</text></g><path d="M10,391.4221 L76.918,391.4221 L76.918,401.1281 L66.918,411.1281 L10,411.1281 L10,391.4221" fill="#EEEEEE" style="stroke:#000000;stroke-width:1.5;"/><rect fill="none" height="51.412" style="stroke:#000000;stroke-width:1.5;" width="467.651" x="10" y="391.4221"/><text fill="#000000" font-family="sans-serif" font-size="13" font-weight="bold" lengthAdjust="spacing" textLength="21.918" x="25" y="406.3191">opt</text><text fill="#000000" font-family="sans-serif" font-size="11" font-weight="bold" lengthAdjust="spacing" textLength="94.5883" x="91.918" y="405.181">[option de genre]</text><g class="message" data-participant-1="usr" data-participant-2="app"><polygon fill="#181818" points="411.7751,430.8341,421.7751,434.8341,411.7751,438.8341,415.7751,434.8341" style="stroke:#181818;stroke-width:1;"/><line style="stroke:#181818;stroke-width:1;" x1="57.0339" x2="417.7751" y1="434.8341" y2="434.8341"/><text fill="#000000" font-family="sans-serif" font-size="13" font-weight="bold" lengthAdjust="spacing" textLength="7.436" x="131.4664" y="429.0251">6</text><text fill="#000000" font-family="sans-serif" font-size="13" lengthAdjust="spacing" textLength="206.4402" x="142.9024" y="429.0251">S&#233;lectionne les genres souhait&#233;es</text></g><path d="M10,456.8341 L76.918,456.8341 L76.918,466.5401 L66.918,476.5401 L10,476.5401 L10,456.8341" fill="#EEEEEE" style="stroke:#000000;stroke-width:1.5;"/><rect fill="none" height="51.412" style="stroke:#000000;stroke-width:1.5;" width="467.651" x="10" y="456.8341"/><text fill="#000000" font-family="sans-serif" font-size="13" font-weight="bold" lengthAdjust="spacing" textLength="21.918" x="25" y="471.7311">opt</text><text fill="#000000" font-family="sans-serif" font-size="11" font-weight="bold" lengthAdjust="spacing" textLength="149.2359" x="91.918" y="470.593">[option de contre d'int&#233;r&#234;t]</text><g class="message" data-participant-1="usr" data-participant-2="app"><polygon fill="#181818" points="411.7751,496.2461,421.7751,500.2461,411.7751,504.2461,415.7751,500.2461" style="stroke:#181818;stroke-width:1;"/><line style="stroke:#181818;stroke-width:1;" x1="57.0339" x2="417.7751" y1="500.2461" y2="500.2461"/><text fill="#000000" font-family="sans-serif" font-size="13" font-weight="bold" lengthAdjust="spacing" textLength="7.436" x="69.0339" y="494.4371">7</text><text fill="#000000" font-family="sans-serif" font-size="13" lengthAdjust="spacing" textLength="331.3052" x="80.4699" y="494.4371">S&#233;lectionne parmis une s&#233;lection les centres d'int&#233;r&#234;ts</text></g><g class="message" data-participant-1="usr" data-participant-2="app"><polygon fill="#181818" points="411.7751,534.9521,421.7751,538.9521,411.7751,542.9521,415.7751,538.9521" style="stroke:#181818;stroke-width:1;"/><line style="stroke:#181818;stroke-width:1;" x1="57.0339" x2="417.7751" y1="538.9521" y2="538.9521"/><text fill="#000000" font-family="sans-serif" font-size="13" font-weight="bold" lengthAdjust="spacing" textLength="7.436" x="188.101" y="533.1431">8</text><text fill="#000000" font-family="sans-serif" font-size="13" lengthAdjust="spacing" textLength="93.1711" x="199.537" y="533.1431">Valide les choix</text></g><g class="message" data-participant-1="app" data-participant-2="usr"><polygon fill="#181818" points="68.0339,566.6582,58.0339,570.6582,68.0339,574.6582,64.0339,570.6582" style="stroke:#181818;stroke-width:1;"/><line style="stroke:#181818;stroke-width:1;" x1="62.0339" x2="422.7751" y1="570.6582" y2="570.6582"/><text fill="#000000" font-family="sans-serif" font-size="13" font-weight="bold" lengthAdjust="spacing" textLength="7.436" x="182.4265" y="564.8492">9</text><text fill="#000000" font-family="sans-serif" font-size="13" lengthAdjust="spacing" textLength="104.5201" x="193.8625" y="564.8492">Affiche les profils</text></g><!--SRC=[ZP5DQWCn38NtFeN89gjU89123b0eX7QlUfGPKSTsBRa_r-aklSPShFAa94q9JGOCW_dUq_CJLasnRf-eE7dccB7W5eHUAaLFToI2FQq2zn4yHJsXq6igQ_q814CA8RqvDrt1x44viA1IBJD0WIh5cKRPSyQeC5lb7DYZSeeJW3axjrp2VHbtnOQpm7Bfe7scXPlRHi32We5FCP9lIIO-USjOZ_WflnvtmM1k6WZp5Fj02eNyGAKTo2LjEFn8cyQapM41gys63O60aAq3vr9Mi6DUq15qB8fMqUMfU6316YnsGzR8iI5n5Bi_xc4-VlPNUMinPulPJGfuJJNKCuOznNA5doMRI059TK3MSKVdyjaIsakwEKT3olYb5xrj_rjRQxLVETnF4_rKY_nssyyyv_c8WRjzKZyaVlztTGRj5opV]--></g></svg>