<svg xmlns="http://www.w3.org/2000/svg" xmlns:xlink="http://www.w3.org/1999/xlink" contentStyleType="text/css" data-diagram-type="SEQUENCE" height="577px" preserveAspectRatio="none" style="width:504px;height:577px;background:#FFFFFF;" version="1.1" viewBox="0 0 504 577" width="504px" zoomAndPan="magnify"><defs/><g><rect fill="none" height="127.8241" style="stroke:#000000;stroke-width:1.5;" width="477.691" x="10" y="264.598"/><rect fill="none" height="51.412" style="stroke:#000000;stroke-width:1.5;" width="333.0262" x="10" y="451.1281"/><g><title>Utilisateur</title><rect fill="#000000" fill-opacity="0.00000" height="462.4722" width="8" x="53.0339" y="57.0679"/><line style="stroke:#181818;stroke-width:0.5;stroke-dasharray:5,5;" x1="57" x2="57" y1="57.0679" y2="519.5401"/></g><g><title>Application</title><rect fill="#000000" fill-opacity="0.00000" height="462.4722" width="8" x="233.55" y="57.0679"/><line style="stroke:#181818;stroke-width:0.5;stroke-dasharray:5,5;" x1="236.6742" x2="236.6742" y1="57.0679" y2="519.5401"/></g><g><title>serveur mail</title><rect fill="#000000" fill-opacity="0.00000" height="462.4722" width="8" x="429.8742" y="57.0679"/><line style="stroke:#181818;stroke-width:0.5;stroke-dasharray:5,5;" x1="433.0573" x2="433.0573" y1="57.0679" y2="519.5401"/></g><g class="participant participant-head" data-participant="u"><text fill="#000000" font-family="sans-serif" font-size="14" lengthAdjust="spacing" textLength="68.0677" x="20" y="52.9659">Utilisateur</text><ellipse cx="57.0339" cy="10" fill="#E2E2F0" rx="4.5" ry="4.5" style="stroke:#181818;stroke-width:0.5;"/><path d="M44.5339,16.5 L44.5339,21.5 L54.0339,21.5 L54.0339,23.7574 L44.5339,33.2574 L48.7765,37.5 L57.0339,29.2426 L65.2912,37.5 L69.5339,33.2574 L60.0339,23.7574 L60.0339,21.5 L69.5339,21.5 L69.5339,16.5 L44.5339,16.5" fill="#E2E2F0" style="stroke:#181818;stroke-width:0.5;"/></g><g class="participant participant-tail" data-participant="u"><text fill="#000000" font-family="sans-serif" font-size="14" lengthAdjust="spacing" textLength="68.0677" x="20" y="533.5061">Utilisateur</text><ellipse cx="57.0339" cy="542.608" fill="#E2E2F0" rx="4.5" ry="4.5" style="stroke:#181818;stroke-width:0.5;"/><path d="M44.5339,549.108 L44.5339,554.108 L54.0339,554.108 L54.0339,556.3654 L44.5339,565.8654 L48.7765,570.108 L57.0339,561.8507 L65.2912,570.108 L69.5339,565.8654 L60.0339,556.3654 L60.0339,554.108 L69.5339,554.108 L69.5339,549.108 L44.5339,549.108" fill="#E2E2F0" style="stroke:#181818;stroke-width:0.5;"/></g><g class="participant participant-head" data-participant="app"><rect fill="#E2E2F0" height="33.0679" rx="2.5" ry="2.5" style="stroke:#181818;stroke-width:0.5;" width="87.7517" x="193.6742" y="23"/><text fill="#000000" font-family="sans-serif" font-size="14" lengthAdjust="spacing" textLength="73.7517" x="200.6742" y="44.9659">Application</text></g><g class="participant participant-tail" data-participant="app"><rect fill="#E2E2F0" height="33.0679" rx="2.5" ry="2.5" style="stroke:#181818;stroke-width:0.5;" width="87.7517" x="193.6742" y="518.5401"/><text fill="#000000" font-family="sans-serif" font-size="14" lengthAdjust="spacing" textLength="73.7517" x="200.6742" y="540.5061">Application</text></g><g class="participant participant-head" data-participant="sm"><text fill="#000000" font-family="sans-serif" font-size="14" lengthAdjust="spacing" textLength="81.6337" x="390.0573" y="52.9659">serveur mail</text><ellipse cx="433.8742" cy="10" fill="#E2E2F0" rx="4.5" ry="4.5" style="stroke:#181818;stroke-width:0.5;"/><path d="M421.3742,16.5 L421.3742,21.5 L430.8742,21.5 L430.8742,23.7574 L421.3742,33.2574 L425.6168,37.5 L433.8742,29.2426 L442.1315,37.5 L446.3742,33.2574 L436.8742,23.7574 L436.8742,21.5 L446.3742,21.5 L446.3742,16.5 L421.3742,16.5" fill="#E2E2F0" style="stroke:#181818;stroke-width:0.5;"/></g><g class="participant participant-tail" data-participant="sm"><text fill="#000000" font-family="sans-serif" font-size="14" lengthAdjust="spacing" textLength="81.6337" x="390.0573" y="533.5061">serveur mail</text><ellipse cx="433.8742" cy="542.608" fill="#E2E2F0" rx="4.5" ry="4.5" style="stroke:#181818;stroke-width:0.5;"/><path d="M421.3742,549.108 L421.3742,554.108 L430.8742,554.108 L430.8742,556.3654 L421.3742,565.8654 L425.6168,570.108 L433.8742,561.8507 L442.1315,570.108 L446.3742,565.8654 L436.8742,556.3654 L436.8742,554.108 L446.3742,554.108 L446.3742,549.108 L421.3742,549.108" fill="#E2E2F0" style="stroke:#181818;stroke-width:0.5;"/></g><rect fill="#EEEEEE" height="3" style="stroke:#EEEEEE;stroke-width:1;" width="497.691" x="0" y="88.9209"/><line style="stroke:#000000;stroke-width:1;" x1="0" x2="497.691" y1="88.9209" y2="88.9209"/><line style="stroke:#000000;stroke-width:1;" x1="0" x2="497.691" y1="91.9209" y2="91.9209"/><rect fill="#EEEEEE" height="25.706" style="stroke:#000000;stroke-width:2;" width="79.91" x="208.8905" y="77.0679"/><text fill="#000000" font-family="sans-serif" font-size="13" font-weight="bold" lengthAdjust="spacing" textLength="62.53" x="214.8905" y="94.9649">Pr&#233;requis</text><g class="message" data-participant-1="u" data-participant-2="app"><polygon fill="#181818" points="225.55,132.4799,235.55,136.4799,225.55,140.4799,229.55,136.4799" style="stroke:#181818;stroke-width:1;"/><line style="stroke:#181818;stroke-width:1;" x1="57.0339" x2="231.55" y1="136.4799" y2="136.4799"/><text fill="#000000" font-family="sans-serif" font-size="13" font-weight="bold" lengthAdjust="spacing" textLength="7.436" x="112.1224" y="130.6709">1</text><text fill="#000000" font-family="sans-serif" font-size="13" lengthAdjust="spacing" textLength="58.9031" x="123.5584" y="130.6709">est inscrit</text></g><polygon fill="#FEFFDD" points="29,149.4799,461,149.4799,471,161.4799,461,174.4799,29,174.4799,19,161.4799,29,149.4799" style="stroke:#181818;stroke-width:0.5;"/><text fill="#000000" font-family="sans-serif" font-size="13" lengthAdjust="spacing" textLength="255.2552" x="83.7683" y="167.377">Processus 1 d&#233;crit dans le cas d'utilisation</text><text fill="#000000" font-family="sans-serif" font-size="13" lengthAdjust="spacing" text-decoration="underline" textLength="64.5191" x="342.4036" y="167.377">inscription</text><rect fill="#EEEEEE" height="3" style="stroke:#EEEEEE;stroke-width:1;" width="497.691" x="0" y="202.039"/><line style="stroke:#000000;stroke-width:1;" x1="0" x2="497.691" y1="202.039" y2="202.039"/><line style="stroke:#000000;stroke-width:1;" x1="0" x2="497.691" y1="205.039" y2="205.039"/><rect fill="#EEEEEE" height="25.706" style="stroke:#000000;stroke-width:2;" width="81.782" x="207.9545" y="190.186"/><text fill="#000000" font-family="sans-serif" font-size="13" font-weight="bold" lengthAdjust="spacing" textLength="64.402" x="213.9545" y="208.083">Processus</text><g class="message" data-participant-1="app" data-participant-2="u"><polygon fill="#181818" points="68.0339,245.598,58.0339,249.598,68.0339,253.598,64.0339,249.598" style="stroke:#181818;stroke-width:1;"/><line style="stroke:#181818;stroke-width:1;" x1="62.0339" x2="236.55" y1="249.598" y2="249.598"/><text fill="#000000" font-family="sans-serif" font-size="13" font-weight="bold" lengthAdjust="spacing" textLength="7.436" x="85.4529" y="243.789">2</text><text fill="#000000" font-family="sans-serif" font-size="13" lengthAdjust="spacing" textLength="112.2421" x="96.8889" y="243.789">re&#231;oit un message</text></g><path d="M10,264.598 L72.459,264.598 L72.459,274.304 L62.459,284.304 L10,284.304 L10,264.598" fill="#EEEEEE" style="stroke:#000000;stroke-width:1.5;"/><rect fill="none" height="127.8241" style="stroke:#000000;stroke-width:1.5;" width="477.691" x="10" y="264.598"/><text fill="#000000" font-family="sans-serif" font-size="13" font-weight="bold" lengthAdjust="spacing" textLength="17.459" x="25" y="279.495">alt</text><text fill="#000000" font-family="sans-serif" font-size="11" font-weight="bold" lengthAdjust="spacing" textLength="112.7822" x="87.459" y="278.3569">[option mail activ&#233;e]</text><g class="message" data-participant-1="app" data-participant-2="sm"><polygon fill="#181818" points="421.8742,304.01,431.8742,308.01,421.8742,312.01,425.8742,308.01" style="stroke:#181818;stroke-width:1;"/><line style="stroke:#181818;stroke-width:1;" x1="237.55" x2="427.8742" y1="308.01" y2="308.01"/><text fill="#000000" font-family="sans-serif" font-size="13" font-weight="bold" lengthAdjust="spacing" textLength="7.436" x="249.55" y="302.201">3</text><text fill="#000000" font-family="sans-serif" font-size="13" lengthAdjust="spacing" textLength="160.8882" x="260.986" y="302.201">demande l'envoi d'un mail</text></g><g class="message" data-participant-1="sm" data-participant-2="u"><polygon fill="#181818" points="68.0339,335.716,58.0339,339.716,68.0339,343.716,64.0339,339.716" style="stroke:#181818;stroke-width:1;"/><line style="stroke:#181818;stroke-width:1;" x1="62.0339" x2="432.8742" y1="339.716" y2="339.716"/><text fill="#000000" font-family="sans-serif" font-size="13" font-weight="bold" lengthAdjust="spacing" textLength="7.436" x="194.9835" y="333.907">4</text><text fill="#000000" font-family="sans-serif" font-size="13" lengthAdjust="spacing" textLength="89.5051" x="206.4195" y="333.907">envoie un mail</text></g><g class="message" data-participant-1="u" data-participant-2="u"><line style="stroke:#181818;stroke-width:1;" x1="57.0339" x2="99.0339" y1="371.4221" y2="371.4221"/><line style="stroke:#181818;stroke-width:1;" x1="99.0339" x2="99.0339" y1="371.4221" y2="384.4221"/><line style="stroke:#181818;stroke-width:1;" x1="58.0339" x2="99.0339" y1="384.4221" y2="384.4221"/><polygon fill="#181818" points="68.0339,380.4221,58.0339,384.4221,68.0339,388.4221,64.0339,384.4221" style="stroke:#181818;stroke-width:1;"/><text fill="#000000" font-family="sans-serif" font-size="13" font-weight="bold" lengthAdjust="spacing" textLength="7.436" x="64.0339" y="365.6131">5</text><text fill="#000000" font-family="sans-serif" font-size="13" lengthAdjust="spacing" textLength="132.8341" x="75.4699" y="365.6131">consulte sa bo&#238;te mail</text></g><g class="message" data-participant-1="u" data-participant-2="u"><line style="stroke:#181818;stroke-width:1;" x1="57.0339" x2="99.0339" y1="423.1281" y2="423.1281"/><line style="stroke:#181818;stroke-width:1;" x1="99.0339" x2="99.0339" y1="423.1281" y2="436.1281"/><line style="stroke:#181818;stroke-width:1;" x1="58.0339" x2="99.0339" y1="436.1281" y2="436.1281"/><polygon fill="#181818" points="68.0339,432.1281,58.0339,436.1281,68.0339,440.1281,64.0339,436.1281" style="stroke:#181818;stroke-width:1;"/><text fill="#000000" font-family="sans-serif" font-size="13" font-weight="bold" lengthAdjust="spacing" textLength="7.436" x="64.0339" y="417.3191">6</text><text fill="#000000" font-family="sans-serif" font-size="13" lengthAdjust="spacing" textLength="123.7861" x="75.4699" y="417.3191">consulte le message</text></g><path d="M10,451.1281 L72.459,451.1281 L72.459,460.8341 L62.459,470.8341 L10,470.8341 L10,451.1281" fill="#EEEEEE" style="stroke:#000000;stroke-width:1.5;"/><rect fill="none" height="51.412" style="stroke:#000000;stroke-width:1.5;" width="333.0262" x="10" y="451.1281"/><text fill="#000000" font-family="sans-serif" font-size="13" font-weight="bold" lengthAdjust="spacing" textLength="17.459" x="25" y="466.0251">alt</text><text fill="#000000" font-family="sans-serif" font-size="11" font-weight="bold" lengthAdjust="spacing" textLength="250.5672" x="87.459" y="464.887">[premier message re&#231;u d'un autre utilisateur]</text><g class="message" data-participant-1="u" data-participant-2="app"><polygon fill="#181818" points="225.55,490.5401,235.55,494.5401,225.55,498.5401,229.55,494.5401" style="stroke:#181818;stroke-width:1;"/><line style="stroke:#181818;stroke-width:1;" x1="57.0339" x2="231.55" y1="494.5401" y2="494.5401"/><text fill="#000000" font-family="sans-serif" font-size="13" font-weight="bold" lengthAdjust="spacing" textLength="7.436" x="69.0339" y="488.7311">7</text><text fill="#000000" font-family="sans-serif" font-size="13" lengthAdjust="spacing" textLength="145.0801" x="80.4699" y="488.7311">peut choisir de matcher</text></g><!--SRC=[PL5BQiD03DtFAKGsMNNHRS257A0GA5qRPInYqVbrD9FG4vLiUWbVhFBOQGBrolPxUXz9FZWapEX1wBDIiFHA8dYYlUDJ04kXK3Ronq9ROduhNuvWZCx5Yy5QOgZ-g3JJKDYy5tOiMAZc3Q10DJfSs7B2K62pJycnnS8nD1XJkaqAvRDEWKTs3HDlJDV18K_Nh05PeEjCXQUNUMe790KuYCrSp1XY8GsOeuW1VGuvMYrJ1PvXcAup2GOC0XhUglQmhMjGJG9zlmYb-Qll3OK1PiN5_gQaxcey-zSTP9g-euhM07xPca5N83Q9rc7U5v-dAxL0wwJu7GpaCGm4RalX77dEiamqelZLeO44ZrXT8Hk3LAUD1U4OfnzzQnpDRVvnjF5ZmfJ9C-NRlrQaBXdqd5aDxnUycxQD9we5x1XPE6iBzInsrDkhxIy0]--></g></svg>