<svg xmlns="http://www.w3.org/2000/svg" xmlns:xlink="http://www.w3.org/1999/xlink" contentStyleType="text/css" data-diagram-type="SEQUENCE" height="692px" preserveAspectRatio="none" style="width:674px;height:692px;background:#FFFFFF;" version="1.1" viewBox="0 0 674 692" width="674px" zoomAndPan="magnify"><defs/><g><rect fill="none" height="83.118" style="stroke:#000000;stroke-width:1.5;" width="419.577" x="10" y="260.598"/><rect fill="none" height="83.118" style="stroke:#000000;stroke-width:1.5;" width="419.577" x="10" y="357.716"/><rect fill="none" height="163.5301" style="stroke:#000000;stroke-width:1.5;" width="648.0114" x="9" y="454.8341"/><g><title>Utilisateur</title><rect fill="#000000" fill-opacity="0.00000" height="578.2963" width="8" x="53.0339" y="57.0679"/><line style="stroke:#181818;stroke-width:0.5;stroke-dasharray:5,5;" x1="57" x2="57" y1="57.0679" y2="635.3642"/></g><g><title>Application</title><rect fill="#000000" fill-opacity="0.00000" height="578.2963" width="8" x="371.7011" y="57.0679"/><line style="stroke:#181818;stroke-width:0.5;stroke-dasharray:5,5;" x1="374.8253" x2="374.8253" y1="57.0679" y2="635.3642"/></g><g class="participant participant-head" data-participant="usr"><text fill="#000000" font-family="sans-serif" font-size="14" lengthAdjust="spacing" textLength="68.0677" x="20" y="52.9659">Utilisateur</text><ellipse cx="57.0339" cy="10" fill="#E2E2F0" rx="4.5" ry="4.5" style="stroke:#181818;stroke-width:0.5;"/><path d="M44.5339,16.5 L44.5339,21.5 L54.0339,21.5 L54.0339,23.7574 L44.5339,33.2574 L48.7765,37.5 L57.0339,29.2426 L65.2912,37.5 L69.5339,33.2574 L60.0339,23.7574 L60.0339,21.5 L69.5339,21.5 L69.5339,16.5 L44.5339,16.5" fill="#E2E2F0" style="stroke:#181818;stroke-width:0.5;"/></g><g class="participant participant-tail" data-participant="usr"><text fill="#000000" font-family="sans-serif" font-size="14" lengthAdjust="spacing" textLength="68.0677" x="20" y="649.3301">Utilisateur</text><ellipse cx="57.0339" cy="658.4321" fill="#E2E2F0" rx="4.5" ry="4.5" style="stroke:#181818;stroke-width:0.5;"/><path d="M44.5339,664.9321 L44.5339,669.9321 L54.0339,669.9321 L54.0339,672.1895 L44.5339,681.6895 L48.7765,685.9321 L57.0339,677.6747 L65.2912,685.9321 L69.5339,681.6895 L60.0339,672.1895 L60.0339,669.9321 L69.5339,669.9321 L69.5339,664.9321 L44.5339,664.9321" fill="#E2E2F0" style="stroke:#181818;stroke-width:0.5;"/></g><g class="participant participant-head" data-participant="app"><rect fill="#E2E2F0" height="33.0679" rx="2.5" ry="2.5" style="stroke:#181818;stroke-width:0.5;" width="87.7517" x="331.8253" y="23"/><text fill="#000000" font-family="sans-serif" font-size="14" lengthAdjust="spacing" textLength="73.7517" x="338.8253" y="44.9659">Application</text></g><g class="participant participant-tail" data-participant="app"><rect fill="#E2E2F0" height="33.0679" rx="2.5" ry="2.5" style="stroke:#181818;stroke-width:0.5;" width="87.7517" x="331.8253" y="634.3642"/><text fill="#000000" font-family="sans-serif" font-size="14" lengthAdjust="spacing" textLength="73.7517" x="338.8253" y="656.3301">Application</text></g><rect fill="#EEEEEE" height="3" style="stroke:#EEEEEE;stroke-width:1;" width="667.0114" x="0" y="88.9209"/><line style="stroke:#000000;stroke-width:1;" x1="0" x2="667.0114" y1="88.9209" y2="88.9209"/><line style="stroke:#000000;stroke-width:1;" x1="0" x2="667.0114" y1="91.9209" y2="91.9209"/><rect fill="#EEEEEE" height="25.706" style="stroke:#000000;stroke-width:2;" width="79.91" x="293.5507" y="77.0679"/><text fill="#000000" font-family="sans-serif" font-size="13" font-weight="bold" lengthAdjust="spacing" textLength="62.53" x="299.5507" y="94.9649">Pr&#233;requis</text><g class="message" data-participant-1="usr" data-participant-2="app"><polygon fill="#181818" points="363.7011,132.4799,373.7011,136.4799,363.7011,140.4799,367.7011,136.4799" style="stroke:#181818;stroke-width:1;"/><line style="stroke:#181818;stroke-width:1;" x1="57.0339" x2="369.7011" y1="136.4799" y2="136.4799"/><text fill="#000000" font-family="sans-serif" font-size="13" font-weight="bold" lengthAdjust="spacing" textLength="7.436" x="171.6105" y="130.6709">1</text><text fill="#000000" font-family="sans-serif" font-size="13" lengthAdjust="spacing" textLength="78.0781" x="183.0465" y="130.6709">se connecter</text></g><rect fill="#EEEEEE" height="3" style="stroke:#EEEEEE;stroke-width:1;" width="667.0114" x="0" y="166.333"/><line style="stroke:#000000;stroke-width:1;" x1="0" x2="667.0114" y1="166.333" y2="166.333"/><line style="stroke:#000000;stroke-width:1;" x1="0" x2="667.0114" y1="169.333" y2="169.333"/><rect fill="#EEEEEE" height="25.706" style="stroke:#000000;stroke-width:2;" width="81.782" x="292.6147" y="154.4799"/><text fill="#000000" font-family="sans-serif" font-size="13" font-weight="bold" lengthAdjust="spacing" textLength="64.402" x="298.6147" y="172.377">Processus</text><g class="message" data-participant-1="usr" data-participant-2="app"><polygon fill="#181818" points="363.7011,209.892,373.7011,213.892,363.7011,217.892,367.7011,213.892" style="stroke:#181818;stroke-width:1;"/><line style="stroke:#181818;stroke-width:1;" x1="57.0339" x2="369.7011" y1="213.892" y2="213.892"/><text fill="#000000" font-family="sans-serif" font-size="13" font-weight="bold" lengthAdjust="spacing" textLength="7.436" x="69.0339" y="208.083">2</text><text fill="#000000" font-family="sans-serif" font-size="13" lengthAdjust="spacing" textLength="283.2313" x="80.4699" y="208.083">S&#233;lectionne l'onglet recommendation de profil</text></g><g class="message" data-participant-1="app" data-participant-2="usr"><polygon fill="#181818" points="68.0339,241.598,58.0339,245.598,68.0339,249.598,64.0339,245.598" style="stroke:#181818;stroke-width:1;"/><line style="stroke:#181818;stroke-width:1;" x1="62.0339" x2="374.7011" y1="245.598" y2="245.598"/><text fill="#000000" font-family="sans-serif" font-size="13" font-weight="bold" lengthAdjust="spacing" textLength="7.436" x="72.1604" y="239.789">3</text><text fill="#000000" font-family="sans-serif" font-size="13" lengthAdjust="spacing" textLength="276.9783" x="83.5964" y="239.789">Affiche un  profil selon le profil de l'utilisateur</text></g><path d="M10,260.598 L76.918,260.598 L76.918,270.304 L66.918,280.304 L10,280.304 L10,260.598" fill="#EEEEEE" style="stroke:#000000;stroke-width:1.5;"/><rect fill="none" height="83.118" style="stroke:#000000;stroke-width:1.5;" width="419.577" x="10" y="260.598"/><text fill="#000000" font-family="sans-serif" font-size="13" font-weight="bold" lengthAdjust="spacing" textLength="21.918" x="25" y="275.495">opt</text><text fill="#000000" font-family="sans-serif" font-size="11" font-weight="bold" lengthAdjust="spacing" textLength="48.2347" x="91.918" y="274.3569">[suivant]</text><g class="message" data-participant-1="usr" data-participant-2="app"><polygon fill="#181818" points="363.7011,300.01,373.7011,304.01,363.7011,308.01,367.7011,304.01" style="stroke:#181818;stroke-width:1;"/><line style="stroke:#181818;stroke-width:1;" x1="57.0339" x2="369.7011" y1="304.01" y2="304.01"/><text fill="#000000" font-family="sans-serif" font-size="13" font-weight="bold" lengthAdjust="spacing" textLength="7.436" x="127.5794" y="298.201">4</text><text fill="#000000" font-family="sans-serif" font-size="13" lengthAdjust="spacing" textLength="166.1402" x="139.0154" y="298.201">Option voir le profil suivant</text></g><g class="message" data-participant-1="app" data-participant-2="usr"><polygon fill="#181818" points="68.0339,331.716,58.0339,335.716,68.0339,339.716,64.0339,335.716" style="stroke:#181818;stroke-width:1;"/><line style="stroke:#181818;stroke-width:1;" x1="62.0339" x2="374.7011" y1="335.716" y2="335.716"/><text fill="#000000" font-family="sans-serif" font-size="13" font-weight="bold" lengthAdjust="spacing" textLength="7.436" x="69.8074" y="329.907">5</text><text fill="#000000" font-family="sans-serif" font-size="13" lengthAdjust="spacing" textLength="281.6843" x="81.2434" y="329.907">Affiche un autre profil selon les m&#234;me crit&#232;res</text></g><path d="M10,357.716 L76.918,357.716 L76.918,367.4221 L66.918,377.4221 L10,377.4221 L10,357.716" fill="#EEEEEE" style="stroke:#000000;stroke-width:1.5;"/><rect fill="none" height="83.118" style="stroke:#000000;stroke-width:1.5;" width="419.577" x="10" y="357.716"/><text fill="#000000" font-family="sans-serif" font-size="13" font-weight="bold" lengthAdjust="spacing" textLength="21.918" x="25" y="372.6131">opt</text><text fill="#000000" font-family="sans-serif" font-size="11" font-weight="bold" lengthAdjust="spacing" textLength="81.0694" x="91.918" y="371.475">[plus de d&#233;tail]</text><g class="message" data-participant-1="usr" data-participant-2="app"><polygon fill="#181818" points="363.7011,397.1281,373.7011,401.1281,363.7011,405.1281,367.7011,401.1281" style="stroke:#181818;stroke-width:1;"/><line style="stroke:#181818;stroke-width:1;" x1="57.0339" x2="369.7011" y1="401.1281" y2="401.1281"/><text fill="#000000" font-family="sans-serif" font-size="13" font-weight="bold" lengthAdjust="spacing" textLength="7.436" x="155.0745" y="395.3191">6</text><text fill="#000000" font-family="sans-serif" font-size="13" lengthAdjust="spacing" textLength="111.1501" x="166.5105" y="395.3191">Clique sur le profil</text></g><g class="message" data-participant-1="app" data-participant-2="usr"><polygon fill="#181818" points="68.0339,428.8341,58.0339,432.8341,68.0339,436.8341,64.0339,432.8341" style="stroke:#181818;stroke-width:1;"/><line style="stroke:#181818;stroke-width:1;" x1="62.0339" x2="374.7011" y1="432.8341" y2="432.8341"/><text fill="#000000" font-family="sans-serif" font-size="13" font-weight="bold" lengthAdjust="spacing" textLength="7.436" x="136.5429" y="427.0251">7</text><text fill="#000000" font-family="sans-serif" font-size="13" lengthAdjust="spacing" textLength="148.2131" x="147.979" y="427.0251">Affiche le profil en d&#233;tail</text></g><path d="M9,454.8341 L75.918,454.8341 L75.918,464.5401 L65.918,474.5401 L9,474.5401 L9,454.8341" fill="#EEEEEE" style="stroke:#000000;stroke-width:1.5;"/><rect fill="none" height="163.5301" style="stroke:#000000;stroke-width:1.5;" width="648.0114" x="9" y="454.8341"/><text fill="#000000" font-family="sans-serif" font-size="13" font-weight="bold" lengthAdjust="spacing" textLength="21.918" x="24" y="469.7311">opt</text><text fill="#000000" font-family="sans-serif" font-size="11" font-weight="bold" lengthAdjust="spacing" textLength="63.0625" x="90.918" y="468.593">[int&#233;resser]</text><g class="message" data-participant-1="usr" data-participant-2="app"><polygon fill="#181818" points="363.7011,494.2461,373.7011,498.2461,363.7011,502.2461,367.7011,498.2461" style="stroke:#181818;stroke-width:1;"/><line style="stroke:#181818;stroke-width:1;" x1="57.0339" x2="369.7011" y1="498.2461" y2="498.2461"/><text fill="#000000" font-family="sans-serif" font-size="13" font-weight="bold" lengthAdjust="spacing" textLength="7.436" x="91.9269" y="492.4371">8</text><text fill="#000000" font-family="sans-serif" font-size="13" lengthAdjust="spacing" textLength="237.4452" x="103.3629" y="492.4371">Clique sur option "int&#233;resser" / "aimer"</text></g><g class="message" data-participant-1="app" data-participant-2="usr"><polygon fill="#181818" points="68.0339,525.9521,58.0339,529.9521,68.0339,533.9521,64.0339,529.9521" style="stroke:#181818;stroke-width:1;"/><line style="stroke:#181818;stroke-width:1;" x1="62.0339" x2="374.7011" y1="529.9521" y2="529.9521"/><text fill="#000000" font-family="sans-serif" font-size="13" font-weight="bold" lengthAdjust="spacing" textLength="7.436" x="148.347" y="524.1431">9</text><text fill="#000000" font-family="sans-serif" font-size="13" lengthAdjust="spacing" textLength="124.6051" x="159.783" y="524.1431">Confirme la d&#233;cision</text></g><g class="message" data-participant-1="app" data-participant-2="app"><line style="stroke:#181818;stroke-width:1;" x1="375.7011" x2="417.7011" y1="561.6582" y2="561.6582"/><line style="stroke:#181818;stroke-width:1;" x1="417.7011" x2="417.7011" y1="561.6582" y2="574.6582"/><line style="stroke:#181818;stroke-width:1;" x1="376.7011" x2="417.7011" y1="574.6582" y2="574.6582"/><polygon fill="#181818" points="386.7011,570.6582,376.7011,574.6582,386.7011,578.6582,382.7011,574.6582" style="stroke:#181818;stroke-width:1;"/><text fill="#000000" font-family="sans-serif" font-size="13" font-weight="bold" lengthAdjust="spacing" textLength="14.872" x="382.7011" y="555.8492">10</text><text fill="#000000" font-family="sans-serif" font-size="13" lengthAdjust="spacing" textLength="243.4382" x="401.5732" y="555.8492">Notifie l'utilisateur qui &#224; re&#231;us "l'int&#233;r&#234;t"</text></g><polygon fill="#FEFFDD" points="29,587.6582,403,587.6582,413,599.6582,403,612.6582,29,612.6582,19,599.6582,29,587.6582" style="stroke:#181818;stroke-width:0.5;"/><text fill="#000000" font-family="sans-serif" font-size="13" lengthAdjust="spacing" textLength="325.6503" x="53.4634" y="605.5552">Voir le cas d'usage Aimer un profil pour plus de d&#233;tail</text><!--SRC=[VLFDRjim3BxhAGXVSYfsBv01GS_T1XJRNLFeX1WjgXBLOM-psvg-Xb-ibECqSP7L9q7u_lXHzbKbrk4dPbT-KKm- -m4AFbQC0U-n5B_33TCkGi2e2vGFAlb1_p32NfZbjtFJ5NJVbPYALwov0r-WbkoCenGe-QZGRL9Y2bv9uWJmAJctNiEtF1wocLE1zTf1-umBDvyR0cuj60I94KDBCk4bMCPwXY_n3-E13KoD0xoIk6DKo1Xa631kfm2mHKXPUk9PeL5DeGdTmgRlAUmHQeGPPI7OM7nYDJwlwdbavoGfb4fFDkkrL5_JvFiab2zabeJ_XV1LCxvFKc0ONmRh9fEEpncBi-6c58cj6mku7G_gtoPSfBbZicsR_KMOZqAS4sDyqptvKTIsmL9iFnzxoR64xeBHmIVeF0rskXRWJc9FsSPattm35HDO0eykNqIfftTR0NjLCFwrvO__h9EELqVdyKLFRlieYlQiivGoN_sOTnJiaMvNjVqDi6a9soxc6fAO-lMYhHPeegsVLm00]--></g></svg>