<svg xmlns="http://www.w3.org/2000/svg" xmlns:xlink="http://www.w3.org/1999/xlink" contentStyleType="text/css" data-diagram-type="CLASS" height="598px" preserveAspectRatio="none" style="width:1510px;height:598px;background:#FFFFFF;" version="1.1" viewBox="0 0 1510 598" width="1510px" zoomAndPan="magnify"><defs/><g><!--class usr--><g class="entity" data-entity="usr" data-source-line="4" data-uid="ent0002" id="entity_usr"><rect fill="#F1F1F1" height="314.9508" rx="2.5" ry="2.5" style="stroke:#181818;stroke-width:0.5;" width="428.3865" x="756" y="122.5"/><ellipse cx="931.9094" cy="138.5" fill="#ADD1B2" rx="11" ry="11" style="stroke:#181818;stroke-width:1;"/><path d="M934.8781,144.1406 Q934.3,144.4375 933.6594,144.5781 Q933.0187,144.7344 932.3156,144.7344 Q929.8156,144.7344 928.4875,143.0938 Q927.175,141.4375 927.175,138.3125 Q927.175,135.1875 928.4875,133.5313 Q929.8156,131.875 932.3156,131.875 Q933.0187,131.875 933.6594,132.0313 Q934.3156,132.1875 934.8781,132.4844 L934.8781,135.2031 Q934.2531,134.625 933.6594,134.3594 Q933.0656,134.0781 932.4406,134.0781 Q931.0969,134.0781 930.4094,135.1563 Q929.7219,136.2188 929.7219,138.3125 Q929.7219,140.4063 930.4094,141.4844 Q931.0969,142.5469 932.4406,142.5469 Q933.0656,142.5469 933.6594,142.2813 Q934.2531,142 934.8781,141.4219 L934.8781,144.1406 Z " fill="#000000"/><text fill="#000000" font-family="sans-serif" font-size="14" lengthAdjust="spacing" textLength="68.0677" x="952.4094" y="143.932">Utilisateur</text><line style="stroke:#181818;stroke-width:0.5;" x1="757" x2="1183.3865" y1="154.5" y2="154.5"/><rect fill="none" height="6" style="stroke:#C82930;stroke-width:1;" width="6" x="764" y="166.534"/><text fill="#000000" font-family="sans-serif" font-size="14" lengthAdjust="spacing" textLength="74.2837" x="776" y="173.4659">age : entier</text><rect fill="none" height="6" style="stroke:#C82930;stroke-width:1;" width="6" x="764" y="185.6019"/><text fill="#000000" font-family="sans-serif" font-size="14" lengthAdjust="spacing" textLength="165.6053" x="776" y="192.5339">ville : chaine de caract&#232;re</text><rect fill="none" height="6" style="stroke:#C82930;stroke-width:1;" width="6" x="764" y="204.6698"/><text fill="#000000" font-family="sans-serif" font-size="14" lengthAdjust="spacing" textLength="211.4692" x="776" y="211.6018">biographie : chaine de caract&#232;re</text><rect fill="none" height="6" style="stroke:#C82930;stroke-width:1;" width="6" x="764" y="223.7377"/><text fill="#000000" font-family="sans-serif" font-size="14" lengthAdjust="spacing" textLength="264.431" x="776" y="230.6697">interet : tableaux de chaine de caract&#232;re</text><line style="stroke:#181818;stroke-width:0.5;" x1="757" x2="1183.3865" y1="238.7717" y2="238.7717"/><ellipse cx="767" cy="253.8056" fill="#84BE84" rx="3" ry="3" style="stroke:#038048;stroke-width:1;"/><text fill="#000000" font-family="sans-serif" font-size="14" lengthAdjust="spacing" textLength="112.1536" x="776" y="257.7376">configurerProfil()</text><ellipse cx="767" cy="272.8735" fill="#84BE84" rx="3" ry="3" style="stroke:#038048;stroke-width:1;"/><text fill="#000000" font-family="sans-serif" font-size="14" lengthAdjust="spacing" textLength="139.3134" x="776" y="276.8055">configurerAffichage()</text><ellipse cx="767" cy="291.9415" fill="#84BE84" rx="3" ry="3" style="stroke:#038048;stroke-width:1;"/><text fill="#000000" font-family="sans-serif" font-size="14" lengthAdjust="spacing" textLength="114.9395" x="776" y="295.8734">rechercherProfil()</text><ellipse cx="767" cy="311.0094" fill="#84BE84" rx="3" ry="3" style="stroke:#038048;stroke-width:1;"/><text fill="#000000" font-family="sans-serif" font-size="14" lengthAdjust="spacing" textLength="173.6273" x="776" y="314.9414">consulterRecomendation()</text><ellipse cx="767" cy="330.0773" fill="#84BE84" rx="3" ry="3" style="stroke:#038048;stroke-width:1;"/><text fill="#000000" font-family="sans-serif" font-size="14" lengthAdjust="spacing" textLength="402.3865" x="776" y="334.0093">cr&#233;erListeRecomendation(Crit&#232;res ... c) : Tableau d'utillisateur</text><ellipse cx="767" cy="349.1452" fill="#84BE84" rx="3" ry="3" style="stroke:#038048;stroke-width:1;"/><text fill="#000000" font-family="sans-serif" font-size="14" lengthAdjust="spacing" textLength="146.5094" x="776" y="353.0772">consulterNotification()</text><ellipse cx="767" cy="368.2131" fill="#84BE84" rx="3" ry="3" style="stroke:#038048;stroke-width:1;"/><text fill="#000000" font-family="sans-serif" font-size="14" lengthAdjust="spacing" textLength="61.1238" x="776" y="372.1451">signaler()</text><ellipse cx="767" cy="387.281" fill="#84BE84" rx="3" ry="3" style="stroke:#038048;stroke-width:1;"/><text fill="#000000" font-family="sans-serif" font-size="14" lengthAdjust="spacing" textLength="81.3957" x="776" y="391.213">aimerProfil()</text><ellipse cx="767" cy="406.349" fill="#84BE84" rx="3" ry="3" style="stroke:#038048;stroke-width:1;"/><text fill="#000000" font-family="sans-serif" font-size="14" lengthAdjust="spacing" textLength="94.6396" x="776" y="410.2809">accederProfil()</text><ellipse cx="767" cy="425.4169" fill="#84BE84" rx="3" ry="3" style="stroke:#038048;stroke-width:1;"/><text fill="#000000" font-family="sans-serif" font-size="14" lengthAdjust="spacing" textLength="96.3896" x="776" y="429.3489">ajouterMedia()</text></g><!--class cp--><g class="entity" data-entity="cp" data-source-line="21" data-uid="ent0003" id="entity_cp"><rect fill="#F1F1F1" height="162.4075" rx="2.5" ry="2.5" style="stroke:#181818;stroke-width:0.5;" width="259.0851" x="1244" y="178"/><ellipse cx="1343.3086" cy="194" fill="#ADD1B2" rx="11" ry="11" style="stroke:#181818;stroke-width:1;"/><path d="M1346.2774,199.6406 Q1345.6993,199.9375 1345.0586,200.0781 Q1344.418,200.2344 1343.7149,200.2344 Q1341.2149,200.2344 1339.8868,198.5938 Q1338.5743,196.9375 1338.5743,193.8125 Q1338.5743,190.6875 1339.8868,189.0313 Q1341.2149,187.375 1343.7149,187.375 Q1344.418,187.375 1345.0586,187.5313 Q1345.7149,187.6875 1346.2774,187.9844 L1346.2774,190.7031 Q1345.6524,190.125 1345.0586,189.8594 Q1344.4649,189.5781 1343.8399,189.5781 Q1342.4961,189.5781 1341.8086,190.6563 Q1341.1211,191.7188 1341.1211,193.8125 Q1341.1211,195.9063 1341.8086,196.9844 Q1342.4961,198.0469 1343.8399,198.0469 Q1344.4649,198.0469 1345.0586,197.7813 Q1345.6524,197.5 1346.2774,196.9219 L1346.2774,199.6406 Z " fill="#000000"/><text fill="#000000" font-family="sans-serif" font-size="14" lengthAdjust="spacing" textLength="51.9678" x="1363.8086" y="199.432">Compte</text><line style="stroke:#181818;stroke-width:0.5;" x1="1245" x2="1502.0851" y1="210" y2="210"/><rect fill="none" height="6" style="stroke:#C82930;stroke-width:1;" width="6" x="1252" y="222.034"/><text fill="#000000" font-family="sans-serif" font-size="14" lengthAdjust="spacing" textLength="188.7053" x="1264" y="228.9659">pseudo : chaine de caract&#232;re</text><rect fill="none" height="6" style="stroke:#C82930;stroke-width:1;" width="6" x="1252" y="241.1019"/><text fill="#000000" font-family="sans-serif" font-size="14" lengthAdjust="spacing" textLength="233.0851" x="1264" y="248.0339">mot_de_passe : chaine de caract&#232;re</text><rect fill="none" height="6" style="stroke:#C82930;stroke-width:1;" width="6" x="1252" y="260.1698"/><text fill="#000000" font-family="sans-serif" font-size="14" lengthAdjust="spacing" textLength="225.5951" x="1264" y="267.1018">adresse_mail : chaine de caract&#232;re</text><line style="stroke:#181818;stroke-width:0.5;" x1="1245" x2="1502.0851" y1="275.2038" y2="275.2038"/><ellipse cx="1255" cy="290.2377" fill="#84BE84" rx="3" ry="3" style="stroke:#038048;stroke-width:1;"/><text fill="#000000" font-family="sans-serif" font-size="14" lengthAdjust="spacing" textLength="76.9297" x="1264" y="294.1697">connexion()</text><ellipse cx="1255" cy="309.3056" fill="#84BE84" rx="3" ry="3" style="stroke:#038048;stroke-width:1;"/><text fill="#000000" font-family="sans-serif" font-size="14" lengthAdjust="spacing" textLength="93.4356" x="1264" y="313.2376">deconnexion()</text><ellipse cx="1255" cy="328.3735" fill="#84BE84" rx="3" ry="3" style="stroke:#038048;stroke-width:1;"/><text fill="#000000" font-family="sans-serif" font-size="14" lengthAdjust="spacing" textLength="111.9016" x="1264" y="332.3055">supprimerProfil()</text></g><!--class modo--><g class="entity" data-entity="modo" data-source-line="30" data-uid="ent0004" id="entity_modo"><rect fill="#F1F1F1" height="105.2038" rx="2.5" ry="2.5" style="stroke:#181818;stroke-width:0.5;" width="159.3635" x="1294" y="27.5"/><ellipse cx="1330.725" cy="43.5" fill="#ADD1B2" rx="11" ry="11" style="stroke:#181818;stroke-width:1;"/><path d="M1333.6937,49.1406 Q1333.1156,49.4375 1332.475,49.5781 Q1331.8344,49.7344 1331.1312,49.7344 Q1328.6312,49.7344 1327.3031,48.0938 Q1325.9906,46.4375 1325.9906,43.3125 Q1325.9906,40.1875 1327.3031,38.5313 Q1328.6312,36.875 1331.1312,36.875 Q1331.8344,36.875 1332.475,37.0313 Q1333.1312,37.1875 1333.6937,37.4844 L1333.6937,40.2031 Q1333.0687,39.625 1332.475,39.3594 Q1331.8812,39.0781 1331.2562,39.0781 Q1329.9125,39.0781 1329.225,40.1563 Q1328.5375,41.2188 1328.5375,43.3125 Q1328.5375,45.4063 1329.225,46.4844 Q1329.9125,47.5469 1331.2562,47.5469 Q1331.8812,47.5469 1332.475,47.2813 Q1333.0687,47 1333.6937,46.4219 L1333.6937,49.1406 Z " fill="#000000"/><text fill="#000000" font-family="sans-serif" font-size="14" lengthAdjust="spacing" textLength="79.0857" x="1349.5528" y="48.932">moderateur</text><line style="stroke:#181818;stroke-width:0.5;" x1="1295" x2="1452.3635" y1="59.5" y2="59.5"/><line style="stroke:#181818;stroke-width:0.5;" x1="1295" x2="1452.3635" y1="67.5" y2="67.5"/><ellipse cx="1305" cy="82.534" fill="#84BE84" rx="3" ry="3" style="stroke:#038048;stroke-width:1;"/><text fill="#000000" font-family="sans-serif" font-size="14" lengthAdjust="spacing" textLength="123.4935" x="1314" y="86.4659">validerInscription()</text><ellipse cx="1305" cy="101.6019" fill="#84BE84" rx="3" ry="3" style="stroke:#038048;stroke-width:1;"/><text fill="#000000" font-family="sans-serif" font-size="14" lengthAdjust="spacing" textLength="128.0995" x="1314" y="105.5339">bloquerUtilisateur()</text><ellipse cx="1305" cy="120.6698" fill="#84BE84" rx="3" ry="3" style="stroke:#038048;stroke-width:1;"/><text fill="#000000" font-family="sans-serif" font-size="14" lengthAdjust="spacing" textLength="133.3635" x="1314" y="124.6018">supprimerContenu()</text></g><!--class g--><g class="entity" data-entity="g" data-source-line="36" data-uid="ent0005" id="entity_g"><rect fill="#F1F1F1" height="124.2717" rx="2.5" ry="2.5" style="stroke:#181818;stroke-width:0.5;" width="295.653" x="377.5" y="7"/><ellipse cx="442.0748" cy="23" fill="#ADD1B2" rx="11" ry="11" style="stroke:#181818;stroke-width:1;"/><path d="M445.0435,28.6406 Q444.4654,28.9375 443.8248,29.0781 Q443.1842,29.2344 442.481,29.2344 Q439.981,29.2344 438.6529,27.5938 Q437.3404,25.9375 437.3404,22.8125 Q437.3404,19.6875 438.6529,18.0313 Q439.981,16.375 442.481,16.375 Q443.1842,16.375 443.8248,16.5313 Q444.481,16.6875 445.0435,16.9844 L445.0435,19.7031 Q444.4185,19.125 443.8248,18.8594 Q443.231,18.5781 442.606,18.5781 Q441.2623,18.5781 440.5748,19.6563 Q439.8873,20.7188 439.8873,22.8125 Q439.8873,24.9063 440.5748,25.9844 Q441.2623,27.0469 442.606,27.0469 Q443.231,27.0469 443.8248,26.7813 Q444.4185,26.5 445.0435,25.9219 L445.0435,28.6406 Z " fill="#000000"/><text fill="#000000" font-family="sans-serif" font-size="14" lengthAdjust="spacing" textLength="158.0034" x="462.5748" y="28.432">Gestionnaire de compte</text><line style="stroke:#181818;stroke-width:0.5;" x1="378.5" x2="672.153" y1="39" y2="39"/><line style="stroke:#181818;stroke-width:0.5;" x1="378.5" x2="672.153" y1="47" y2="47"/><ellipse cx="388.5" cy="62.034" fill="#84BE84" rx="3" ry="3" style="stroke:#038048;stroke-width:1;"/><text fill="#000000" font-family="sans-serif" font-size="14" lengthAdjust="spacing" textLength="134.4135" x="397.5" y="65.9659">ajouterModerateur()</text><ellipse cx="388.5" cy="81.1019" fill="#84BE84" rx="3" ry="3" style="stroke:#038048;stroke-width:1;"/><text fill="#000000" font-family="sans-serif" font-size="14" lengthAdjust="spacing" textLength="123.7875" x="397.5" y="85.0339">ajouterUtilisateur()</text><ellipse cx="388.5" cy="100.1698" fill="#84BE84" rx="3" ry="3" style="stroke:#038048;stroke-width:1;"/><text fill="#000000" font-family="sans-serif" font-size="14" lengthAdjust="spacing" textLength="269.653" x="397.5" y="104.1018">getListeModo() : tableaux de mod&#233;rateur</text><ellipse cx="388.5" cy="119.2377" fill="#84BE84" rx="3" ry="3" style="stroke:#038048;stroke-width:1;"/><text fill="#000000" font-family="sans-serif" font-size="14" lengthAdjust="spacing" textLength="233.1411" x="397.5" y="123.1697">getListeUsr() : tableaux d'utilisateur</text></g><!--class s--><g class="entity" data-entity="s" data-source-line="44" data-uid="ent0006" id="entity_s"><rect fill="#F1F1F1" height="67.0679" rx="2.5" ry="2.5" style="stroke:#181818;stroke-width:0.5;" width="96.0918" x="7" y="236.5"/><ellipse cx="22" cy="252.5" fill="#B4A7E5" rx="11" ry="11" style="stroke:#181818;stroke-width:1;"/><path d="M17.9219,248.2656 L17.9219,246.1094 L25.3125,246.1094 L25.3125,248.2656 L22.8438,248.2656 L22.8438,256.3438 L25.3125,256.3438 L25.3125,258.5 L17.9219,258.5 L17.9219,256.3438 L20.3906,256.3438 L20.3906,248.2656 L17.9219,248.2656 Z " fill="#000000"/><text fill="#000000" font-family="sans-serif" font-size="14" font-style="italic" lengthAdjust="spacing" textLength="64.0918" x="36" y="257.932">signalable</text><line style="stroke:#181818;stroke-width:0.5;" x1="8" x2="102.0918" y1="268.5" y2="268.5"/><line style="stroke:#181818;stroke-width:0.5;" x1="8" x2="102.0918" y1="276.5" y2="276.5"/><ellipse cx="18" cy="291.534" fill="#84BE84" rx="3" ry="3" style="stroke:#038048;stroke-width:1;"/><text fill="#000000" font-family="sans-serif" font-size="14" lengthAdjust="spacing" textLength="61.1238" x="27" y="295.4659">signaler()</text></g><!--class c--><g class="entity" data-entity="c" data-source-line="48" data-uid="ent0007" id="entity_c"><rect fill="#F1F1F1" height="105.2038" rx="2.5" ry="2.5" style="stroke:#181818;stroke-width:0.5;" width="132.0356" x="163" y="323.5"/><ellipse cx="183.8176" cy="339.5" fill="#ADD1B2" rx="11" ry="11" style="stroke:#181818;stroke-width:1;"/><path d="M186.7863,345.1406 Q186.2082,345.4375 185.5676,345.5781 Q184.9269,345.7344 184.2238,345.7344 Q181.7238,345.7344 180.3957,344.0938 Q179.0832,342.4375 179.0832,339.3125 Q179.0832,336.1875 180.3957,334.5313 Q181.7238,332.875 184.2238,332.875 Q184.9269,332.875 185.5676,333.0313 Q186.2238,333.1875 186.7863,333.4844 L186.7863,336.2031 Q186.1613,335.625 185.5676,335.3594 Q184.9738,335.0781 184.3488,335.0781 Q183.0051,335.0781 182.3176,336.1563 Q181.6301,337.2188 181.6301,339.3125 Q181.6301,341.4063 182.3176,342.4844 Q183.0051,343.5469 184.3488,343.5469 Q184.9738,343.5469 185.5676,343.2813 Q186.1613,343 186.7863,342.4219 L186.7863,345.1406 Z " fill="#000000"/><text fill="#000000" font-family="sans-serif" font-size="14" lengthAdjust="spacing" textLength="87.1077" x="199.1104" y="344.932">Conversation</text><line style="stroke:#181818;stroke-width:0.5;" x1="164" x2="294.0356" y1="355.5" y2="355.5"/><line style="stroke:#181818;stroke-width:0.5;" x1="164" x2="294.0356" y1="363.5" y2="363.5"/><ellipse cx="174" cy="378.534" fill="#84BE84" rx="3" ry="3" style="stroke:#038048;stroke-width:1;"/><text fill="#000000" font-family="sans-serif" font-size="14" lengthAdjust="spacing" textLength="95.0316" x="183" y="382.4659">getMessages()</text><ellipse cx="174" cy="397.6019" fill="#84BE84" rx="3" ry="3" style="stroke:#038048;stroke-width:1;"/><text fill="#000000" font-family="sans-serif" font-size="14" lengthAdjust="spacing" textLength="106.0356" x="183" y="401.5339">getUtilisateur1()</text><ellipse cx="174" cy="416.6698" fill="#84BE84" rx="3" ry="3" style="stroke:#038048;stroke-width:1;"/><text fill="#000000" font-family="sans-serif" font-size="14" lengthAdjust="spacing" textLength="106.0356" x="183" y="420.6018">getUtilisateur2()</text></g><!--class m--><g class="entity" data-entity="m" data-source-line="54" data-uid="ent0008" id="entity_m"><rect fill="#F1F1F1" height="86.1358" rx="2.5" ry="2.5" style="stroke:#181818;stroke-width:0.5;" width="340.8168" x="355" y="237"/><ellipse cx="488.6225" cy="253" fill="#ADD1B2" rx="11" ry="11" style="stroke:#181818;stroke-width:1;"/><path d="M491.5913,258.6406 Q491.0131,258.9375 490.3725,259.0781 Q489.7319,259.2344 489.0288,259.2344 Q486.5288,259.2344 485.2006,257.5938 Q483.8881,255.9375 483.8881,252.8125 Q483.8881,249.6875 485.2006,248.0313 Q486.5288,246.375 489.0288,246.375 Q489.7319,246.375 490.3725,246.5313 Q491.0288,246.6875 491.5913,246.9844 L491.5913,249.7031 Q490.9663,249.125 490.3725,248.8594 Q489.7788,248.5781 489.1538,248.5781 Q487.81,248.5781 487.1225,249.6563 Q486.435,250.7188 486.435,252.8125 Q486.435,254.9063 487.1225,255.9844 Q487.81,257.0469 489.1538,257.0469 Q489.7788,257.0469 490.3725,256.7813 Q490.9663,256.5 491.5913,255.9219 L491.5913,258.6406 Z " fill="#000000"/><text fill="#000000" font-family="sans-serif" font-size="14" lengthAdjust="spacing" textLength="65.0718" x="509.1225" y="258.432">Messages</text><line style="stroke:#181818;stroke-width:0.5;" x1="356" x2="694.8168" y1="269" y2="269"/><rect fill="none" height="6" style="stroke:#C82930;stroke-width:1;" width="6" x="363" y="281.034"/><text fill="#000000" font-family="sans-serif" font-size="14" lengthAdjust="spacing" textLength="284.3669" x="375" y="287.9659">message : Tabeau de chaines de caract&#232;res</text><line style="stroke:#181818;stroke-width:0.5;" x1="356" x2="694.8168" y1="296.0679" y2="296.0679"/><ellipse cx="366" cy="311.1019" fill="#84BE84" rx="3" ry="3" style="stroke:#038048;stroke-width:1;"/><text fill="#000000" font-family="sans-serif" font-size="14" lengthAdjust="spacing" textLength="314.8168" x="375" y="315.0339">getMessage() : tableau de chaines de caract&#232;res</text></g><!--class me--><g class="entity" data-entity="me" data-source-line="60" data-uid="ent0009" id="entity_me"><rect fill="#F1F1F1" height="162.4075" rx="2.5" ry="2.5" style="stroke:#181818;stroke-width:0.5;" width="266.6591" x="392" y="429"/><ellipse cx="500.7446" cy="445" fill="#ADD1B2" rx="11" ry="11" style="stroke:#181818;stroke-width:1;"/><path d="M503.7134,450.6406 Q503.1352,450.9375 502.4946,451.0781 Q501.854,451.2344 501.1509,451.2344 Q498.6509,451.2344 497.3227,449.5938 Q496.0102,447.9375 496.0102,444.8125 Q496.0102,441.6875 497.3227,440.0313 Q498.6509,438.375 501.1509,438.375 Q501.854,438.375 502.4946,438.5313 Q503.1509,438.6875 503.7134,438.9844 L503.7134,441.7031 Q503.0884,441.125 502.4946,440.8594 Q501.9009,440.5781 501.2759,440.5781 Q499.9321,440.5781 499.2446,441.6563 Q498.5571,442.7188 498.5571,444.8125 Q498.5571,446.9063 499.2446,447.9844 Q499.9321,449.0469 501.2759,449.0469 Q501.9009,449.0469 502.4946,448.7813 Q503.0884,448.5 503.7134,447.9219 L503.7134,450.6406 Z " fill="#000000"/><text fill="#000000" font-family="sans-serif" font-size="14" lengthAdjust="spacing" textLength="40.6698" x="521.2446" y="450.432">Media</text><line style="stroke:#181818;stroke-width:0.5;" x1="393" x2="657.6591" y1="461" y2="461"/><rect fill="none" height="6" style="stroke:#C82930;stroke-width:1;" width="6" x="400" y="473.034"/><text fill="#000000" font-family="sans-serif" font-size="14" lengthAdjust="spacing" textLength="166.3333" x="412" y="479.9659">nom: chaine de caract&#232;re</text><rect fill="none" height="6" style="stroke:#C82930;stroke-width:1;" width="6" x="400" y="492.1019"/><text fill="#000000" font-family="sans-serif" font-size="14" lengthAdjust="spacing" textLength="210.8112" x="412" y="499.0339">extension : chaine de caract&#232;res</text><rect fill="none" height="6" style="stroke:#C82930;stroke-width:1;" width="6" x="400" y="511.1698"/><text fill="#000000" font-family="sans-serif" font-size="14" lengthAdjust="spacing" textLength="232.0491" x="412" y="518.1018">dateCr&#233;ation : chaine de caract&#232;res</text><line style="stroke:#181818;stroke-width:0.5;" x1="393" x2="657.6591" y1="526.2038" y2="526.2038"/><ellipse cx="403" cy="541.2377" fill="#84BE84" rx="3" ry="3" style="stroke:#038048;stroke-width:1;"/><text fill="#000000" font-family="sans-serif" font-size="14" lengthAdjust="spacing" textLength="208.6272" x="412" y="545.1697">getNom() : chaine de caract&#232;res</text><ellipse cx="403" cy="560.3056" fill="#84BE84" rx="3" ry="3" style="stroke:#038048;stroke-width:1;"/><text fill="#000000" font-family="sans-serif" font-size="14" lengthAdjust="spacing" textLength="240.6591" x="412" y="564.2376">getExtension() : chaine de caract&#232;res</text><ellipse cx="403" cy="579.3735" fill="#84BE84" rx="3" ry="3" style="stroke:#038048;stroke-width:1;"/><text fill="#000000" font-family="sans-serif" font-size="14" lengthAdjust="spacing" textLength="207.4512" x="412" y="583.3055">getDate() : chaine de caract&#232;res</text></g><!--link modo to cp--><g class="link" data-entity-1="modo" data-entity-2="cp" data-source-line="71" data-uid="lnk10" id="link_modo_cp"><path codeLine="71" d="M1374,132.74 C1374,146.87 1374,144.47 1374,159.76" fill="none" id="modo-to-cp" style="stroke:#181818;stroke-width:1;"/><polygon fill="none" points="1374,177.76,1380,159.76,1368,159.76,1374,177.76" style="stroke:#181818;stroke-width:1;"/></g><!--link usr to cp--><g class="link" data-entity-1="usr" data-entity-2="cp" data-source-line="72" data-uid="lnk11" id="link_usr_cp"><path codeLine="72" d="M1184.16,259 C1204.53,259 1206.73,259 1225.93,259" fill="none" id="usr-to-cp" style="stroke:#181818;stroke-width:1;"/><polygon fill="none" points="1243.93,259,1225.93,253,1225.93,265,1243.93,259" style="stroke:#181818;stroke-width:1;"/></g><!--link g to modo--><g class="link" data-entity-1="g" data-entity-2="modo" data-source-line="74" data-uid="lnk12" id="link_g_modo"><path codeLine="74" d="M673.7,75 C854.11,75 1152.2,75 1293.92,75" fill="none" id="g-modo" style="stroke:#181818;stroke-width:1;"/><text fill="#000000" font-family="sans-serif" font-size="13" lengthAdjust="spacing" textLength="7.436" x="681.0669" y="89.6099">1</text><text fill="#000000" font-family="sans-serif" font-size="13" lengthAdjust="spacing" textLength="21.567" x="1264.344" y="89.2545">0..*</text></g><!--link g to usr--><g class="link" data-entity-1="g" data-entity-2="usr" data-source-line="75" data-uid="lnk13" id="link_g_usr"><path codeLine="75" d="M673.51,126.75 C699.9,126.75 727.87,126.75 755.68,126.75" fill="none" id="g-usr" style="stroke:#181818;stroke-width:1;"/><text fill="#000000" font-family="sans-serif" font-size="13" lengthAdjust="spacing" textLength="7.436" x="681.3424" y="144.0742">1</text><text fill="#000000" font-family="sans-serif" font-size="13" lengthAdjust="spacing" textLength="21.567" x="726.6038" y="135.4586">0..*</text></g><!--link me to usr--><g class="link" data-entity-1="me" data-entity-2="usr" data-source-line="77" data-uid="lnk14" id="link_me_usr"><path codeLine="77" d="M659.17,433.25 C689.72,433.25 722.94,433.25 755.93,433.25" fill="none" id="me-usr" style="stroke:#181818;stroke-width:1;"/><text fill="#000000" font-family="sans-serif" font-size="13" lengthAdjust="spacing" textLength="21.567" x="666.6272" y="443.6356">0..*</text></g><!--reverse link s to usr--><g class="link" data-entity-1="s" data-entity-2="usr" data-source-line="79" data-uid="lnk15" id="link_s_usr"><path codeLine="79" d="M39,218.41 C39,194.19 39,183.75 39,183.75 C39,183.75 480.92,183.75 755.83,183.75" fill="none" id="s-backto-usr" style="stroke:#181818;stroke-width:1;stroke-dasharray:7,7;"/><polygon fill="none" points="39,236.41,45,218.41,33,218.41,39,236.41" style="stroke:#181818;stroke-width:1;"/></g><!--reverse link s to me--><g class="link" data-entity-1="s" data-entity-2="me" data-source-line="80" data-uid="lnk16" id="link_s_me"><path codeLine="80" d="M55,321.55 C55,393.26 55,537 55,537 C55,537 252.83,537 391.93,537" fill="none" id="s-backto-me" style="stroke:#181818;stroke-width:1;stroke-dasharray:7,7;"/><polygon fill="none" points="55,303.55,49,321.55,61,321.55,55,303.55" style="stroke:#181818;stroke-width:1;"/></g><!--reverse link s to c--><g class="link" data-entity-1="s" data-entity-2="c" data-source-line="81" data-uid="lnk17" id="link_s_c"><path codeLine="81" d="M121.01,281.33 C172.51,281.33 229,281.33 229,281.33 C229,281.33 229,301.62 229,323.41" fill="none" id="s-backto-c" style="stroke:#181818;stroke-width:1;stroke-dasharray:7,7;"/><polygon fill="none" points="103.01,281.33,121.01,287.33,121.01,275.33,103.01,281.33" style="stroke:#181818;stroke-width:1;"/></g><!--reverse link s to m--><g class="link" data-entity-1="s" data-entity-2="m" data-source-line="82" data-uid="lnk18" id="link_s_m"><path codeLine="82" d="M121.14,259.17 C180.1,259.17 265.19,259.17 354.76,259.17" fill="none" id="s-backto-m" style="stroke:#181818;stroke-width:1;stroke-dasharray:7,7;"/><polygon fill="none" points="103.14,259.17,121.14,265.17,121.14,253.17,103.14,259.17" style="stroke:#181818;stroke-width:1;"/></g><!--link s to g--><g class="link" data-entity-1="s" data-entity-2="g" data-source-line="83" data-uid="lnk19" id="link_s_g"><path codeLine="83" d="M71,236.36 C71,179.14 71,69 71,69 C71,69 244.68,69 377.31,69" fill="none" id="s-g" style="stroke:#181818;stroke-width:1;"/><text fill="#000000" font-family="sans-serif" font-size="13" lengthAdjust="spacing" textLength="7.436" x="362.0359" y="83.3737">1</text></g><!--link c to m--><g class="link" data-entity-1="c" data-entity-2="m" data-source-line="85" data-uid="lnk20" id="link_c_m"><path codeLine="85" d="M295.14,358.5 C333.38,358.5 374,358.5 374,358.5 C374,358.5 374,341.54 374,323.38" fill="none" id="c-m" style="stroke:#181818;stroke-width:1;"/><text fill="#000000" font-family="sans-serif" font-size="13" lengthAdjust="spacing" textLength="7.436" x="303.2153" y="371.3854">1</text><text fill="#000000" font-family="sans-serif" font-size="13" lengthAdjust="spacing" textLength="21.567" x="329.2613" y="344.9388">0..*</text></g><!--link c to usr--><g class="link" data-entity-1="c" data-entity-2="usr" data-source-line="86" data-uid="lnk21" id="link_c_usr"><path codeLine="86" d="M295.08,393.5 C397.6,393.5 599.42,393.5 755.77,393.5" fill="none" id="c-usr" style="stroke:#181818;stroke-width:1;"/><text fill="#000000" font-family="sans-serif" font-size="13" lengthAdjust="spacing" textLength="21.567" x="303.0047" y="410.1042">0..*</text><text fill="#000000" font-family="sans-serif" font-size="13" lengthAdjust="spacing" textLength="7.436" x="740.2659" y="412.1774">2</text></g><!--link c to me--><g class="link" data-entity-1="c" data-entity-2="me" data-source-line="87" data-uid="lnk22" id="link_c_me"><path codeLine="87" d="M229,428.56 C229,455.62 229,483 229,483 C229,483 313.3,483 392,483" fill="none" id="c-me" style="stroke:#181818;stroke-width:1;"/><text fill="#000000" font-family="sans-serif" font-size="13" lengthAdjust="spacing" textLength="7.436" x="221.5566" y="450.6957">1</text><text fill="#000000" font-family="sans-serif" font-size="13" lengthAdjust="spacing" textLength="21.567" x="362.2527" y="495.7788">0..*</text></g><!--SRC=[ZLN1ZjCm4BtdAqQvi0MbOlU8418g226nAuJOyyfr9gd1iSFOgOgw_0_x7Vqn9iuwJTgqfL8bUpoUUVFcZQEnyE0ja2fN7d95ABso9d4_bQa5YGgqCkX_rmYM_CecYTJ2EKZllTBA2OyDfI0SD8ws2RI_34I9y0RGU8KKRMkbTMkLAy418KUG75xwtL_2wBDKjYHHhzGbHsKy4dhsycAfKJIRu7VonYkGrXIgR0ZfAzb2wQlPySdxeb0SeyJz8TEnGch_4zTSend6DvIsGfEBbhV1EUsUaBuevt7iiI0La3cOp-SWPrp4zwu8o5yqp6gazIZJdVMA4HuaSgeqGYFjBK9LntY5b9XFc7_OXaFVOgu4M__q_LtOglOOMYlhlhErmoQt5xfJMV-GuqFDSIurKkHCXCE7IYXzrZNGO70pAZt72QDhwff63EoBgYnJiDSiRoriuyMrq8gFFnidITLZafVQ_cgG1gAVIBYmB4lJZ39-GjT6Ce8dAzIrfxNS7ZQXHtVKdyd49VgWBxvdhsO7my2rxPve9AJeV-_em3teBigkHHy6h10I8UtqrRe6r6ux8RoXRCmQoGMDTkBP3jBVShDvljoeXa5jrwSERaP9OfYkYT2hi-hitKI5WOgFWXjhoXrZ6Z9ovju81SzC1m5x2CPMvnMF6zQ8OtPEoDr5HtukSC6FIA3ol7EeuyvMeOPBVXyZWF_o_i0epZWo6qaInYWBNv3iyHq_5mb_321xNYSbfDSfRo5zFP-_JCFK7Hdv1WV2kEM3O77mzf5VoNRzlAmmhcHluaKRYGEMt9rsaMKnMRiFIpRTT7da8I3y1m00]--></g></svg>