<svg xmlns="http://www.w3.org/2000/svg" xmlns:xlink="http://www.w3.org/1999/xlink" contentStyleType="text/css" data-diagram-type="SEQUENCE" height="881px" preserveAspectRatio="none" style="width:1129px;height:881px;background:#FFFFFF;" version="1.1" viewBox="0 0 1129 881" width="1129px" zoomAndPan="magnify"><defs/><g><rect fill="none" height="533.2782" style="stroke:#000000;stroke-width:1.5;" width="1102.6476" x="10" y="273.598"/><rect fill="none" height="161.5301" style="stroke:#000000;stroke-width:1.5;" width="696.9511" x="20" y="408.4221"/><rect fill="none" height="127.8241" style="stroke:#000000;stroke-width:1.5;" width="676.9511" x="30" y="435.1281"/><g><title>Utilisateur</title><rect fill="#000000" fill-opacity="0.00000" height="766.8082" width="8" x="73.0339" y="57.0679"/><line style="stroke:#181818;stroke-width:0.5;stroke-dasharray:5,5;" x1="77" x2="77" y1="57.0679" y2="823.8762"/></g><g><title>Application</title><rect fill="#000000" fill-opacity="0.00000" height="766.8082" width="8" x="339.5321" y="57.0679"/><line style="stroke:#181818;stroke-width:0.5;stroke-dasharray:5,5;" x1="342.6562" x2="342.6562" y1="57.0679" y2="823.8762"/></g><g><title>Serveur mail</title><rect fill="#000000" fill-opacity="0.00000" height="766.8082" width="8" x="648.6443" y="57.0679"/><line style="stroke:#181818;stroke-width:0.5;stroke-dasharray:5,5;" x1="652.3375" x2="652.3375" y1="57.0679" y2="823.8762"/></g><g class="participant participant-head" data-participant="u"><text fill="#000000" font-family="sans-serif" font-size="14" lengthAdjust="spacing" textLength="68.0677" x="40" y="52.9659">Utilisateur</text><ellipse cx="77.0339" cy="10" fill="#E2E2F0" rx="4.5" ry="4.5" style="stroke:#181818;stroke-width:0.5;"/><path d="M64.5339,16.5 L64.5339,21.5 L74.0339,21.5 L74.0339,23.7574 L64.5339,33.2574 L68.7765,37.5 L77.0339,29.2426 L85.2912,37.5 L89.5339,33.2574 L80.0339,23.7574 L80.0339,21.5 L89.5339,21.5 L89.5339,16.5 L64.5339,16.5" fill="#E2E2F0" style="stroke:#181818;stroke-width:0.5;"/></g><g class="participant participant-tail" data-participant="u"><text fill="#000000" font-family="sans-serif" font-size="14" lengthAdjust="spacing" textLength="68.0677" x="40" y="837.8421">Utilisateur</text><ellipse cx="77.0339" cy="846.9441" fill="#E2E2F0" rx="4.5" ry="4.5" style="stroke:#181818;stroke-width:0.5;"/><path d="M64.5339,853.4441 L64.5339,858.4441 L74.0339,858.4441 L74.0339,860.7014 L64.5339,870.2014 L68.7765,874.4441 L77.0339,866.1867 L85.2912,874.4441 L89.5339,870.2014 L80.0339,860.7014 L80.0339,858.4441 L89.5339,858.4441 L89.5339,853.4441 L64.5339,853.4441" fill="#E2E2F0" style="stroke:#181818;stroke-width:0.5;"/></g><g class="participant participant-head" data-participant="ins"><rect fill="#E2E2F0" height="33.0679" rx="2.5" ry="2.5" style="stroke:#181818;stroke-width:0.5;" width="87.7517" x="299.6562" y="23"/><text fill="#000000" font-family="sans-serif" font-size="14" lengthAdjust="spacing" textLength="73.7517" x="306.6562" y="44.9659">Application</text></g><g class="participant participant-tail" data-participant="ins"><rect fill="#E2E2F0" height="33.0679" rx="2.5" ry="2.5" style="stroke:#181818;stroke-width:0.5;" width="87.7517" x="299.6562" y="822.8762"/><text fill="#000000" font-family="sans-serif" font-size="14" lengthAdjust="spacing" textLength="73.7517" x="306.6562" y="844.8421">Application</text></g><g class="participant participant-head" data-participant="bm"><text fill="#000000" font-family="sans-serif" font-size="14" lengthAdjust="spacing" textLength="82.6137" x="608.3375" y="52.9659">Serveur mail</text><ellipse cx="652.6443" cy="10" fill="#E2E2F0" rx="4.5" ry="4.5" style="stroke:#181818;stroke-width:0.5;"/><path d="M640.1443,16.5 L640.1443,21.5 L649.6443,21.5 L649.6443,23.7574 L640.1443,33.2574 L644.3869,37.5 L652.6443,29.2426 L660.9017,37.5 L665.1443,33.2574 L655.6443,23.7574 L655.6443,21.5 L665.1443,21.5 L665.1443,16.5 L640.1443,16.5" fill="#E2E2F0" style="stroke:#181818;stroke-width:0.5;"/></g><g class="participant participant-tail" data-participant="bm"><text fill="#000000" font-family="sans-serif" font-size="14" lengthAdjust="spacing" textLength="82.6137" x="608.3375" y="837.8421">Serveur mail</text><ellipse cx="652.6443" cy="846.9441" fill="#E2E2F0" rx="4.5" ry="4.5" style="stroke:#181818;stroke-width:0.5;"/><path d="M640.1443,853.4441 L640.1443,858.4441 L649.6443,858.4441 L649.6443,860.7014 L640.1443,870.2014 L644.3869,874.4441 L652.6443,866.1867 L660.9017,874.4441 L665.1443,870.2014 L655.6443,860.7014 L655.6443,858.4441 L665.1443,858.4441 L665.1443,853.4441 L640.1443,853.4441" fill="#E2E2F0" style="stroke:#181818;stroke-width:0.5;"/></g><rect fill="#EEEEEE" height="3" style="stroke:#EEEEEE;stroke-width:1;" width="1122.6476" x="0" y="88.9209"/><line style="stroke:#000000;stroke-width:1;" x1="0" x2="1122.6476" y1="88.9209" y2="88.9209"/><line style="stroke:#000000;stroke-width:1;" x1="0" x2="1122.6476" y1="91.9209" y2="91.9209"/><rect fill="#EEEEEE" height="25.706" style="stroke:#000000;stroke-width:2;" width="79.91" x="521.3688" y="77.0679"/><text fill="#000000" font-family="sans-serif" font-size="13" font-weight="bold" lengthAdjust="spacing" textLength="62.53" x="527.3688" y="94.9649">Pr&#233;requis</text><g class="message" data-participant-1="u" data-participant-2="ins"><polygon fill="#181818" points="331.5321,132.4799,341.5321,136.4799,331.5321,140.4799,335.5321,136.4799" style="stroke:#181818;stroke-width:1;"/><line style="stroke:#181818;stroke-width:1;" x1="77.0339" x2="337.5321" y1="136.4799" y2="136.4799"/><text fill="#000000" font-family="sans-serif" font-size="13" font-weight="bold" lengthAdjust="spacing" textLength="7.436" x="144.3749" y="130.6709">1</text><text fill="#000000" font-family="sans-serif" font-size="13" lengthAdjust="spacing" textLength="120.3801" x="155.8109" y="130.6709">inscription en cours</text></g><rect fill="#EEEEEE" height="3" style="stroke:#EEEEEE;stroke-width:1;" width="1122.6476" x="0" y="166.333"/><line style="stroke:#000000;stroke-width:1;" x1="0" x2="1122.6476" y1="166.333" y2="166.333"/><line style="stroke:#000000;stroke-width:1;" x1="0" x2="1122.6476" y1="169.333" y2="169.333"/><rect fill="#EEEEEE" height="25.706" style="stroke:#000000;stroke-width:2;" width="81.782" x="520.4328" y="154.4799"/><text fill="#000000" font-family="sans-serif" font-size="13" font-weight="bold" lengthAdjust="spacing" textLength="64.402" x="526.4328" y="172.377">Processus</text><g class="message" data-participant-1="u" data-participant-2="ins"><polygon fill="#181818" points="331.5321,209.892,341.5321,213.892,331.5321,217.892,335.5321,213.892" style="stroke:#181818;stroke-width:1;"/><line style="stroke:#181818;stroke-width:1;" x1="77.0339" x2="337.5321" y1="213.892" y2="213.892"/><text fill="#000000" font-family="sans-serif" font-size="13" font-weight="bold" lengthAdjust="spacing" textLength="7.436" x="120.3249" y="208.083">2</text><text fill="#000000" font-family="sans-serif" font-size="13" lengthAdjust="spacing" textLength="168.4801" x="131.7609" y="208.083">renseigne une adresse mail</text></g><g class="message" data-participant-1="ins" data-participant-2="ins"><line style="stroke:#181818;stroke-width:1;" x1="343.5321" x2="385.5321" y1="245.598" y2="245.598"/><line style="stroke:#181818;stroke-width:1;" x1="385.5321" x2="385.5321" y1="245.598" y2="258.598"/><line style="stroke:#181818;stroke-width:1;" x1="344.5321" x2="385.5321" y1="258.598" y2="258.598"/><polygon fill="#181818" points="354.5321,254.598,344.5321,258.598,354.5321,262.598,350.5321,258.598" style="stroke:#181818;stroke-width:1;"/><text fill="#000000" font-family="sans-serif" font-size="13" font-weight="bold" lengthAdjust="spacing" textLength="7.436" x="350.5321" y="239.789">3</text><text fill="#000000" font-family="sans-serif" font-size="13" lengthAdjust="spacing" textLength="267.0722" x="361.9681" y="239.789">v&#233;rifie que l'adresse mail existe et est valide</text></g><path d="M10,273.598 L72.459,273.598 L72.459,283.304 L62.459,293.304 L10,293.304 L10,273.598" fill="#EEEEEE" style="stroke:#000000;stroke-width:1.5;"/><rect fill="none" height="533.2782" style="stroke:#000000;stroke-width:1.5;" width="1102.6476" x="10" y="273.598"/><text fill="#000000" font-family="sans-serif" font-size="13" font-weight="bold" lengthAdjust="spacing" textLength="17.459" x="25" y="288.495">alt</text><text fill="#000000" font-family="sans-serif" font-size="11" font-weight="bold" lengthAdjust="spacing" textLength="85.7554" x="87.459" y="287.3569">[adresse valide]</text><g class="message" data-participant-1="ins" data-participant-2="bm"><polygon fill="#181818" points="640.6443,313.01,650.6443,317.01,640.6443,321.01,644.6443,317.01" style="stroke:#181818;stroke-width:1;"/><line style="stroke:#181818;stroke-width:1;" x1="343.5321" x2="646.6443" y1="317.01" y2="317.01"/><text fill="#000000" font-family="sans-serif" font-size="13" font-weight="bold" lengthAdjust="spacing" textLength="7.436" x="355.5321" y="311.201">4</text><text fill="#000000" font-family="sans-serif" font-size="13" lengthAdjust="spacing" textLength="273.6762" x="366.9681" y="311.201">demande d'envoie d'un mail de confirmation</text></g><g class="message" data-participant-1="bm" data-participant-2="u"><polygon fill="#181818" points="88.0339,344.716,78.0339,348.716,88.0339,352.716,84.0339,348.716" style="stroke:#181818;stroke-width:1;"/><line style="stroke:#181818;stroke-width:1;" x1="82.0339" x2="651.6443" y1="348.716" y2="348.716"/><text fill="#000000" font-family="sans-serif" font-size="13" font-weight="bold" lengthAdjust="spacing" textLength="7.436" x="318.4051" y="342.907">5</text><text fill="#000000" font-family="sans-serif" font-size="13" lengthAdjust="spacing" textLength="81.4321" x="329.8411" y="342.907">evoie du mail</text></g><g class="message" data-participant-1="u" data-participant-2="u"><line style="stroke:#181818;stroke-width:1;" x1="77.0339" x2="119.0339" y1="380.4221" y2="380.4221"/><line style="stroke:#181818;stroke-width:1;" x1="119.0339" x2="119.0339" y1="380.4221" y2="393.4221"/><line style="stroke:#181818;stroke-width:1;" x1="78.0339" x2="119.0339" y1="393.4221" y2="393.4221"/><polygon fill="#181818" points="88.0339,389.4221,78.0339,393.4221,88.0339,397.4221,84.0339,393.4221" style="stroke:#181818;stroke-width:1;"/><text fill="#000000" font-family="sans-serif" font-size="13" font-weight="bold" lengthAdjust="spacing" textLength="7.436" x="84.0339" y="374.6131">6</text><text fill="#000000" font-family="sans-serif" font-size="13" lengthAdjust="spacing" textLength="129.9611" x="95.4699" y="374.6131">consulte la bo&#238;te mail</text></g><path d="M20,408.4221 L82.459,408.4221 L82.459,418.1281 L72.459,428.1281 L20,428.1281 L20,408.4221" fill="#EEEEEE" style="stroke:#000000;stroke-width:1.5;"/><rect fill="none" height="161.5301" style="stroke:#000000;stroke-width:1.5;" width="696.9511" x="20" y="408.4221"/><text fill="#000000" font-family="sans-serif" font-size="13" font-weight="bold" lengthAdjust="spacing" textLength="17.459" x="35" y="423.3191">alt</text><text fill="#000000" font-family="sans-serif" font-size="11" font-weight="bold" lengthAdjust="spacing" textLength="82.7964" x="97.459" y="422.181">[mail non re&#231;u]</text><path d="M30,435.1281 L103.288,435.1281 L103.288,444.8341 L93.288,454.8341 L30,454.8341 L30,435.1281" fill="#EEEEEE" style="stroke:#000000;stroke-width:1.5;"/><rect fill="none" height="127.8241" style="stroke:#000000;stroke-width:1.5;" width="676.9511" x="30" y="435.1281"/><text fill="#000000" font-family="sans-serif" font-size="13" font-weight="bold" lengthAdjust="spacing" textLength="28.288" x="45" y="450.0251">loop</text><text fill="#000000" font-family="sans-serif" font-size="11" font-weight="bold" lengthAdjust="spacing" textLength="175.6358" x="118.288" y="448.887">[Jusqu&#8217;&#224; ce que le mail soit re&#231;u]</text><g class="message" data-participant-1="u" data-participant-2="bm"><polygon fill="#181818" points="640.6443,474.5401,650.6443,478.5401,640.6443,482.5401,644.6443,478.5401" style="stroke:#181818;stroke-width:1;"/><line style="stroke:#181818;stroke-width:1;" x1="77.0339" x2="646.6443" y1="478.5401" y2="478.5401"/><text fill="#000000" font-family="sans-serif" font-size="13" font-weight="bold" lengthAdjust="spacing" textLength="7.436" x="275.258" y="472.7311">7</text><text fill="#000000" font-family="sans-serif" font-size="13" lengthAdjust="spacing" textLength="167.7262" x="286.694" y="472.7311">demande de renvoi du mail</text></g><g class="message" data-participant-1="bm" data-participant-2="u"><polygon fill="#181818" points="88.0339,506.2461,78.0339,510.2461,88.0339,514.2461,84.0339,510.2461" style="stroke:#181818;stroke-width:1;"/><line style="stroke:#181818;stroke-width:1;" x1="82.0339" x2="651.6443" y1="510.2461" y2="510.2461"/><text fill="#000000" font-family="sans-serif" font-size="13" font-weight="bold" lengthAdjust="spacing" textLength="7.436" x="261.2765" y="504.4371">8</text><text fill="#000000" font-family="sans-serif" font-size="13" lengthAdjust="spacing" textLength="195.6892" x="272.7125" y="504.4371">renvoie un mail de confirmation</text></g><g class="message" data-participant-1="u" data-participant-2="u"><line style="stroke:#181818;stroke-width:1;" x1="77.0339" x2="119.0339" y1="541.9521" y2="541.9521"/><line style="stroke:#181818;stroke-width:1;" x1="119.0339" x2="119.0339" y1="541.9521" y2="554.9521"/><line style="stroke:#181818;stroke-width:1;" x1="78.0339" x2="119.0339" y1="554.9521" y2="554.9521"/><polygon fill="#181818" points="88.0339,550.9521,78.0339,554.9521,88.0339,558.9521,84.0339,554.9521" style="stroke:#181818;stroke-width:1;"/><text fill="#000000" font-family="sans-serif" font-size="13" font-weight="bold" lengthAdjust="spacing" textLength="7.436" x="84.0339" y="536.1431">9</text><text fill="#000000" font-family="sans-serif" font-size="13" lengthAdjust="spacing" textLength="129.9611" x="95.4699" y="536.1431">consulte la bo&#238;te mail</text></g><g class="message" data-participant-1="u" data-participant-2="bm"><polygon fill="#181818" points="640.6443,608.5112,650.6443,612.5112,640.6443,616.5112,644.6443,612.5112" style="stroke:#181818;stroke-width:1;"/><line style="stroke:#181818;stroke-width:1;" x1="77.0339" x2="646.6443" y1="612.5112" y2="612.5112"/><text fill="#000000" font-family="sans-serif" font-size="13" font-weight="bold" lengthAdjust="spacing" textLength="14.872" x="315.6361" y="606.7022">10</text><text fill="#000000" font-family="sans-serif" font-size="13" lengthAdjust="spacing" textLength="79.5341" x="334.5081" y="606.7022">valide le mail</text></g><path d="M657,581.9521 L657,626.9521 L1097,626.9521 L1097,591.9521 L1087,581.9521 L657,581.9521" fill="#FEFFDD" style="stroke:#181818;stroke-width:0.5;"/><path d="M1087,581.9521 L1087,591.9521 L1097,591.9521 L1087,581.9521" fill="#FEFFDD" style="stroke:#181818;stroke-width:0.5;"/><text fill="#000000" font-family="sans-serif" font-size="13" lengthAdjust="spacing" textLength="419.0033" x="663" y="600.8492">peut utiliser diff&#233;rentes m&#233;thodes de validation comme par exemple</text><text fill="#000000" font-family="sans-serif" font-size="13" lengthAdjust="spacing" textLength="144.2481" x="663" y="618.5552">le code envoy&#233; par mail</text><g class="message" data-participant-1="bm" data-participant-2="ins"><polygon fill="#181818" points="354.5321,652.0702,344.5321,656.0702,354.5321,660.0702,350.5321,656.0702" style="stroke:#181818;stroke-width:1;"/><line style="stroke:#181818;stroke-width:1;stroke-dasharray:2,2;" x1="348.5321" x2="651.6443" y1="656.0702" y2="656.0702"/><text fill="#000000" font-family="sans-serif" font-size="13" font-weight="bold" lengthAdjust="spacing" textLength="14.872" x="455.9182" y="650.2612">11</text><text fill="#000000" font-family="sans-serif" font-size="13" lengthAdjust="spacing" textLength="65.468" x="474.7902" y="650.2612">mail valid&#233;</text></g><g class="message" data-participant-1="ins" data-participant-2="ins"><line style="stroke:#181818;stroke-width:1;" x1="343.5321" x2="385.5321" y1="687.7762" y2="687.7762"/><line style="stroke:#181818;stroke-width:1;" x1="385.5321" x2="385.5321" y1="687.7762" y2="700.7762"/><line style="stroke:#181818;stroke-width:1;" x1="344.5321" x2="385.5321" y1="700.7762" y2="700.7762"/><polygon fill="#181818" points="354.5321,696.7762,344.5321,700.7762,354.5321,704.7762,350.5321,700.7762" style="stroke:#181818;stroke-width:1;"/><text fill="#000000" font-family="sans-serif" font-size="13" font-weight="bold" lengthAdjust="spacing" textLength="14.872" x="350.5321" y="681.9672">12</text><text fill="#000000" font-family="sans-serif" font-size="13" lengthAdjust="spacing" textLength="169.9621" x="369.4041" y="681.9672">valide l'adresse mail utilis&#233;e</text></g><g class="message" data-participant-1="ins" data-participant-2="u"><polygon fill="#181818" points="88.0339,728.4822,78.0339,732.4822,88.0339,736.4822,84.0339,732.4822" style="stroke:#181818;stroke-width:1;"/><line style="stroke:#181818;stroke-width:1;" x1="82.0339" x2="342.5321" y1="732.4822" y2="732.4822"/><text fill="#000000" font-family="sans-serif" font-size="13" font-weight="bold" lengthAdjust="spacing" textLength="14.872" x="89.0339" y="726.6732">13</text><text fill="#000000" font-family="sans-serif" font-size="13" lengthAdjust="spacing" textLength="223.6262" x="107.9059" y="726.6732">confirmation de la validation du mail</text></g><line style="stroke:#000000;stroke-width:1;stroke-dasharray:2,2;" x1="10" x2="1112.6476" y1="741.4822" y2="741.4822"/><text fill="#000000" font-family="sans-serif" font-size="11" font-weight="bold" lengthAdjust="spacing" textLength="109.8782" x="15" y="753.2411">[adresse non valide]</text><g class="message" data-participant-1="ins" data-participant-2="u"><polygon fill="#181818" points="88.0339,794.8762,78.0339,798.8762,88.0339,802.8762,84.0339,798.8762" style="stroke:#181818;stroke-width:1;"/><line style="stroke:#181818;stroke-width:1;" x1="82.0339" x2="342.5321" y1="798.8762" y2="798.8762"/><text fill="#000000" font-family="sans-serif" font-size="13" font-weight="bold" lengthAdjust="spacing" textLength="14.872" x="96.0149" y="784.2141">14</text><text fill="#000000" font-family="sans-serif" font-size="13" lengthAdjust="spacing" textLength="206.2842" x="114.8869" y="775.3611">pr&#233;vient l'utilisateur que l'adresse</text><text fill="#000000" font-family="sans-serif" font-size="13" lengthAdjust="spacing" textLength="93.4181" x="174.7" y="793.0671">n'est pas valide</text></g><!--SRC=[VLCxZjmm3Err2cAQgNA10IR0jW4215YaIoFRd1aY-gqaEjakrqYNBd2JI_WcEKaeMVQEDqWCo12aH_BnyKbpzevjXr6bp-I2Zjf2mYT6r-DxJ4bVyS7GrK6FBkzGkiy-FkPdWt3pnlWlgfx0uMCcGqbdv7W0dO2L16JgAMYNuV0GWg5UP_AkNfDBQ-GZnb6Ym6eozQwpIftFy27EKnHIbE1yLehXpTiITYg_Fb8ekG25e-UOMeJlXJs_3eZe4aex22nB3r50MEifkTzWezIZ2o68462EzpZ0hvGo0cR0b67KXWPKskGjMpjg-JfxWW6jTWF2S4GtUYeRTaisEUszkr2qLH7LsHB49y05o0ivRgU2JMoalD7G-VbNRkHB_PhFYH8Hvv-iG3xZVO1td9xuzxVlymyPuj9HQoLvodVeyl5VdB689cGsBYjqenfRL__gQPVxFqqK3Bf1bRNnMDHSAIld1HtfUiiL7f0pS3KSHXZeSYbE4QSciFEKRtwGtT1cKjb8TMiHn98oIRJ1uA9KuIp0qihpFDNxMb38G2bQ9xFwexPPSyxJtZYDxTuo2y5vsaonYB0fL1YA5dSaLwtHf1URbjdkpILvWhoDaQHbASelB- -LSpyvSCVYro2lgkKeCly1]--></g></svg>