<svg xmlns="http://www.w3.org/2000/svg" xmlns:xlink="http://www.w3.org/1999/xlink" contentStyleType="text/css" data-diagram-type="SEQUENCE" height="523px" preserveAspectRatio="none" style="width:457px;height:523px;background:#FFFFFF;" version="1.1" viewBox="0 0 457 523" width="457px" zoomAndPan="magnify"><defs/><g><rect fill="none" height="118.8241" style="stroke:#000000;stroke-width:1.5;" width="430.3084" x="9" y="197.186"/><rect fill="none" height="118.8241" style="stroke:#000000;stroke-width:1.5;" width="404.4643" x="22" y="330.01"/><g><title>Utilisateur</title><rect fill="#000000" fill-opacity="0.00000" height="408.7662" width="8" x="135.0339" y="57.0679"/><line style="stroke:#181818;stroke-width:0.5;stroke-dasharray:5,5;" x1="139" x2="139" y1="57.0679" y2="465.8341"/></g><g><title>Application</title><rect fill="#000000" fill-opacity="0.00000" height="408.7662" width="8" x="306.203" y="57.0679"/><line style="stroke:#181818;stroke-width:0.5;stroke-dasharray:5,5;" x1="309.3271" x2="309.3271" y1="57.0679" y2="465.8341"/></g><g class="participant participant-head" data-participant="usr"><text fill="#000000" font-family="sans-serif" font-size="14" lengthAdjust="spacing" textLength="68.0677" x="102" y="52.9659">Utilisateur</text><ellipse cx="139.0339" cy="10" fill="#E2E2F0" rx="4.5" ry="4.5" style="stroke:#181818;stroke-width:0.5;"/><path d="M126.5339,16.5 L126.5339,21.5 L136.0339,21.5 L136.0339,23.7574 L126.5339,33.2574 L130.7765,37.5 L139.0339,29.2426 L147.2912,37.5 L151.5339,33.2574 L142.0339,23.7574 L142.0339,21.5 L151.5339,21.5 L151.5339,16.5 L126.5339,16.5" fill="#E2E2F0" style="stroke:#181818;stroke-width:0.5;"/></g><g class="participant participant-tail" data-participant="usr"><text fill="#000000" font-family="sans-serif" font-size="14" lengthAdjust="spacing" textLength="68.0677" x="102" y="479.8">Utilisateur</text><ellipse cx="139.0339" cy="488.902" fill="#E2E2F0" rx="4.5" ry="4.5" style="stroke:#181818;stroke-width:0.5;"/><path d="M126.5339,495.402 L126.5339,500.402 L136.0339,500.402 L136.0339,502.6594 L126.5339,512.1594 L130.7765,516.402 L139.0339,508.1447 L147.2912,516.402 L151.5339,512.1594 L142.0339,502.6594 L142.0339,500.402 L151.5339,500.402 L151.5339,495.402 L126.5339,495.402" fill="#E2E2F0" style="stroke:#181818;stroke-width:0.5;"/></g><g class="participant participant-head" data-participant="app"><rect fill="#E2E2F0" height="33.0679" rx="2.5" ry="2.5" style="stroke:#181818;stroke-width:0.5;" width="87.7517" x="266.3271" y="23"/><text fill="#000000" font-family="sans-serif" font-size="14" lengthAdjust="spacing" textLength="73.7517" x="273.3271" y="44.9659">Application</text></g><g class="participant participant-tail" data-participant="app"><rect fill="#E2E2F0" height="33.0679" rx="2.5" ry="2.5" style="stroke:#181818;stroke-width:0.5;" width="87.7517" x="266.3271" y="464.8341"/><text fill="#000000" font-family="sans-serif" font-size="14" lengthAdjust="spacing" textLength="73.7517" x="273.3271" y="486.8">Application</text></g><rect fill="#EEEEEE" height="3" style="stroke:#EEEEEE;stroke-width:1;" width="450.3084" x="0" y="88.9209"/><line style="stroke:#000000;stroke-width:1;" x1="0" x2="450.3084" y1="88.9209" y2="88.9209"/><line style="stroke:#000000;stroke-width:1;" x1="0" x2="450.3084" y1="91.9209" y2="91.9209"/><rect fill="#EEEEEE" height="25.706" style="stroke:#000000;stroke-width:2;" width="79.91" x="185.1992" y="77.0679"/><text fill="#000000" font-family="sans-serif" font-size="13" font-weight="bold" lengthAdjust="spacing" textLength="62.53" x="191.1992" y="94.9649">Pr&#233;requis</text><g class="message" data-participant-1="usr" data-participant-2="app"><polygon fill="#181818" points="298.203,132.4799,308.203,136.4799,298.203,140.4799,302.203,136.4799" style="stroke:#181818;stroke-width:1;"/><line style="stroke:#181818;stroke-width:1;" x1="139.0339" x2="304.203" y1="136.4799" y2="136.4799"/><text fill="#000000" font-family="sans-serif" font-size="13" font-weight="bold" lengthAdjust="spacing" textLength="7.436" x="179.8614" y="130.6709">1</text><text fill="#000000" font-family="sans-serif" font-size="13" lengthAdjust="spacing" textLength="78.0781" x="191.2974" y="130.6709">se connecter</text></g><rect fill="#EEEEEE" height="3" style="stroke:#EEEEEE;stroke-width:1;" width="450.3084" x="0" y="166.333"/><line style="stroke:#000000;stroke-width:1;" x1="0" x2="450.3084" y1="166.333" y2="166.333"/><line style="stroke:#000000;stroke-width:1;" x1="0" x2="450.3084" y1="169.333" y2="169.333"/><rect fill="#EEEEEE" height="25.706" style="stroke:#000000;stroke-width:2;" width="81.782" x="184.2632" y="154.4799"/><text fill="#000000" font-family="sans-serif" font-size="13" font-weight="bold" lengthAdjust="spacing" textLength="64.402" x="190.2632" y="172.377">Processus</text><path d="M9,197.186 L71.459,197.186 L71.459,206.892 L61.459,216.892 L9,216.892 L9,197.186" fill="#EEEEEE" style="stroke:#000000;stroke-width:1.5;"/><rect fill="none" height="118.8241" style="stroke:#000000;stroke-width:1.5;" width="430.3084" x="9" y="197.186"/><text fill="#000000" font-family="sans-serif" font-size="13" font-weight="bold" lengthAdjust="spacing" textLength="17.459" x="24" y="212.083">alt</text><text fill="#000000" font-family="sans-serif" font-size="11" font-weight="bold" lengthAdjust="spacing" textLength="109.2732" x="86.459" y="210.9449">[modifier son profil]</text><g class="message" data-participant-1="usr" data-participant-2="app"><polygon fill="#181818" points="298.203,236.598,308.203,240.598,298.203,244.598,302.203,240.598" style="stroke:#181818;stroke-width:1;"/><line style="stroke:#181818;stroke-width:1;" x1="139.0339" x2="304.203" y1="240.598" y2="240.598"/><text fill="#000000" font-family="sans-serif" font-size="13" font-weight="bold" lengthAdjust="spacing" textLength="7.436" x="155.8244" y="234.789">2</text><text fill="#000000" font-family="sans-serif" font-size="13" lengthAdjust="spacing" textLength="126.1521" x="167.2604" y="234.789">Accerder &#224; son profil</text></g><g class="message" data-participant-1="usr" data-participant-2="app"><polygon fill="#181818" points="298.203,268.304,308.203,272.304,298.203,276.304,302.203,272.304" style="stroke:#181818;stroke-width:1;"/><line style="stroke:#181818;stroke-width:1;" x1="139.0339" x2="304.203" y1="272.304" y2="272.304"/><text fill="#000000" font-family="sans-serif" font-size="13" font-weight="bold" lengthAdjust="spacing" textLength="7.436" x="168.2069" y="266.495">3</text><text fill="#000000" font-family="sans-serif" font-size="13" lengthAdjust="spacing" textLength="101.3871" x="179.6429" y="266.495">Modifier le profil</text></g><polygon fill="#FEFFDD" points="29,285.304,419,285.304,429,297.304,419,310.304,29,310.304,19,297.304,29,285.304" style="stroke:#181818;stroke-width:0.5;"/><text fill="#000000" font-family="sans-serif" font-size="13" lengthAdjust="spacing" textLength="255.2552" x="31" y="303.201">Processus 1 d&#233;crit dans le cas d'utilisation</text><text fill="#000000" font-family="sans-serif" font-size="13" lengthAdjust="spacing" text-decoration="underline" textLength="127.6731" x="289.6353" y="303.201">Modifier profil public</text><path d="M22,330.01 L84.459,330.01 L84.459,339.716 L74.459,349.716 L22,349.716 L22,330.01" fill="#EEEEEE" style="stroke:#000000;stroke-width:1.5;"/><rect fill="none" height="118.8241" style="stroke:#000000;stroke-width:1.5;" width="404.4643" x="22" y="330.01"/><text fill="#000000" font-family="sans-serif" font-size="13" font-weight="bold" lengthAdjust="spacing" textLength="17.459" x="37" y="344.907">alt</text><text fill="#000000" font-family="sans-serif" font-size="11" font-weight="bold" lengthAdjust="spacing" textLength="115.2242" x="99.459" y="343.7689">[configuer son profil]</text><g class="message" data-participant-1="usr" data-participant-2="app"><polygon fill="#181818" points="298.203,369.4221,308.203,373.4221,298.203,377.4221,302.203,373.4221" style="stroke:#181818;stroke-width:1;"/><line style="stroke:#181818;stroke-width:1;" x1="139.0339" x2="304.203" y1="373.4221" y2="373.4221"/><text fill="#000000" font-family="sans-serif" font-size="13" font-weight="bold" lengthAdjust="spacing" textLength="7.436" x="151.0339" y="367.6131">4</text><text fill="#000000" font-family="sans-serif" font-size="13" lengthAdjust="spacing" textLength="135.7331" x="162.4699" y="367.6131">Acceder au param&#232;tre</text></g><g class="message" data-participant-1="usr" data-participant-2="app"><polygon fill="#181818" points="298.203,401.1281,308.203,405.1281,298.203,409.1281,302.203,405.1281" style="stroke:#181818;stroke-width:1;"/><line style="stroke:#181818;stroke-width:1;" x1="139.0339" x2="304.203" y1="405.1281" y2="405.1281"/><text fill="#000000" font-family="sans-serif" font-size="13" font-weight="bold" lengthAdjust="spacing" textLength="7.436" x="154.0174" y="399.3191">5</text><text fill="#000000" font-family="sans-serif" font-size="13" lengthAdjust="spacing" textLength="129.7661" x="165.4534" y="399.3191">Configurer le compte</text></g><polygon fill="#FEFFDD" points="42,418.1281,406,418.1281,416,430.1281,406,443.1281,42,443.1281,32,430.1281,42,418.1281" style="stroke:#181818;stroke-width:0.5;"/><text fill="#000000" font-family="sans-serif" font-size="13" lengthAdjust="spacing" textLength="255.2552" x="44" y="436.0251">Processus 1 d&#233;crit dans le cas d'utilisation</text><text fill="#000000" font-family="sans-serif" font-size="13" lengthAdjust="spacing" text-decoration="underline" textLength="101.8291" x="302.6353" y="436.0251">Configurer profil</text><!--SRC=[hP6_JiCm48TtFyMf2nC3ArAGAkPAI8WvkbwkxGd7DcTRYBTXfC-H5-CIbp-L468WK-HyzxlVvs0jCTHno-hoeuI4YYDaVgeSY3USC-vvxMKVW3YKCmgfHBqlBvxX4BsFpyujHx1wAE8bO-6gAy0CDQkpcI8a2KE1rJebBuH5ObW0JCcvheCxdOvgooL3rpaRWykR-IDSMoUW60BJNE84HxA2TM4T-W9Z76Gdh91ZWAHn9zx1_9mbhObO1wEcrz_1pKUS6PwWHXr2B6p-6dDk9rzThc2OZgHIOC2Gvr4omU6Ydkx4bA7lFwDRBgIwjGlf-vR6OO1vXRCNSrtSJ7ud-_eNkTaDAon_QNehoZzmjorEcnt5CTcw_xBx5jwA_YJs3W00]--></g></svg>