<svg xmlns="http://www.w3.org/2000/svg" xmlns:xlink="http://www.w3.org/1999/xlink" contentStyleType="text/css" data-diagram-type="SEQUENCE" height="714px" preserveAspectRatio="none" style="width:638px;height:714px;background:#FFFFFF;" version="1.1" viewBox="0 0 638 714" width="638px" zoomAndPan="magnify"><defs/><g><rect fill="none" height="191.2361" style="stroke:#000000;stroke-width:1.5;" width="611.3661" x="10" y="318.304"/><g><title>Utilisateur</title><rect fill="#000000" fill-opacity="0.00000" height="600.2963" width="8" x="53.0339" y="57.0679"/><line style="stroke:#181818;stroke-width:0.5;stroke-dasharray:5,5;" x1="57" x2="57" y1="57.0679" y2="657.3642"/></g><g><title>Application</title><rect fill="#000000" fill-opacity="0.00000" height="600.2963" width="8" x="359.4031" y="57.0679"/><line style="stroke:#181818;stroke-width:0.5;stroke-dasharray:5,5;" x1="362.5273" x2="362.5273" y1="57.0679" y2="657.3642"/></g><g><title>Serveur mail</title><rect fill="#000000" fill-opacity="0.00000" height="600.2963" width="8" x="563.0593" y="57.0679"/><line style="stroke:#181818;stroke-width:0.5;stroke-dasharray:5,5;" x1="566.7525" x2="566.7525" y1="57.0679" y2="657.3642"/></g><g class="participant participant-head" data-participant="m"><text fill="#000000" font-family="sans-serif" font-size="14" lengthAdjust="spacing" textLength="68.0677" x="20" y="52.9659">Utilisateur</text><ellipse cx="57.0339" cy="10" fill="#E2E2F0" rx="4.5" ry="4.5" style="stroke:#181818;stroke-width:0.5;"/><path d="M44.5339,16.5 L44.5339,21.5 L54.0339,21.5 L54.0339,23.7574 L44.5339,33.2574 L48.7765,37.5 L57.0339,29.2426 L65.2912,37.5 L69.5339,33.2574 L60.0339,23.7574 L60.0339,21.5 L69.5339,21.5 L69.5339,16.5 L44.5339,16.5" fill="#E2E2F0" style="stroke:#181818;stroke-width:0.5;"/></g><g class="participant participant-tail" data-participant="m"><text fill="#000000" font-family="sans-serif" font-size="14" lengthAdjust="spacing" textLength="68.0677" x="20" y="671.3301">Utilisateur</text><ellipse cx="57.0339" cy="680.4321" fill="#E2E2F0" rx="4.5" ry="4.5" style="stroke:#181818;stroke-width:0.5;"/><path d="M44.5339,686.9321 L44.5339,691.9321 L54.0339,691.9321 L54.0339,694.1895 L44.5339,703.6895 L48.7765,707.9321 L57.0339,699.6747 L65.2912,707.9321 L69.5339,703.6895 L60.0339,694.1895 L60.0339,691.9321 L69.5339,691.9321 L69.5339,686.9321 L44.5339,686.9321" fill="#E2E2F0" style="stroke:#181818;stroke-width:0.5;"/></g><g class="participant participant-head" data-participant="ins"><rect fill="#E2E2F0" height="33.0679" rx="2.5" ry="2.5" style="stroke:#181818;stroke-width:0.5;" width="87.7517" x="319.5273" y="23"/><text fill="#000000" font-family="sans-serif" font-size="14" lengthAdjust="spacing" textLength="73.7517" x="326.5273" y="44.9659">Application</text></g><g class="participant participant-tail" data-participant="ins"><rect fill="#E2E2F0" height="33.0679" rx="2.5" ry="2.5" style="stroke:#181818;stroke-width:0.5;" width="87.7517" x="319.5273" y="656.3642"/><text fill="#000000" font-family="sans-serif" font-size="14" lengthAdjust="spacing" textLength="73.7517" x="326.5273" y="678.3301">Application</text></g><g class="participant participant-head" data-participant="bm"><text fill="#000000" font-family="sans-serif" font-size="14" lengthAdjust="spacing" textLength="82.6137" x="522.7525" y="52.9659">Serveur mail</text><ellipse cx="567.0593" cy="10" fill="#E2E2F0" rx="4.5" ry="4.5" style="stroke:#181818;stroke-width:0.5;"/><path d="M554.5593,16.5 L554.5593,21.5 L564.0593,21.5 L564.0593,23.7574 L554.5593,33.2574 L558.8019,37.5 L567.0593,29.2426 L575.3167,37.5 L579.5593,33.2574 L570.0593,23.7574 L570.0593,21.5 L579.5593,21.5 L579.5593,16.5 L554.5593,16.5" fill="#E2E2F0" style="stroke:#181818;stroke-width:0.5;"/></g><g class="participant participant-tail" data-participant="bm"><text fill="#000000" font-family="sans-serif" font-size="14" lengthAdjust="spacing" textLength="82.6137" x="522.7525" y="671.3301">Serveur mail</text><ellipse cx="567.0593" cy="680.4321" fill="#E2E2F0" rx="4.5" ry="4.5" style="stroke:#181818;stroke-width:0.5;"/><path d="M554.5593,686.9321 L554.5593,691.9321 L564.0593,691.9321 L564.0593,694.1895 L554.5593,703.6895 L558.8019,707.9321 L567.0593,699.6747 L575.3167,707.9321 L579.5593,703.6895 L570.0593,694.1895 L570.0593,691.9321 L579.5593,691.9321 L579.5593,686.9321 L554.5593,686.9321" fill="#E2E2F0" style="stroke:#181818;stroke-width:0.5;"/></g><rect fill="#EEEEEE" height="3" style="stroke:#EEEEEE;stroke-width:1;" width="631.3661" x="0" y="88.9209"/><line style="stroke:#000000;stroke-width:1;" x1="0" x2="631.3661" y1="88.9209" y2="88.9209"/><line style="stroke:#000000;stroke-width:1;" x1="0" x2="631.3661" y1="91.9209" y2="91.9209"/><rect fill="#EEEEEE" height="25.706" style="stroke:#000000;stroke-width:2;" width="79.91" x="275.728" y="77.0679"/><text fill="#000000" font-family="sans-serif" font-size="13" font-weight="bold" lengthAdjust="spacing" textLength="62.53" x="281.728" y="94.9649">Pr&#233;requis</text><g class="message" data-participant-1="m" data-participant-2="ins"><polygon fill="#181818" points="351.4031,132.4799,361.4031,136.4799,351.4031,140.4799,355.4031,136.4799" style="stroke:#181818;stroke-width:1;"/><line style="stroke:#181818;stroke-width:1;" x1="57.0339" x2="357.4031" y1="136.4799" y2="136.4799"/><text fill="#000000" font-family="sans-serif" font-size="13" font-weight="bold" lengthAdjust="spacing" textLength="7.436" x="91.6994" y="130.6709">1</text><text fill="#000000" font-family="sans-serif" font-size="13" lengthAdjust="spacing" textLength="225.6022" x="103.1354" y="130.6709">a activ&#233; la r&#233;ception des notifications</text></g><rect fill="#EEEEEE" height="3" style="stroke:#EEEEEE;stroke-width:1;" width="631.3661" x="0" y="166.333"/><line style="stroke:#000000;stroke-width:1;" x1="0" x2="631.3661" y1="166.333" y2="166.333"/><line style="stroke:#000000;stroke-width:1;" x1="0" x2="631.3661" y1="169.333" y2="169.333"/><rect fill="#EEEEEE" height="25.706" style="stroke:#000000;stroke-width:2;" width="81.782" x="274.792" y="154.4799"/><text fill="#000000" font-family="sans-serif" font-size="13" font-weight="bold" lengthAdjust="spacing" textLength="64.402" x="280.792" y="172.377">Processus</text><g class="message" data-participant-1="ins" data-participant-2="ins"><line style="stroke:#181818;stroke-width:1;" x1="363.4031" x2="405.4031" y1="213.892" y2="213.892"/><line style="stroke:#181818;stroke-width:1;" x1="405.4031" x2="405.4031" y1="213.892" y2="226.892"/><line style="stroke:#181818;stroke-width:1;" x1="364.4031" x2="405.4031" y1="226.892" y2="226.892"/><polygon fill="#181818" points="374.4031,222.892,364.4031,226.892,374.4031,230.892,370.4031,226.892" style="stroke:#181818;stroke-width:1;"/><text fill="#000000" font-family="sans-serif" font-size="13" font-weight="bold" lengthAdjust="spacing" textLength="7.436" x="370.4031" y="208.083">2</text><text fill="#000000" font-family="sans-serif" font-size="13" lengthAdjust="spacing" textLength="134.2641" x="381.8391" y="208.083">re&#231;oit une notification</text></g><g class="message" data-participant-1="ins" data-participant-2="ins"><line style="stroke:#181818;stroke-width:1;" x1="363.4031" x2="405.4031" y1="258.598" y2="258.598"/><line style="stroke:#181818;stroke-width:1;" x1="405.4031" x2="405.4031" y1="258.598" y2="271.598"/><line style="stroke:#181818;stroke-width:1;" x1="364.4031" x2="405.4031" y1="271.598" y2="271.598"/><polygon fill="#181818" points="374.4031,267.598,364.4031,271.598,374.4031,275.598,370.4031,271.598" style="stroke:#181818;stroke-width:1;"/><text fill="#000000" font-family="sans-serif" font-size="13" font-weight="bold" lengthAdjust="spacing" textLength="7.436" x="370.4031" y="252.789">3</text><text fill="#000000" font-family="sans-serif" font-size="13" lengthAdjust="spacing" textLength="149.6951" x="381.8391" y="252.789">enregistre la notification</text></g><g class="message" data-participant-1="ins" data-participant-2="m"><polygon fill="#181818" points="68.0339,299.304,58.0339,303.304,68.0339,307.304,64.0339,303.304" style="stroke:#181818;stroke-width:1;"/><line style="stroke:#181818;stroke-width:1;" x1="62.0339" x2="362.4031" y1="303.304" y2="303.304"/><text fill="#000000" font-family="sans-serif" font-size="13" font-weight="bold" lengthAdjust="spacing" textLength="7.436" x="155.1134" y="297.495">4</text><text fill="#000000" font-family="sans-serif" font-size="13" lengthAdjust="spacing" textLength="98.7741" x="166.5495" y="297.495">ping l'utilisateur</text></g><path d="M10,318.304 L72.459,318.304 L72.459,328.01 L62.459,338.01 L10,338.01 L10,318.304" fill="#EEEEEE" style="stroke:#000000;stroke-width:1.5;"/><rect fill="none" height="191.2361" style="stroke:#000000;stroke-width:1.5;" width="611.3661" x="10" y="318.304"/><text fill="#000000" font-family="sans-serif" font-size="13" font-weight="bold" lengthAdjust="spacing" textLength="17.459" x="25" y="333.201">alt</text><text fill="#000000" font-family="sans-serif" font-size="11" font-weight="bold" lengthAdjust="spacing" textLength="171.4668" x="87.459" y="332.0629">[option d&#8217;envoi de mail activ&#233;e]</text><g class="message" data-participant-1="ins" data-participant-2="bm"><polygon fill="#181818" points="555.0593,357.716,565.0593,361.716,555.0593,365.716,559.0593,361.716" style="stroke:#181818;stroke-width:1;"/><line style="stroke:#181818;stroke-width:1;" x1="363.4031" x2="561.0593" y1="361.716" y2="361.716"/><text fill="#000000" font-family="sans-serif" font-size="13" font-weight="bold" lengthAdjust="spacing" textLength="7.436" x="375.4031" y="355.907">5</text><text fill="#000000" font-family="sans-serif" font-size="13" lengthAdjust="spacing" textLength="168.2202" x="386.8391" y="355.907">demande l'envoie d'un mail</text></g><g class="message" data-participant-1="bm" data-participant-2="m"><polygon fill="#181818" points="68.0339,389.4221,58.0339,393.4221,68.0339,397.4221,64.0339,393.4221" style="stroke:#181818;stroke-width:1;"/><line style="stroke:#181818;stroke-width:1;" x1="62.0339" x2="566.0593" y1="393.4221" y2="393.4221"/><text fill="#000000" font-family="sans-serif" font-size="13" font-weight="bold" lengthAdjust="spacing" textLength="7.436" x="261.576" y="387.6131">6</text><text fill="#000000" font-family="sans-serif" font-size="13" lengthAdjust="spacing" textLength="89.5051" x="273.012" y="387.6131">envoie un mail</text></g><g class="message" data-participant-1="m" data-participant-2="bm"><polygon fill="#181818" points="555.0593,421.1281,565.0593,425.1281,555.0593,429.1281,559.0593,425.1281" style="stroke:#181818;stroke-width:1;"/><line style="stroke:#181818;stroke-width:1;stroke-dasharray:2,2;" x1="57.0339" x2="561.0593" y1="425.1281" y2="425.1281"/><text fill="#000000" font-family="sans-serif" font-size="13" font-weight="bold" lengthAdjust="spacing" textLength="7.436" x="278.0731" y="419.3191">7</text><text fill="#000000" font-family="sans-serif" font-size="13" lengthAdjust="spacing" textLength="56.511" x="289.5091" y="419.3191">mail re&#231;u</text></g><g class="message" data-participant-1="m" data-participant-2="m"><line style="stroke:#181818;stroke-width:1;" x1="57.0339" x2="99.0339" y1="456.8341" y2="456.8341"/><line style="stroke:#181818;stroke-width:1;" x1="99.0339" x2="99.0339" y1="456.8341" y2="469.8341"/><line style="stroke:#181818;stroke-width:1;" x1="58.0339" x2="99.0339" y1="469.8341" y2="469.8341"/><polygon fill="#181818" points="68.0339,465.8341,58.0339,469.8341,68.0339,473.8341,64.0339,469.8341" style="stroke:#181818;stroke-width:1;"/><text fill="#000000" font-family="sans-serif" font-size="13" font-weight="bold" lengthAdjust="spacing" textLength="7.436" x="64.0339" y="451.0251">8</text><text fill="#000000" font-family="sans-serif" font-size="13" lengthAdjust="spacing" textLength="129.9611" x="75.4699" y="451.0251">consulte la bo&#238;te mail</text></g><g class="message" data-participant-1="m" data-participant-2="bm"><polygon fill="#181818" points="555.0593,497.5401,565.0593,501.5401,555.0593,505.5401,559.0593,501.5401" style="stroke:#181818;stroke-width:1;"/><line style="stroke:#181818;stroke-width:1;stroke-dasharray:2,2;" x1="57.0339" x2="561.0593" y1="501.5401" y2="501.5401"/><text fill="#000000" font-family="sans-serif" font-size="13" font-weight="bold" lengthAdjust="spacing" textLength="7.436" x="285.8666" y="495.7311">9</text><text fill="#000000" font-family="sans-serif" font-size="13" lengthAdjust="spacing" textLength="40.924" x="297.3026" y="495.7311">mail lu</text></g><g class="message" data-participant-1="m" data-participant-2="ins"><polygon fill="#181818" points="351.4031,536.2461,361.4031,540.2461,351.4031,544.2461,355.4031,540.2461" style="stroke:#181818;stroke-width:1;"/><line style="stroke:#181818;stroke-width:1;" x1="57.0339" x2="357.4031" y1="540.2461" y2="540.2461"/><text fill="#000000" font-family="sans-serif" font-size="13" font-weight="bold" lengthAdjust="spacing" textLength="14.872" x="125.0639" y="534.4371">10</text><text fill="#000000" font-family="sans-serif" font-size="13" lengthAdjust="spacing" textLength="151.4371" x="143.9359" y="534.4371">connexion &#224; l'application</text></g><polygon fill="#FEFFDD" points="28,553.2461,594,553.2461,604,565.2461,594,578.2461,28,578.2461,18,565.2461,28,553.2461" style="stroke:#181818;stroke-width:0.5;"/><text fill="#000000" font-family="sans-serif" font-size="13" lengthAdjust="spacing" textLength="255.2552" x="150.0479" y="571.1431">Processus 7 d&#233;crit dans le cas d'utilisation</text><text fill="#000000" font-family="sans-serif" font-size="13" lengthAdjust="spacing" text-decoration="underline" textLength="63.6351" x="408.6832" y="571.1431">connexion</text><g class="message" data-participant-1="m" data-participant-2="ins"><polygon fill="#181818" points="351.4031,603.6582,361.4031,607.6582,351.4031,611.6582,355.4031,607.6582" style="stroke:#181818;stroke-width:1;"/><line style="stroke:#181818;stroke-width:1;" x1="57.0339" x2="357.4031" y1="607.6582" y2="607.6582"/><text fill="#000000" font-family="sans-serif" font-size="13" font-weight="bold" lengthAdjust="spacing" textLength="14.872" x="114.9044" y="601.8492">11</text><text fill="#000000" font-family="sans-serif" font-size="13" lengthAdjust="spacing" textLength="171.7561" x="133.7764" y="601.8492">v&#233;rification des notifications</text></g><g class="message" data-participant-1="m" data-participant-2="ins"><polygon fill="#181818" points="351.4031,635.3642,361.4031,639.3642,351.4031,643.3642,355.4031,639.3642" style="stroke:#181818;stroke-width:1;"/><line style="stroke:#181818;stroke-width:1;" x1="57.0339" x2="357.4031" y1="639.3642" y2="639.3642"/><text fill="#000000" font-family="sans-serif" font-size="13" font-weight="bold" lengthAdjust="spacing" textLength="14.872" x="69.0339" y="633.5552">12</text><text fill="#000000" font-family="sans-serif" font-size="13" lengthAdjust="spacing" textLength="263.4973" x="87.9059" y="633.5552">interaction et suppression des notifications</text></g><!--SRC=[TLAxJiD04EplArPfKb4Z8Haf7u24555Rv_EIhBZRC_S8qF4RT7Ge3J_XF-5Bs3kSE962I-_CxCpiwPmyPzTXKF69UD11EuZud94Dtc6CUeChIni6WvpEKDea7zRfpI9ilRN-HQdw2nOFYIn5dJ271UW8JWaZaQ51SuB5QXWi6Pt8SnqJnmDpZM4dB72QR9rrJgccWVimxeEueWXDevI3gzj2km5TRD1kt8FL8223Gz657YEmJ_GuBOgJZ3UIAV-fYC1H9-3uvIb1PZpZdO6G0suefe1bsoMOku61U0DscUSEbBO9_EJhv_q3UUT97DQK1_-eGBv9fXET7frc0TbbnIFqoyoLKf6Tc_PDqzEPZ2QHkg5aouT1vHWf9DjKOtH-_4xuBzbcXToVD2vSnjUIPVmKSte-fjfA9IY1We-nQirzNqClnmdISAybexmP8zVjZpKLlROzQhTjsLegnfFLKbCuLdxXn3EIobijpGeE4yGy346CNAJz0W00]--></g></svg>