<svg xmlns="http://www.w3.org/2000/svg" xmlns:xlink="http://www.w3.org/1999/xlink" contentStyleType="text/css" data-diagram-type="SEQUENCE" height="557px" preserveAspectRatio="none" style="width:560px;height:557px;background:#FFFFFF;" version="1.1" viewBox="0 0 560 557" width="560px" zoomAndPan="magnify"><defs/><g><rect fill="none" height="127.8241" style="stroke:#000000;stroke-width:1.5;" width="533.6513" x="10" y="259.598"/><g><title>Utilisateur</title><rect fill="#000000" fill-opacity="0.00000" height="442.4722" width="8" x="53.0339" y="57.0679"/><line style="stroke:#181818;stroke-width:0.5;stroke-dasharray:5,5;" x1="57" x2="57" y1="57.0679" y2="499.5401"/></g><g><title>Application</title><rect fill="#000000" fill-opacity="0.00000" height="442.4722" width="8" x="352.6951" y="57.0679"/><line style="stroke:#181818;stroke-width:0.5;stroke-dasharray:5,5;" x1="355.8193" x2="355.8193" y1="57.0679" y2="499.5401"/></g><g class="participant participant-head" data-participant="usr"><text fill="#000000" font-family="sans-serif" font-size="14" lengthAdjust="spacing" textLength="68.0677" x="20" y="52.9659">Utilisateur</text><ellipse cx="57.0339" cy="10" fill="#E2E2F0" rx="4.5" ry="4.5" style="stroke:#181818;stroke-width:0.5;"/><path d="M44.5339,16.5 L44.5339,21.5 L54.0339,21.5 L54.0339,23.7574 L44.5339,33.2574 L48.7765,37.5 L57.0339,29.2426 L65.2912,37.5 L69.5339,33.2574 L60.0339,23.7574 L60.0339,21.5 L69.5339,21.5 L69.5339,16.5 L44.5339,16.5" fill="#E2E2F0" style="stroke:#181818;stroke-width:0.5;"/></g><g class="participant participant-tail" data-participant="usr"><text fill="#000000" font-family="sans-serif" font-size="14" lengthAdjust="spacing" textLength="68.0677" x="20" y="513.5061">Utilisateur</text><ellipse cx="57.0339" cy="522.608" fill="#E2E2F0" rx="4.5" ry="4.5" style="stroke:#181818;stroke-width:0.5;"/><path d="M44.5339,529.108 L44.5339,534.108 L54.0339,534.108 L54.0339,536.3654 L44.5339,545.8654 L48.7765,550.108 L57.0339,541.8507 L65.2912,550.108 L69.5339,545.8654 L60.0339,536.3654 L60.0339,534.108 L69.5339,534.108 L69.5339,529.108 L44.5339,529.108" fill="#E2E2F0" style="stroke:#181818;stroke-width:0.5;"/></g><g class="participant participant-head" data-participant="app"><rect fill="#E2E2F0" height="33.0679" rx="2.5" ry="2.5" style="stroke:#181818;stroke-width:0.5;" width="87.7517" x="312.8193" y="23"/><text fill="#000000" font-family="sans-serif" font-size="14" lengthAdjust="spacing" textLength="73.7517" x="319.8193" y="44.9659">Application</text></g><g class="participant participant-tail" data-participant="app"><rect fill="#E2E2F0" height="33.0679" rx="2.5" ry="2.5" style="stroke:#181818;stroke-width:0.5;" width="87.7517" x="312.8193" y="498.5401"/><text fill="#000000" font-family="sans-serif" font-size="14" lengthAdjust="spacing" textLength="73.7517" x="319.8193" y="520.5061">Application</text></g><rect fill="#EEEEEE" height="3" style="stroke:#EEEEEE;stroke-width:1;" width="553.6513" x="0" y="88.9209"/><line style="stroke:#000000;stroke-width:1;" x1="0" x2="553.6513" y1="88.9209" y2="88.9209"/><line style="stroke:#000000;stroke-width:1;" x1="0" x2="553.6513" y1="91.9209" y2="91.9209"/><rect fill="#EEEEEE" height="25.706" style="stroke:#000000;stroke-width:2;" width="81.782" x="235.9346" y="77.0679"/><text fill="#000000" font-family="sans-serif" font-size="13" font-weight="bold" lengthAdjust="spacing" textLength="64.402" x="241.9346" y="94.9649">Processus</text><g class="message" data-participant-1="usr" data-participant-2="app"><polygon fill="#181818" points="344.6951,132.4799,354.6951,136.4799,344.6951,140.4799,348.6951,136.4799" style="stroke:#181818;stroke-width:1;"/><line style="stroke:#181818;stroke-width:1;" x1="57.0339" x2="350.6951" y1="136.4799" y2="136.4799"/><text fill="#000000" font-family="sans-serif" font-size="13" font-weight="bold" lengthAdjust="spacing" textLength="7.436" x="107.2149" y="130.6709">1</text><text fill="#000000" font-family="sans-serif" font-size="13" lengthAdjust="spacing" textLength="187.8631" x="118.6509" y="130.6709">Acc&#232;de &#224; la page de connexion</text></g><g class="message" data-participant-1="app" data-participant-2="usr"><polygon fill="#181818" points="68.0339,164.186,58.0339,168.186,68.0339,172.186,64.0339,168.186" style="stroke:#181818;stroke-width:1;"/><line style="stroke:#181818;stroke-width:1;" x1="62.0339" x2="355.6951" y1="168.186" y2="168.186"/><text fill="#000000" font-family="sans-serif" font-size="13" font-weight="bold" lengthAdjust="spacing" textLength="7.436" x="88.8524" y="162.377">2</text><text fill="#000000" font-family="sans-serif" font-size="13" lengthAdjust="spacing" textLength="224.5882" x="100.2884" y="162.377">Demande de renseigner les donn&#233;es</text></g><g class="message" data-participant-1="usr" data-participant-2="app"><polygon fill="#181818" points="344.6951,195.892,354.6951,199.892,344.6951,203.892,348.6951,199.892" style="stroke:#181818;stroke-width:1;"/><line style="stroke:#181818;stroke-width:1;" x1="57.0339" x2="350.6951" y1="199.892" y2="199.892"/><text fill="#000000" font-family="sans-serif" font-size="13" font-weight="bold" lengthAdjust="spacing" textLength="7.436" x="69.0339" y="194.083">3</text><text fill="#000000" font-family="sans-serif" font-size="13" lengthAdjust="spacing" textLength="264.2253" x="80.4699" y="194.083">Renseigne son pseudo et son mot de passe</text></g><g class="message" data-participant-1="app" data-participant-2="app"><line style="stroke:#181818;stroke-width:1;" x1="356.6951" x2="398.6951" y1="231.598" y2="231.598"/><line style="stroke:#181818;stroke-width:1;" x1="398.6951" x2="398.6951" y1="231.598" y2="244.598"/><line style="stroke:#181818;stroke-width:1;" x1="357.6951" x2="398.6951" y1="244.598" y2="244.598"/><polygon fill="#181818" points="367.6951,240.598,357.6951,244.598,367.6951,248.598,363.6951,244.598" style="stroke:#181818;stroke-width:1;"/><text fill="#000000" font-family="sans-serif" font-size="13" font-weight="bold" lengthAdjust="spacing" textLength="7.436" x="363.6951" y="225.789">4</text><text fill="#000000" font-family="sans-serif" font-size="13" lengthAdjust="spacing" textLength="156.5201" x="375.1311" y="225.789">V&#233;rifications des donn&#233;es</text></g><path d="M10,259.598 L72.459,259.598 L72.459,269.304 L62.459,279.304 L10,279.304 L10,259.598" fill="#EEEEEE" style="stroke:#000000;stroke-width:1.5;"/><rect fill="none" height="127.8241" style="stroke:#000000;stroke-width:1.5;" width="533.6513" x="10" y="259.598"/><text fill="#000000" font-family="sans-serif" font-size="13" font-weight="bold" lengthAdjust="spacing" textLength="17.459" x="25" y="274.495">alt</text><text fill="#000000" font-family="sans-serif" font-size="11" font-weight="bold" lengthAdjust="spacing" textLength="100.4953" x="87.459" y="273.3569">[donn&#233;es invalide]</text><g class="message" data-participant-1="app" data-participant-2="usr"><polygon fill="#181818" points="68.0339,299.01,58.0339,303.01,68.0339,307.01,64.0339,303.01" style="stroke:#181818;stroke-width:1;"/><line style="stroke:#181818;stroke-width:1;" x1="62.0339" x2="355.6951" y1="303.01" y2="303.01"/><text fill="#000000" font-family="sans-serif" font-size="13" font-weight="bold" lengthAdjust="spacing" textLength="7.436" x="149.387" y="297.201">5</text><text fill="#000000" font-family="sans-serif" font-size="13" lengthAdjust="spacing" textLength="103.5191" x="160.823" y="297.201">donn&#233;es invalide</text></g><g class="message" data-participant-1="usr" data-participant-2="app"><polygon fill="#181818" points="344.6951,330.716,354.6951,334.716,344.6951,338.716,348.6951,334.716" style="stroke:#181818;stroke-width:1;"/><line style="stroke:#181818;stroke-width:1;" x1="57.0339" x2="350.6951" y1="334.716" y2="334.716"/><text fill="#000000" font-family="sans-serif" font-size="13" font-weight="bold" lengthAdjust="spacing" textLength="7.436" x="101.6379" y="328.907">6</text><text fill="#000000" font-family="sans-serif" font-size="13" lengthAdjust="spacing" textLength="199.0172" x="113.0739" y="328.907">renseigne les nouvelles donn&#233;es</text></g><g class="message" data-participant-1="app" data-participant-2="app"><line style="stroke:#181818;stroke-width:1;" x1="356.6951" x2="398.6951" y1="366.4221" y2="366.4221"/><line style="stroke:#181818;stroke-width:1;" x1="398.6951" x2="398.6951" y1="366.4221" y2="379.4221"/><line style="stroke:#181818;stroke-width:1;" x1="357.6951" x2="398.6951" y1="379.4221" y2="379.4221"/><polygon fill="#181818" points="367.6951,375.4221,357.6951,379.4221,367.6951,383.4221,363.6951,379.4221" style="stroke:#181818;stroke-width:1;"/><text fill="#000000" font-family="sans-serif" font-size="13" font-weight="bold" lengthAdjust="spacing" textLength="7.436" x="363.6951" y="360.6131">7</text><text fill="#000000" font-family="sans-serif" font-size="13" lengthAdjust="spacing" textLength="156.5201" x="375.1311" y="360.6131">V&#233;rifications des donn&#233;es</text></g><g class="message" data-participant-1="app" data-participant-2="usr"><polygon fill="#181818" points="68.0339,414.1281,58.0339,418.1281,68.0339,422.1281,64.0339,418.1281" style="stroke:#181818;stroke-width:1;"/><line style="stroke:#181818;stroke-width:1;" x1="62.0339" x2="355.6951" y1="418.1281" y2="418.1281"/><text fill="#000000" font-family="sans-serif" font-size="13" font-weight="bold" lengthAdjust="spacing" textLength="7.436" x="144.3365" y="412.3191">8</text><text fill="#000000" font-family="sans-serif" font-size="13" lengthAdjust="spacing" textLength="113.6201" x="155.7725" y="412.3191">Valide les donn&#233;es</text></g><g class="message" data-participant-1="app" data-participant-2="usr"><polygon fill="#181818" points="68.0339,445.8341,58.0339,449.8341,68.0339,453.8341,64.0339,449.8341" style="stroke:#181818;stroke-width:1;"/><line style="stroke:#181818;stroke-width:1;" x1="62.0339" x2="355.6951" y1="449.8341" y2="449.8341"/><text fill="#000000" font-family="sans-serif" font-size="13" font-weight="bold" lengthAdjust="spacing" textLength="7.436" x="119.5324" y="444.0251">9</text><text fill="#000000" font-family="sans-serif" font-size="13" lengthAdjust="spacing" textLength="163.2281" x="130.9684" y="444.0251">Confirme l'authentifiaction</text></g><g class="message" data-participant-1="app" data-participant-2="usr"><polygon fill="#181818" points="68.0339,477.5401,58.0339,481.5401,68.0339,485.5401,64.0339,481.5401" style="stroke:#181818;stroke-width:1;"/><line style="stroke:#181818;stroke-width:1;" x1="62.0339" x2="355.6951" y1="481.5401" y2="481.5401"/><text fill="#000000" font-family="sans-serif" font-size="13" font-weight="bold" lengthAdjust="spacing" textLength="14.872" x="96.0609" y="475.7311">10</text><text fill="#000000" font-family="sans-serif" font-size="13" lengthAdjust="spacing" textLength="202.7352" x="114.9329" y="475.7311">Redirection vers la page d'acceuil</text></g><!--SRC=[bP91JiCm44NtFiMecwwuGAKWLR15GaLqFpZJTeGpDXwxm6rOqdFaOZYcBGga2xApy_xy_srZJbvozqJHw3DBm8WTABra4ajtf8fRMZhU2bYIDABG9XyVqhiZs7dd_AinTGjcZuaTAoRASGQea3MQeabiEQ0ac2r3S6mniPSAO0Z6D0tSHs-BPrPe6WFrArgukXu8MC3Islwp9UW_m264aWtAodeHUYkpZfA1BP91kO1Rwb3QoaKIfLA58ZXIQ8kiFv1E6QrEAAWN24gvzK2fhZgVXca1LMdi-ArTzuV8csEzOlFN2bqwRm7B7Xstfr6_ub_6HddFrMepyNbFRgBZlvEIj5E7kgvHfavnXDrusN3i2ZZ7d7Rb0HMtyaOkNDMAMevKVyEUelxSyHojfSpk2m00]--></g></svg>