<svg xmlns="http://www.w3.org/2000/svg" xmlns:xlink="http://www.w3.org/1999/xlink" contentStyleType="text/css" data-diagram-type="SEQUENCE" height="528px" preserveAspectRatio="none" style="width:624px;height:528px;background:#FFFFFF;" version="1.1" viewBox="0 0 624 528" width="624px" zoomAndPan="magnify"><defs/><g><rect fill="none" height="144.806" style="stroke:#000000;stroke-width:1.5;" width="519.3642" x="10" y="309.304"/><g><title>Utilisateur</title><rect fill="#000000" fill-opacity="0.00000" height="414.0421" width="8" x="53.0339" y="57.0679"/><line style="stroke:#181818;stroke-width:0.5;stroke-dasharray:5,5;" x1="57" x2="57" y1="57.0679" y2="471.11"/></g><g><title>Application</title><rect fill="#000000" fill-opacity="0.00000" height="414.0421" width="8" x="375.6791" y="57.0679"/><line style="stroke:#181818;stroke-width:0.5;stroke-dasharray:5,5;" x1="378.8032" x2="378.8032" y1="57.0679" y2="471.11"/></g><g class="participant participant-head" data-participant="u"><text fill="#000000" font-family="sans-serif" font-size="14" lengthAdjust="spacing" textLength="68.0677" x="20" y="52.9659">Utilisateur</text><ellipse cx="57.0339" cy="10" fill="#E2E2F0" rx="4.5" ry="4.5" style="stroke:#181818;stroke-width:0.5;"/><path d="M44.5339,16.5 L44.5339,21.5 L54.0339,21.5 L54.0339,23.7574 L44.5339,33.2574 L48.7765,37.5 L57.0339,29.2426 L65.2912,37.5 L69.5339,33.2574 L60.0339,23.7574 L60.0339,21.5 L69.5339,21.5 L69.5339,16.5 L44.5339,16.5" fill="#E2E2F0" style="stroke:#181818;stroke-width:0.5;"/></g><g class="participant participant-tail" data-participant="u"><text fill="#000000" font-family="sans-serif" font-size="14" lengthAdjust="spacing" textLength="68.0677" x="20" y="485.0759">Utilisateur</text><ellipse cx="57.0339" cy="494.1779" fill="#E2E2F0" rx="4.5" ry="4.5" style="stroke:#181818;stroke-width:0.5;"/><path d="M44.5339,500.6779 L44.5339,505.6779 L54.0339,505.6779 L54.0339,507.9352 L44.5339,517.4352 L48.7765,521.6779 L57.0339,513.4205 L65.2912,521.6779 L69.5339,517.4352 L60.0339,507.9352 L60.0339,505.6779 L69.5339,505.6779 L69.5339,500.6779 L44.5339,500.6779" fill="#E2E2F0" style="stroke:#181818;stroke-width:0.5;"/></g><g class="participant participant-head" data-participant="ins"><rect fill="#E2E2F0" height="33.0679" rx="2.5" ry="2.5" style="stroke:#181818;stroke-width:0.5;" width="87.7517" x="335.8032" y="23"/><text fill="#000000" font-family="sans-serif" font-size="14" lengthAdjust="spacing" textLength="73.7517" x="342.8032" y="44.9659">Application</text></g><g class="participant participant-tail" data-participant="ins"><rect fill="#E2E2F0" height="33.0679" rx="2.5" ry="2.5" style="stroke:#181818;stroke-width:0.5;" width="87.7517" x="335.8032" y="470.11"/><text fill="#000000" font-family="sans-serif" font-size="14" lengthAdjust="spacing" textLength="73.7517" x="342.8032" y="492.0759">Application</text></g><rect fill="#EEEEEE" height="3" style="stroke:#EEEEEE;stroke-width:1;" width="617.7693" x="0" y="88.9209"/><line style="stroke:#000000;stroke-width:1;" x1="0" x2="617.7693" y1="88.9209" y2="88.9209"/><line style="stroke:#000000;stroke-width:1;" x1="0" x2="617.7693" y1="91.9209" y2="91.9209"/><rect fill="#EEEEEE" height="25.706" style="stroke:#000000;stroke-width:2;" width="79.91" x="268.9296" y="77.0679"/><text fill="#000000" font-family="sans-serif" font-size="13" font-weight="bold" lengthAdjust="spacing" textLength="62.53" x="274.9296" y="94.9649">Pr&#233;requis</text><g class="message" data-participant-1="u" data-participant-2="ins"><polygon fill="#181818" points="367.6791,132.4799,377.6791,136.4799,367.6791,140.4799,371.6791,136.4799" style="stroke:#181818;stroke-width:1;"/><line style="stroke:#181818;stroke-width:1;" x1="57.0339" x2="373.6791" y1="136.4799" y2="136.4799"/><text fill="#000000" font-family="sans-serif" font-size="13" font-weight="bold" lengthAdjust="spacing" textLength="7.436" x="152.4484" y="130.6709">1</text><text fill="#000000" font-family="sans-serif" font-size="13" lengthAdjust="spacing" textLength="120.3801" x="163.8844" y="130.6709">inscription en cours</text></g><rect fill="#EEEEEE" height="3" style="stroke:#EEEEEE;stroke-width:1;" width="617.7693" x="0" y="166.333"/><line style="stroke:#000000;stroke-width:1;" x1="0" x2="617.7693" y1="166.333" y2="166.333"/><line style="stroke:#000000;stroke-width:1;" x1="0" x2="617.7693" y1="169.333" y2="169.333"/><rect fill="#EEEEEE" height="25.706" style="stroke:#000000;stroke-width:2;" width="81.782" x="267.9936" y="154.4799"/><text fill="#000000" font-family="sans-serif" font-size="13" font-weight="bold" lengthAdjust="spacing" textLength="64.402" x="273.9936" y="172.377">Processus</text><g class="message" data-participant-1="u" data-participant-2="ins"><polygon fill="#181818" points="367.6791,209.892,377.6791,213.892,367.6791,217.892,371.6791,213.892" style="stroke:#181818;stroke-width:1;"/><line style="stroke:#181818;stroke-width:1;" x1="57.0339" x2="373.6791" y1="213.892" y2="213.892"/><text fill="#000000" font-family="sans-serif" font-size="13" font-weight="bold" lengthAdjust="spacing" textLength="7.436" x="125.7789" y="208.083">2</text><text fill="#000000" font-family="sans-serif" font-size="13" lengthAdjust="spacing" textLength="173.7191" x="137.2149" y="208.083">envoie ses papiers d'identit&#233;</text></g><g class="message" data-participant-1="ins" data-participant-2="ins"><line style="stroke:#181818;stroke-width:1;" x1="379.6791" x2="421.6791" y1="245.598" y2="245.598"/><line style="stroke:#181818;stroke-width:1;" x1="421.6791" x2="421.6791" y1="245.598" y2="258.598"/><line style="stroke:#181818;stroke-width:1;" x1="380.6791" x2="421.6791" y1="258.598" y2="258.598"/><polygon fill="#181818" points="390.6791,254.598,380.6791,258.598,390.6791,262.598,386.6791,258.598" style="stroke:#181818;stroke-width:1;"/><text fill="#000000" font-family="sans-serif" font-size="13" font-weight="bold" lengthAdjust="spacing" textLength="7.436" x="386.6791" y="239.789">3</text><text fill="#000000" font-family="sans-serif" font-size="13" lengthAdjust="spacing" textLength="212.6542" x="398.1151" y="239.789">processus de v&#233;rification d'identit&#233;</text></g><polygon fill="#FEFFDD" points="29,271.598,407,271.598,417,283.598,407,296.598,29,296.598,19,283.598,29,271.598" style="stroke:#181818;stroke-width:0.5;"/><text fill="#000000" font-family="sans-serif" font-size="13" lengthAdjust="spacing" textLength="255.2552" x="38.3118" y="289.495">Processus 3 d&#233;crit dans le cas d'utilisation</text><text fill="#000000" font-family="sans-serif" font-size="13" lengthAdjust="spacing" text-decoration="underline" textLength="101.2961" x="296.9471" y="289.495">g&#233;rer inscription</text><path d="M10,309.304 L72.459,309.304 L72.459,319.01 L62.459,329.01 L10,329.01 L10,309.304" fill="#EEEEEE" style="stroke:#000000;stroke-width:1.5;"/><rect fill="none" height="144.806" style="stroke:#000000;stroke-width:1.5;" width="519.3642" x="10" y="309.304"/><text fill="#000000" font-family="sans-serif" font-size="13" font-weight="bold" lengthAdjust="spacing" textLength="17.459" x="25" y="324.201">alt</text><text fill="#000000" font-family="sans-serif" font-size="11" font-weight="bold" lengthAdjust="spacing" textLength="94.8193" x="87.459" y="323.0629">[demande valide]</text><g class="message" data-participant-1="ins" data-participant-2="ins"><line style="stroke:#181818;stroke-width:1;" x1="379.6791" x2="421.6791" y1="352.716" y2="352.716"/><line style="stroke:#181818;stroke-width:1;" x1="421.6791" x2="421.6791" y1="352.716" y2="365.716"/><line style="stroke:#181818;stroke-width:1;" x1="380.6791" x2="421.6791" y1="365.716" y2="365.716"/><polygon fill="#181818" points="390.6791,361.716,380.6791,365.716,390.6791,369.716,386.6791,365.716" style="stroke:#181818;stroke-width:1;"/><text fill="#000000" font-family="sans-serif" font-size="13" font-weight="bold" lengthAdjust="spacing" textLength="7.436" x="386.6791" y="346.907">4</text><text fill="#000000" font-family="sans-serif" font-size="13" lengthAdjust="spacing" textLength="119.2491" x="398.1151" y="346.907">cr&#233;ation du compte</text></g><g class="message" data-participant-1="ins" data-participant-2="u"><polygon fill="#181818" points="68.0339,393.4221,58.0339,397.4221,68.0339,401.4221,64.0339,397.4221" style="stroke:#181818;stroke-width:1;"/><line style="stroke:#181818;stroke-width:1;" x1="62.0339" x2="378.6791" y1="397.4221" y2="397.4221"/><text fill="#000000" font-family="sans-serif" font-size="13" font-weight="bold" lengthAdjust="spacing" textLength="7.436" x="109.4119" y="391.6131">5</text><text fill="#000000" font-family="sans-serif" font-size="13" lengthAdjust="spacing" textLength="206.4532" x="120.8479" y="391.6131">notifie l'utilisateur de la validation</text></g><line style="stroke:#000000;stroke-width:1;stroke-dasharray:2,2;" x1="10" x2="529.3642" y1="406.4221" y2="406.4221"/><text fill="#000000" font-family="sans-serif" font-size="11" font-weight="bold" lengthAdjust="spacing" textLength="118.9421" x="15" y="418.181">[demande non valide]</text><g class="message" data-participant-1="ins" data-participant-2="u"><polygon fill="#181818" points="68.0339,442.11,58.0339,446.11,68.0339,450.11,64.0339,446.11" style="stroke:#181818;stroke-width:1;"/><line style="stroke:#181818;stroke-width:1;" x1="62.0339" x2="378.6791" y1="446.11" y2="446.11"/><text fill="#000000" font-family="sans-serif" font-size="13" font-weight="bold" lengthAdjust="spacing" textLength="7.436" x="69.0339" y="440.301">6</text><text fill="#000000" font-family="sans-serif" font-size="13" lengthAdjust="spacing" textLength="287.2092" x="80.4699" y="440.301">notifie l'utilisateur du refus et de la justification</text></g><!--SRC=[TL6zJWCn3Dxp55ON9YQsIeVK1q12GimdatDRGov9OwU8H-fpzCLmZkDeGMJ84Flx3LPDiOulL9oySSnOS0IXGwNewO54S4URmBi8dg9URQ7NL9xq8n3iKmZftKqli7fM3YoeLCiAKA0w0oXxpXWLLfkS0tjKJd4QSnJdkWuUo_bKJ9a5kiwv2hVtRRPkbo-S6m38ZAHQlX79cyNw6q3nc9WiXa36p5G4XXiUB03h-UHiPrdD2yL0S3G3l9szNK7sCIbPuf947DZvaRw3uNmoVme36h6ruR7frRc5HjNtkvQjN4RfUqTnW4RiC1YQHepD10RJdKGkZNfhP_PLhO8nwzLENJScCqyG5cdxW1Ohu1Vf17SKX1QnQ7n_1Vydgr1eQw59P-BNAhfKrW9z0W00]--></g></svg>