<svg xmlns="http://www.w3.org/2000/svg" xmlns:xlink="http://www.w3.org/1999/xlink" contentStyleType="text/css" data-diagram-type="DESCRIPTION" height="1027.2px" preserveAspectRatio="none" style="width:913px;height:1027px;background:#FFFFFF;" version="1.1" viewBox="0 0 913 1027" width="913.6px" zoomAndPan="magnify"><defs/><g><!--cluster action utilisateur--><g class="cluster" data-entity="action utilisateur" data-source-line="13" data-uid="ent0006" id="cluster_action utilisateur"><path d="M193.6,387.6816 L291.1228,387.6816 A3,3 0 0 1 293.1228,389.6816 L298.7228,407.7359 L906,407.7359 A2,2 0 0 1 908,409.7359 L908,1020.0816 A2,2 0 0 1 906,1022.0816 L193.6,1022.0816 A2,2 0 0 1 191.6,1020.0816 L191.6,389.6816 A2,2 0 0 1 193.6,387.6816" fill="none" style="stroke:#000000;stroke-width:1.2;"/><line style="stroke:#000000;stroke-width:1.2;" x1="191.6" x2="298.7228" y1="407.7359" y2="407.7359"/><text fill="#000000" font-family="sans-serif" font-size="11.2" font-weight="bold" lengthAdjust="spacing" textLength="96.7228" x="194.8" y="401.2543">action utilisateur</text></g><!--cluster creation de compte--><g class="cluster" data-entity="creation de compte" data-source-line="29" data-uid="ent0019" id="cluster_creation de compte"><path d="M196.8,5.2816 L306.1836,5.2816 A3,3 0 0 1 308.1836,7.2816 L313.7836,25.3359 L619.2,25.3359 A2,2 0 0 1 621.2,27.3359 L621.2,139.2816 A2,2 0 0 1 619.2,141.2816 L196.8,141.2816 A2,2 0 0 1 194.8,139.2816 L194.8,7.2816 A2,2 0 0 1 196.8,5.2816" fill="none" style="stroke:#000000;stroke-width:1.2;"/><line style="stroke:#000000;stroke-width:1.2;" x1="194.8" x2="313.7836" y1="25.3359" y2="25.3359"/><text fill="#000000" font-family="sans-serif" font-size="11.2" font-weight="bold" lengthAdjust="spacing" textLength="108.5836" x="198" y="18.8543">creation de compte</text></g><!--cluster administrer--><g class="cluster" data-entity="administrer" data-source-line="36" data-uid="ent0023" id="cluster_administrer"><path d="M135.6,160.4816 L202.6589,160.4816 A3,3 0 0 1 204.6589,162.4816 L210.2589,180.5359 L596.4,180.5359 A2,2 0 0 1 598.4,182.5359 L598.4,316.0816 A2,2 0 0 1 596.4,318.0816 L135.6,318.0816 A2,2 0 0 1 133.6,316.0816 L133.6,162.4816 A2,2 0 0 1 135.6,160.4816" fill="none" style="stroke:#000000;stroke-width:1.2;"/><line style="stroke:#000000;stroke-width:1.2;" x1="133.6" x2="210.2589" y1="180.5359" y2="180.5359"/><text fill="#000000" font-family="sans-serif" font-size="11.2" font-weight="bold" lengthAdjust="spacing" textLength="66.2589" x="136.8" y="174.0543">administrer</text></g><!--entity modif--><g class="entity" data-entity="modif" data-source-line="14" data-uid="ent0007" id="entity_modif"><ellipse cx="268.578" cy="501.2372" fill="#F1F1F1" rx="64.178" ry="14.7556" style="stroke:#181818;stroke-width:0.4;"/><text fill="#000000" font-family="sans-serif" font-size="11.2" lengthAdjust="spacing" textLength="97.2044" x="219.9758" y="506.0643">Modifier son profil</text></g><!--entity recherche--><g class="entity" data-entity="recherche" data-source-line="15" data-uid="ent0008" id="entity_recherche"><ellipse cx="535.2181" cy="561.2852" fill="#F1F1F1" rx="72.4181" ry="16.4036" style="stroke:#181818;stroke-width:0.4;"/><text fill="#000000" font-family="sans-serif" font-size="11.2" lengthAdjust="spacing" textLength="117.4427" x="476.4968" y="566.1124">Rechercher des profils</text></g><!--entity mp--><g class="entity" data-entity="mp" data-source-line="16" data-uid="ent0009" id="entity_mp"><ellipse cx="535.3428" cy="621.1501" fill="#F1F1F1" rx="67.7428" ry="15.4686" style="stroke:#181818;stroke-width:0.4;"/><text fill="#000000" font-family="sans-serif" font-size="11.2" lengthAdjust="spacing" textLength="106.1196" x="482.283" y="625.9773">Envoier un message</text></g><!--entity reco--><g class="entity" data-entity="reco" data-source-line="17" data-uid="ent0010" id="entity_reco"><ellipse cx="535.2901" cy="686.1796" fill="#F1F1F1" rx="96.8901" ry="21.298" style="stroke:#181818;stroke-width:0.4;"/><text fill="#000000" font-family="sans-serif" font-size="11.2" lengthAdjust="spacing" textLength="172.9049" x="448.8376" y="691.0068">Consulter les profils recomend&#233;s</text></g><!--entity notif--><g class="entity" data-entity="notif" data-source-line="18" data-uid="ent0011" id="entity_notif"><ellipse cx="535.203" cy="753.9222" fill="#F1F1F1" rx="81.603" ry="18.2406" style="stroke:#181818;stroke-width:0.4;"/><text fill="#000000" font-family="sans-serif" font-size="11.2" lengthAdjust="spacing" textLength="138.8347" x="465.7856" y="758.7493">Consulter ses notifications</text></g><!--entity signal--><g class="entity" data-entity="signal" data-source-line="19" data-uid="ent0012" id="entity_signal"><ellipse cx="535.2564" cy="816.3329" fill="#F1F1F1" rx="67.6564" ry="15.4513" style="stroke:#181818;stroke-width:0.4;"/><text fill="#000000" font-family="sans-serif" font-size="11.2" lengthAdjust="spacing" textLength="105.9068" x="482.3031" y="821.16">Signaler un contenu</text></g><!--entity config--><g class="entity" data-entity="config" data-source-line="20" data-uid="ent0013" id="entity_config"><ellipse cx="535.2061" cy="501.4428" fill="#F1F1F1" rx="69.2061" ry="15.7612" style="stroke:#181818;stroke-width:0.4;"/><text fill="#000000" font-family="sans-serif" font-size="11.2" lengthAdjust="spacing" textLength="109.7036" x="480.3544" y="506.27">Configurer son profil</text></g><!--entity public--><g class="entity" data-entity="public" data-source-line="21" data-uid="ent0014" id="entity_public"><ellipse cx="535.3495" cy="437.9515" fill="#F1F1F1" rx="87.7495" ry="19.4699" style="stroke:#181818;stroke-width:0.4;"/><text fill="#000000" font-family="sans-serif" font-size="11.2" lengthAdjust="spacing" textLength="152.7114" x="458.9938" y="442.7786">Modifier son affichage public</text></g><!--entity validate--><g class="entity" data-entity="validate" data-source-line="22" data-uid="ent0015" id="entity_validate"><ellipse cx="535.323" cy="873.4662" fill="#F1F1F1" rx="57.323" ry="13.3846" style="stroke:#181818;stroke-width:0.4;"/><text fill="#000000" font-family="sans-serif" font-size="11.2" lengthAdjust="spacing" textLength="79.0493" x="495.7984" y="878.2934">Aimer un profil</text></g><!--entity msg--><g class="entity" data-entity="msg" data-source-line="23" data-uid="ent0016" id="entity_msg"><ellipse cx="535.3198" cy="931.6255" fill="#F1F1F1" rx="76.1198" ry="17.144" style="stroke:#181818;stroke-width:0.4;"/><text fill="#000000" font-family="sans-serif" font-size="11.2" lengthAdjust="spacing" textLength="126.1787" x="472.2304" y="936.4527">Consulter ses messages</text></g><!--entity auth1--><g class="entity" data-entity="auth1" data-source-line="24" data-uid="ent0017" id="entity_auth1"><ellipse cx="844.9193" cy="720.468" fill="#F1F1F1" rx="50.5193" ry="13.1864" style="stroke:#181818;stroke-width:0.4;"/><text fill="#000000" font-family="sans-serif" font-size="11.2" lengthAdjust="spacing" textLength="68.0509" x="810.8938" y="725.2952">Se connecter</text></g><!--entity rm--><g class="entity" data-entity="rm" data-source-line="25" data-uid="ent0018" id="entity_rm"><ellipse cx="535.1992" cy="993.2014" fill="#F1F1F1" rx="69.9992" ry="15.9198" style="stroke:#181818;stroke-width:0.4;"/><text fill="#000000" font-family="sans-serif" font-size="11.2" lengthAdjust="spacing" textLength="111.63" x="479.3842" y="998.0286">Recevoir un message</text></g><!--entity cc--><g class="entity" data-entity="cc" data-source-line="30" data-uid="ent0020" id="entity_cc"><ellipse cx="268.4166" cy="82.9649" fill="#F1F1F1" rx="60.8166" ry="14.0833" style="stroke:#181818;stroke-width:0.4;"/><text fill="#000000" font-family="sans-serif" font-size="11.2" lengthAdjust="spacing" textLength="88.5021" x="224.1655" y="87.7921">Cr&#233;er un compte</text></g><!--entity pi--><g class="entity" data-entity="pi" data-source-line="31" data-uid="ent0021" id="entity_pi"><ellipse cx="535.2706" cy="112.4157" fill="#F1F1F1" rx="68.0706" ry="15.5341" style="stroke:#181818;stroke-width:0.4;"/><text fill="#000000" font-family="sans-serif" font-size="11.2" lengthAdjust="spacing" textLength="106.926" x="481.8077" y="117.2429">Prouver son identit&#233;</text></g><!--entity vm--><g class="entity" data-entity="vm" data-source-line="32" data-uid="ent0022" id="entity_vm"><ellipse cx="535.2798" cy="52.6575" fill="#F1F1F1" rx="73.2798" ry="16.576" style="stroke:#181818;stroke-width:0.4;"/><text fill="#000000" font-family="sans-serif" font-size="11.2" lengthAdjust="spacing" textLength="119.4923" x="475.5336" y="57.4847">V&#233;rifier l&#8217;addresse mail</text></g><!--entity gcc--><g class="entity" data-entity="gcc" data-source-line="37" data-uid="ent0024" id="entity_gcc"><ellipse cx="268.5571" cy="217.233" fill="#F1F1F1" rx="122.1571" ry="26.3514" style="stroke:#181818;stroke-width:0.4;"/><text fill="#000000" font-family="sans-serif" font-size="11.2" lengthAdjust="spacing" textLength="227.0455" x="155.0343" y="222.0602">G&#233;rer les demandes de cr&#233;ation de compte</text></g><!--entity rp--><g class="entity" data-entity="rp" data-source-line="38" data-uid="ent0025" id="entity_rp"><ellipse cx="268.3608" cy="288.3938" fill="#F1F1F1" rx="73.9608" ry="16.7122" style="stroke:#181818;stroke-width:0.4;"/><text fill="#000000" font-family="sans-serif" font-size="11.2" lengthAdjust="spacing" textLength="121.1051" x="207.8083" y="293.2209">G&#233;rer les signalements</text></g><!--entity auth2--><g class="entity" data-entity="auth2" data-source-line="39" data-uid="ent0026" id="entity_auth2"><ellipse cx="535.3193" cy="253.268" fill="#F1F1F1" rx="50.5193" ry="13.1864" style="stroke:#181818;stroke-width:0.4;"/><text fill="#000000" font-family="sans-serif" font-size="11.2" lengthAdjust="spacing" textLength="68.0509" x="501.2938" y="258.0952">Se connecter</text></g><!--entity usr--><g class="entity" data-entity="usr" data-source-line="7" data-uid="ent0002" id="entity_usr"><ellipse cx="51.6271" cy="699.6816" fill="#F1F1F1" rx="3.6" ry="3.6" style="stroke:#181818;stroke-width:0.4;"/><path d="M41.6271,704.8816 L41.6271,708.8816 L49.2271,708.8816 L49.2271,710.6875 L41.6271,718.2875 L45.0212,721.6816 L51.6271,715.0757 L58.233,721.6816 L61.6271,718.2875 L54.0271,710.6875 L54.0271,708.8816 L61.6271,708.8816 L61.6271,704.8816 L41.6271,704.8816" fill="#F1F1F1" style="stroke:#181818;stroke-width:0.4;"/><text fill="#000000" font-family="sans-serif" font-size="11.2" lengthAdjust="spacing" textLength="54.4542" x="24.4" y="734.0543">Utilisateur</text></g><!--entity md--><g class="entity" data-entity="md" data-source-line="8" data-uid="ent0003" id="entity_md"><ellipse cx="51.6343" cy="236.4816" fill="#F1F1F1" rx="3.6" ry="3.6" style="stroke:#181818;stroke-width:0.4;"/><path d="M41.6343,241.6816 L41.6343,245.6816 L49.2343,245.6816 L49.2343,247.4875 L41.6343,255.0875 L45.0284,258.4816 L51.6343,251.8757 L58.2402,258.4816 L61.6343,255.0875 L54.0343,247.4875 L54.0343,245.6816 L61.6343,245.6816 L61.6343,241.6816 L41.6343,241.6816" fill="#F1F1F1" style="stroke:#181818;stroke-width:0.4;"/><text fill="#000000" font-family="sans-serif" font-size="11.2" lengthAdjust="spacing" textLength="63.2686" x="20" y="270.8543">mod&#233;rateur</text></g><!--entity new--><g class="entity" data-entity="new" data-source-line="9" data-uid="ent0004" id="entity_new"><ellipse cx="51.403" cy="66.0816" fill="#F1F1F1" rx="3.6" ry="3.6" style="stroke:#181818;stroke-width:0.4;"/><path d="M41.403,71.2816 L41.403,75.2816 L49.003,75.2816 L49.003,77.0875 L41.403,84.6875 L44.7971,88.0816 L51.403,81.4757 L58.0089,88.0816 L61.403,84.6875 L53.803,77.0875 L53.803,75.2816 L61.403,75.2816 L61.403,71.2816 L41.403,71.2816" fill="#F1F1F1" style="stroke:#181818;stroke-width:0.4;"/><text fill="#000000" font-family="sans-serif" font-size="11.2" lengthAdjust="spacing" textLength="93.206" x="4.8" y="100.4543">Nouvel utilisateur</text></g><!--entity sv--><g class="entity" data-entity="sv" data-source-line="10" data-uid="ent0005" id="entity_sv"><ellipse cx="713.0455" cy="35.6816" fill="#F1F1F1" rx="3.6" ry="3.6" style="stroke:#181818;stroke-width:0.4;"/><path d="M703.0455,40.8816 L703.0455,44.8816 L710.6455,44.8816 L710.6455,46.6875 L703.0455,54.2875 L706.4396,57.6816 L713.0455,51.0757 L719.6514,57.6816 L723.0455,54.2875 L715.4455,46.6875 L715.4455,44.8816 L723.0455,44.8816 L723.0455,40.8816 L703.0455,40.8816" fill="#F1F1F1" style="stroke:#181818;stroke-width:0.4;"/><text fill="#000000" font-family="sans-serif" font-size="11.2" lengthAdjust="spacing" textLength="66.0909" x="680" y="70.0543">Serveur mail</text></g><!--entity lire--><g class="entity" data-entity="lire" data-source-line="51" data-uid="ent0035" id="entity_lire"><ellipse cx="268.4" cy="337.2816" fill="#F1F1F1" rx="3.6" ry="3.6" style="stroke:#181818;stroke-width:0.4;"/><path d="M258.4,342.4816 L258.4,346.4816 L266,346.4816 L266,348.2875 L258.4,355.8875 L261.7941,359.2816 L268.4,352.6757 L275.0059,359.2816 L278.4,355.8875 L270.8,348.2875 L270.8,346.4816 L278.4,346.4816 L278.4,342.4816 L258.4,342.4816" fill="#F1F1F1" style="stroke:#181818;stroke-width:0.4;"/><text fill="#000000" font-family="sans-serif" font-size="11.2" lengthAdjust="spacing" textLength="16.7215" x="260.0392" y="371.6543">lire</text></g><!--link usr to recherche--><g class="link" data-entity-1="usr" data-entity-2="recherche" data-source-line="43" data-uid="lnk27" id="link_usr_recherche"><path d="M52,695.5536 C52,653.1856 52,561.2816 52,561.2816 C52,561.2816 327.704,561.2816 462.6,561.2816" fill="none" id="usr-recherche" style="stroke:#181818;stroke-width:0.8;"/></g><!--link usr to mp--><g class="link" data-entity-1="usr" data-entity-2="mp" data-source-line="44" data-uid="lnk28" id="link_usr_mp"><path d="M60.8,695.5856 C60.8,667.5696 60.8,621.2816 60.8,621.2816 C60.8,621.2816 336.408,621.2816 467.48,621.2816" fill="none" id="usr-mp" style="stroke:#181818;stroke-width:0.8;"/></g><!--link usr to reco--><g class="link" data-entity-1="usr" data-entity-2="reco" data-source-line="45" data-uid="lnk29" id="link_usr_reco"><path d="M78.984,701.4816 C153.416,701.4816 361.024,701.4816 468.632,701.4816" fill="none" id="usr-reco" style="stroke:#181818;stroke-width:0.8;"/></g><!--link usr to modif--><g class="link" data-entity-1="usr" data-entity-2="modif" data-source-line="46" data-uid="lnk30" id="link_usr_modif"><path d="M43.2,695.4576 C43.2,641.3056 43.2,501.2816 43.2,501.2816 C43.2,501.2816 137.608,501.2816 204.168,501.2816" fill="none" id="usr-modif" style="stroke:#181818;stroke-width:0.8;"/></g><!--link usr to notif--><g class="link" data-entity-1="usr" data-entity-2="notif" data-source-line="47" data-uid="lnk31" id="link_usr_notif"><path d="M70.4,737.4816 C70.4,746.4416 70.4,754.8816 70.4,754.8816 C70.4,754.8816 320.072,754.8816 453.44,754.8816" fill="none" id="usr-notif" style="stroke:#181818;stroke-width:0.8;"/></g><!--link usr to signal--><g class="link" data-entity-1="usr" data-entity-2="signal" data-source-line="48" data-uid="lnk32" id="link_usr_signal"><path d="M60.8,737.4416 C60.8,766.7696 60.8,816.4816 60.8,816.4816 C60.8,816.4816 336.408,816.4816 467.48,816.4816" fill="none" id="usr-signal" style="stroke:#181818;stroke-width:0.8;"/></g><!--link usr to validate--><g class="link" data-entity-1="usr" data-entity-2="validate" data-source-line="49" data-uid="lnk33" id="link_usr_validate"><path d="M52,737.3056 C52,779.9536 52,873.2816 52,873.2816 C52,873.2816 349.88,873.2816 477.872,873.2816" fill="none" id="usr-validate" style="stroke:#181818;stroke-width:0.8;"/></g><!--link usr to msg--><g class="link" data-entity-1="usr" data-entity-2="msg" data-source-line="50" data-uid="lnk34" id="link_usr_msg"><path d="M43.2,737.5056 C43.2,791.6576 43.2,931.6816 43.2,931.6816 C43.2,931.6816 321.032,931.6816 459.136,931.6816" fill="none" id="usr-msg" style="stroke:#181818;stroke-width:0.8;"/></g><!--link usr to lire--><g class="link" data-entity-1="usr" data-entity-2="lire" data-source-line="51" data-uid="lnk36" id="link_usr_lire"><path d="M33.6,695.4336 C33.6,618.0896 33.6,354.0816 33.6,354.0816 C33.6,354.0816 211.768,354.0816 257.704,354.0816" fill="none" id="usr-lire" style="stroke:#181818;stroke-width:0.8;"/></g><!--link usr to rm--><g class="link" data-entity-1="usr" data-entity-2="rm" data-source-line="52" data-uid="lnk37" id="link_usr_rm"><path d="M33.6,737.2896 C33.6,801.6576 33.6,993.2816 33.6,993.2816 C33.6,993.2816 327.256,993.2816 465.192,993.2816" fill="none" id="usr-rm" style="stroke:#181818;stroke-width:0.8;"/></g><!--link modif to config--><g class="link" data-entity-1="modif" data-entity-2="config" data-source-line="54" data-uid="lnk38" id="link_modif_config"><path d="M328.944,506.2176 C370.84,506.2176 412.16,506.2176 455.128,506.2176" fill="none" id="modif-to-config" style="stroke:#181818;stroke-width:0.8;"/><polygon fill="none" points="469.528,506.2176,455.128,501.4176,455.128,511.0176,469.528,506.2176" style="stroke:#181818;stroke-width:0.8;"/><text fill="#000000" font-family="sans-serif" font-size="10.4" lengthAdjust="spacing" textLength="46.0616" x="352.832" y="518.1352">&#171;include&#187;</text></g><!--link modif to public--><g class="link" data-entity-1="modif" data-entity-2="public" data-source-line="55" data-uid="lnk39" id="link_modif_public"><path d="M328.792,496.3456 C383.368,496.3456 455.2,496.3456 455.2,496.3456 C455.2,496.3456 455.2,476.5936 455.2,460.5856" fill="none" id="modif-to-public" style="stroke:#181818;stroke-width:0.8;"/><polygon fill="none" points="455.2,446.1856,450.4,460.5856,460,460.5856,455.2,446.1856" style="stroke:#181818;stroke-width:0.8;"/><text fill="#000000" font-family="sans-serif" font-size="10.4" lengthAdjust="spacing" textLength="46.0616" x="417.88" y="508.2632">&#171;include&#187;</text></g><!--link new to cc--><g class="link" data-entity-1="new" data-entity-2="cc" data-source-line="58" data-uid="lnk40" id="link_new_cc"><path d="M98.64,82.8816 C130.52,82.8816 172.96,82.8816 207.432,82.8816" fill="none" id="new-cc" style="stroke:#181818;stroke-width:0.8;"/></g><!--link cc to pi--><g class="link" data-entity-1="cc" data-entity-2="pi" data-source-line="60" data-uid="lnk41" id="link_cc_pi"><path d="M268.8,96.9296 C268.8,98.9056 268.8,100.2816 268.8,100.2816 C268.8,100.2816 403.08,100.2816 478.296,100.2816" fill="none" id="cc-to-pi" style="stroke:#181818;stroke-width:0.8;"/><polygon fill="none" points="492.696,100.2816,478.296,95.4816,478.296,105.0816,492.696,100.2816" style="stroke:#181818;stroke-width:0.8;"/><text fill="#000000" font-family="sans-serif" font-size="10.4" lengthAdjust="spacing" textLength="46.0616" x="332.672" y="112.1992">&#171;include&#187;</text></g><!--link cc to vm--><g class="link" data-entity-1="cc" data-entity-2="vm" data-source-line="61" data-uid="lnk42" id="link_cc_vm"><path d="M268.8,68.8336 C268.8,66.8576 268.8,65.4816 268.8,65.4816 C268.8,65.4816 399.992,65.4816 475.912,65.4816" fill="none" id="cc-to-vm" style="stroke:#181818;stroke-width:0.8;"/><polygon fill="none" points="490.312,65.4816,475.912,60.6816,475.912,70.2816,490.312,65.4816" style="stroke:#181818;stroke-width:0.8;"/><text fill="#000000" font-family="sans-serif" font-size="10.4" lengthAdjust="spacing" textLength="46.0616" x="331.48" y="77.3992">&#171;include&#187;</text></g><!--link vm to sv--><g class="link" data-entity-1="vm" data-entity-2="sv" data-source-line="62" data-uid="lnk43" id="link_vm_sv"><path d="M608.624,52.4816 C633.336,52.4816 659.696,52.4816 679.768,52.4816" fill="none" id="vm-sv" style="stroke:#181818;stroke-width:0.8;"/></g><!--link md to gcc--><g class="link" data-entity-1="md" data-entity-2="gcc" data-source-line="65" data-uid="lnk44" id="link_md_gcc"><path d="M83.36,238.0816 C112.112,238.0816 155.6,238.0816 193.2,238.0816" fill="none" id="md-gcc" style="stroke:#181818;stroke-width:0.8;"/></g><!--link md to rp--><g class="link" data-entity-1="md" data-entity-2="rp" data-source-line="66" data-uid="lnk45" id="link_md_rp"><path d="M70.4,274.2416 C70.4,282.3376 70.4,289.6816 70.4,289.6816 C70.4,289.6816 138.152,289.6816 194.392,289.6816" fill="none" id="md-rp" style="stroke:#181818;stroke-width:0.8;"/></g><!--link recherche to auth1--><g class="link" data-entity-1="recherche" data-entity-2="auth1" data-source-line="69" data-uid="lnk46" id="link_recherche_auth1"><path d="M607.824,561.2816 C696.608,561.2816 835.2,561.2816 835.2,561.2816 C835.2,561.2816 835.2,655.0336 835.2,693.0496" fill="none" id="recherche-to-auth1" style="stroke:#181818;stroke-width:0.8;"/><polygon fill="none" points="835.2,707.4496,840,693.0496,830.4,693.0496,835.2,707.4496" style="stroke:#181818;stroke-width:0.8;"/><text fill="#000000" font-family="sans-serif" font-size="10.4" lengthAdjust="spacing" textLength="46.0616" x="748.2" y="573.1992">&#171;include&#187;</text></g><!--link mp to auth1--><g class="link" data-entity-1="mp" data-entity-2="auth1" data-source-line="70" data-uid="lnk47" id="link_mp_auth1"><path d="M602.984,621.2816 C685.848,621.2816 815.2,621.2816 815.2,621.2816 C815.2,621.2816 815.2,669.2576 815.2,695.0896" fill="none" id="mp-to-auth1" style="stroke:#181818;stroke-width:0.8;"/><polygon fill="none" points="815.2,709.4896,820,695.0896,810.4,695.0896,815.2,709.4896" style="stroke:#181818;stroke-width:0.8;"/><text fill="#000000" font-family="sans-serif" font-size="10.4" lengthAdjust="spacing" textLength="46.0616" x="706.792" y="633.1992">&#171;include&#187;</text></g><!--link reco to auth1--><g class="link" data-entity-1="reco" data-entity-2="auth1" data-source-line="71" data-uid="lnk48" id="link_reco_auth1"><path d="M624.8,694.4096 C624.8,704.5936 624.8,720.4816 624.8,720.4816 C624.8,720.4816 714.976,720.4816 779.928,720.4816" fill="none" id="reco-to-auth1" style="stroke:#181818;stroke-width:0.8;"/><polygon fill="none" points="794.328,720.4816,779.928,715.6816,779.928,725.2816,794.328,720.4816" style="stroke:#181818;stroke-width:0.8;"/><text fill="#000000" font-family="sans-serif" font-size="10.4" lengthAdjust="spacing" textLength="46.0616" x="650.128" y="732.3992">&#171;include&#187;</text></g><!--link notif to auth1--><g class="link" data-entity-1="notif" data-entity-2="auth1" data-source-line="72" data-uid="lnk49" id="link_notif_auth1"><path d="M616.888,754.0816 C698.272,754.0816 811.2,754.0816 811.2,754.0816 C811.2,754.0816 811.2,754.6896 811.2,744.7776" fill="none" id="notif-to-auth1" style="stroke:#181818;stroke-width:0.8;"/><polygon fill="none" points="811.2,730.3776,806.4,744.7776,816,744.7776,811.2,730.3776" style="stroke:#181818;stroke-width:0.8;"/><text fill="#000000" font-family="sans-serif" font-size="10.4" lengthAdjust="spacing" textLength="46.0616" x="679.496" y="765.9992">&#171;include&#187;</text></g><!--link signal to auth1--><g class="link" data-entity-1="signal" data-entity-2="auth1" data-source-line="73" data-uid="lnk50" id="link_signal_auth1"><path d="M603.112,816.4816 C689.608,816.4816 828,816.4816 828,816.4816 C828,816.4816 828,773.4576 828,747.4336" fill="none" id="signal-to-auth1" style="stroke:#181818;stroke-width:0.8;"/><polygon fill="none" points="828,733.0336,823.2,747.4336,832.8,747.4336,828,733.0336" style="stroke:#181818;stroke-width:0.8;"/><text fill="#000000" font-family="sans-serif" font-size="10.4" lengthAdjust="spacing" textLength="46.0616" x="710.88" y="828.3992">&#171;include&#187;</text></g><!--link validate to auth1--><g class="link" data-entity-1="validate" data-entity-2="auth1" data-source-line="74" data-uid="lnk51" id="link_validate_auth1"><path d="M592.704,873.2816 C682.24,873.2816 844.8,873.2816 844.8,873.2816 C844.8,873.2816 844.8,785.3456 844.8,748.1776" fill="none" id="validate-to-auth1" style="stroke:#181818;stroke-width:0.8;"/><polygon fill="none" points="844.8,733.7776,840,748.1776,849.6,748.1776,844.8,733.7776" style="stroke:#181818;stroke-width:0.8;"/><text fill="#000000" font-family="sans-serif" font-size="10.4" lengthAdjust="spacing" textLength="46.0616" x="742.104" y="885.1992">&#171;include&#187;</text></g><!--link msg to auth1--><g class="link" data-entity-1="msg" data-entity-2="auth1" data-source-line="75" data-uid="lnk52" id="link_msg_auth1"><path d="M611.312,931.6816 C707.76,931.6816 861.6,931.6816 861.6,931.6816 C861.6,931.6816 861.6,792.9296 861.6,747.4576" fill="none" id="msg-to-auth1" style="stroke:#181818;stroke-width:0.8;"/><polygon fill="none" points="861.6,733.0576,856.8,747.4576,866.4,747.4576,861.6,733.0576" style="stroke:#181818;stroke-width:0.8;"/><text fill="#000000" font-family="sans-serif" font-size="10.4" lengthAdjust="spacing" textLength="46.0616" x="789.368" y="943.5992">&#171;include&#187;</text></g><!--link config to auth1--><g class="link" data-entity-1="config" data-entity-2="auth1" data-source-line="76" data-uid="lnk53" id="link_config_auth1"><path d="M604.632,501.2816 C698.752,501.2816 855.2,501.2816 855.2,501.2816 C855.2,501.2816 855.2,645.8336 855.2,693.0256" fill="none" id="config-to-auth1" style="stroke:#181818;stroke-width:0.8;"/><polygon fill="none" points="855.2,707.4256,860,693.0256,850.4,693.0256,855.2,707.4256" style="stroke:#181818;stroke-width:0.8;"/><text fill="#000000" font-family="sans-serif" font-size="10.4" lengthAdjust="spacing" textLength="46.0616" x="786.592" y="513.1992">&#171;include&#187;</text></g><!--link public to auth1--><g class="link" data-entity-1="public" data-entity-2="auth1" data-source-line="77" data-uid="lnk54" id="link_public_auth1"><path d="M622.976,438.0816 C723.72,438.0816 875.2,438.0816 875.2,438.0816 C875.2,438.0816 875.2,643.7696 875.2,695.3536" fill="none" id="public-to-auth1" style="stroke:#181818;stroke-width:0.8;"/><polygon fill="none" points="875.2,709.7536,880,695.3536,870.4,695.3536,875.2,709.7536" style="stroke:#181818;stroke-width:0.8;"/><text fill="#000000" font-family="sans-serif" font-size="10.4" lengthAdjust="spacing" textLength="46.0616" x="828.8" y="459.7272">&#171;include&#187;</text></g><!--link rm to auth1--><g class="link" data-entity-1="rm" data-entity-2="auth1" data-source-line="78" data-uid="lnk55" id="link_rm_auth1"><path d="M605.272,993.2816 C705.648,993.2816 878.4,993.2816 878.4,993.2816 C878.4,993.2816 878.4,794.1296 878.4,744.9136" fill="none" id="rm-to-auth1" style="stroke:#181818;stroke-width:0.8;"/><polygon fill="none" points="878.4,730.5136,873.6,744.9136,883.2,744.9136,878.4,730.5136" style="stroke:#181818;stroke-width:0.8;"/><text fill="#000000" font-family="sans-serif" font-size="10.4" lengthAdjust="spacing" textLength="46.0616" x="826.816" y="1005.1992">&#171;include&#187;</text></g><!--link gcc to auth2--><g class="link" data-entity-1="gcc" data-entity-2="auth2" data-source-line="80" data-uid="lnk56" id="link_gcc_auth2"><path d="M366.4,233.0896 C366.4,243.4496 366.4,255.0816 366.4,255.0816 C366.4,255.0816 421.064,255.0816 470.84,255.0816" fill="none" id="gcc-to-auth2" style="stroke:#181818;stroke-width:0.8;"/><polygon fill="none" points="485.24,255.0816,470.84,250.2816,470.84,259.8816,485.24,255.0816" style="stroke:#181818;stroke-width:0.8;"/><text fill="#000000" font-family="sans-serif" font-size="10.4" lengthAdjust="spacing" textLength="46.0616" x="368.424" y="266.9992">&#171;include&#187;</text></g><!--link rp to auth2--><g class="link" data-entity-1="rp" data-entity-2="auth2" data-source-line="81" data-uid="lnk57" id="link_rp_auth2"><path d="M342.72,288.4816 C421.664,288.4816 535.2,288.4816 535.2,288.4816 C535.2,288.4816 535.2,290.9536 535.2,280.9856" fill="none" id="rp-to-auth2" style="stroke:#181818;stroke-width:0.8;"/><polygon fill="none" points="535.2,266.5856,530.4,280.9856,540,280.9856,535.2,266.5856" style="stroke:#181818;stroke-width:0.8;"/><text fill="#000000" font-family="sans-serif" font-size="10.4" lengthAdjust="spacing" textLength="46.0616" x="403.504" y="300.3992">&#171;include&#187;</text></g><!--SRC=[ZLHBYjmm4Dth5ABtiqYMOMWOXf3LX90csIjIsHQZZwEFXo49v1evGf-ZRvAJfFInsn_QfA51gbVrN7hr9FyiJSySqvJnODqfl2gWdLNAlX0_OHw-Hp0Sdi1xriA3agsX74m0HnGqWGPBdMoxG8Lqm8EqPbQjf87msWErBdIM498_HGzVWbJIim3H7IZpD7etGjgAozbT8Ir6vAED0oWQLxK6NiQC4xW1mrGpgJBc1_ncp_WpjauFBBUt9FX1AFwY1yuyfZnP8Hi9ZdfCx9rjAf5EyMNgP-0TkFId0dnDzZdRZT2ouhqPREAEXkeYP-7kbscFrlYeK62ghho9qsemACxq3NkhpcETiG5FmbawSgd8aMN92QV9L6c9MnogYKMt7D_GDxADRYiEpyYEaAp1JheqWpv-KvBdgh9SLZr8NPgPiGzCIO7JsZjibRESK_jLBoT8BHfq9nJBi1YwDvjf0avdCnodoQ-vXxY3B2dE74br7s3ZeKTtEO-IbeIaqUgadrnoSv572hnFCbpEHHUvpFoArw58gVx-_iE4SDWUN3q-h3faGaiZVN2mjVS7vAg-4g2P4Nb1ENQyEHLIj-kkP_N58e2M3DMG_N-e_ZRtYjUTtjtDhaaDu4suGdQAvhjNDyN4TLDjMdUJKSOwz45TAdoR9cfDIAR4pSzZDIzzH-_lfU4g2ZWUvtYnwGed15-TH8O24SvhfbnbZS2WLm06KlVfST8YBPFGPOKg4Z89Wv54aFswRh7V0PDyEt0MSGSlkkuaZ5BlzUVR7RIgVZkXohvpHBq3adRKFfjkNThVWlu1]--></g></svg>