<svg xmlns="http://www.w3.org/2000/svg" xmlns:xlink="http://www.w3.org/1999/xlink" contentStyleType="text/css" data-diagram-type="SEQUENCE" height="876px" preserveAspectRatio="none" style="width:583px;height:876px;background:#FFFFFF;" version="1.1" viewBox="0 0 583 876" width="583px" zoomAndPan="magnify"><defs/><g><rect fill="none" height="159.5301" style="stroke:#000000;stroke-width:1.5;" width="518.8702" x="48" y="300.304"/><rect fill="none" height="127.8241" style="stroke:#000000;stroke-width:1.5;" width="518.8702" x="48" y="473.8341"/><rect fill="none" height="186.2361" style="stroke:#000000;stroke-width:1.5;" width="420.441" x="38" y="615.6582"/><rect fill="none" height="87.118" style="stroke:#000000;stroke-width:1.5;" width="400.441" x="48" y="642.3642"/><rect fill="none" height="51.412" style="stroke:#000000;stroke-width:1.5;" width="400.441" x="48" y="743.4822"/><g><title>Utilisateur</title><rect fill="#000000" fill-opacity="0.00000" height="761.8263" width="8" x="91.0339" y="57.0679"/><line style="stroke:#181818;stroke-width:0.5;stroke-dasharray:5,5;" x1="95" x2="95" y1="57.0679" y2="818.8943"/></g><g><title>Application</title><rect fill="#000000" fill-opacity="0.00000" height="761.8263" width="8" x="390.5651" y="57.0679"/><line style="stroke:#181818;stroke-width:0.5;stroke-dasharray:5,5;" x1="393.6892" x2="393.6892" y1="57.0679" y2="818.8943"/></g><g class="participant participant-head" data-participant="usr"><text fill="#000000" font-family="sans-serif" font-size="14" lengthAdjust="spacing" textLength="68.0677" x="58" y="52.9659">Utilisateur</text><ellipse cx="95.0339" cy="10" fill="#E2E2F0" rx="4.5" ry="4.5" style="stroke:#181818;stroke-width:0.5;"/><path d="M82.5339,16.5 L82.5339,21.5 L92.0339,21.5 L92.0339,23.7574 L82.5339,33.2574 L86.7765,37.5 L95.0339,29.2426 L103.2912,37.5 L107.5339,33.2574 L98.0339,23.7574 L98.0339,21.5 L107.5339,21.5 L107.5339,16.5 L82.5339,16.5" fill="#E2E2F0" style="stroke:#181818;stroke-width:0.5;"/></g><g class="participant participant-tail" data-participant="usr"><text fill="#000000" font-family="sans-serif" font-size="14" lengthAdjust="spacing" textLength="68.0677" x="58" y="832.8602">Utilisateur</text><ellipse cx="95.0339" cy="841.9622" fill="#E2E2F0" rx="4.5" ry="4.5" style="stroke:#181818;stroke-width:0.5;"/><path d="M82.5339,848.4622 L82.5339,853.4622 L92.0339,853.4622 L92.0339,855.7195 L82.5339,865.2195 L86.7765,869.4622 L95.0339,861.2048 L103.2912,869.4622 L107.5339,865.2195 L98.0339,855.7195 L98.0339,853.4622 L107.5339,853.4622 L107.5339,848.4622 L82.5339,848.4622" fill="#E2E2F0" style="stroke:#181818;stroke-width:0.5;"/></g><g class="participant participant-head" data-participant="app"><rect fill="#E2E2F0" height="33.0679" rx="2.5" ry="2.5" style="stroke:#181818;stroke-width:0.5;" width="87.7517" x="350.6892" y="23"/><text fill="#000000" font-family="sans-serif" font-size="14" lengthAdjust="spacing" textLength="73.7517" x="357.6892" y="44.9659">Application</text></g><g class="participant participant-tail" data-participant="app"><rect fill="#E2E2F0" height="33.0679" rx="2.5" ry="2.5" style="stroke:#181818;stroke-width:0.5;" width="87.7517" x="350.6892" y="817.8943"/><text fill="#000000" font-family="sans-serif" font-size="14" lengthAdjust="spacing" textLength="73.7517" x="357.6892" y="839.8602">Application</text></g><polygon fill="#FEFFDD" points="15,72.0679,475,72.0679,485,84.0679,475,97.0679,15,97.0679,5,84.0679,15,72.0679" style="stroke:#181818;stroke-width:0.5;"/><text fill="#000000" font-family="sans-serif" font-size="13" lengthAdjust="spacing" textLength="456.2224" x="17" y="89.9649">ICI l'utilisateur 2 est l'utilisateur dont l'utilisateur principale est "int&#233;resser"</text><rect fill="#EEEEEE" height="3" style="stroke:#EEEEEE;stroke-width:1;" width="576.8702" x="0" y="124.6269"/><line style="stroke:#000000;stroke-width:1;" x1="0" x2="576.8702" y1="124.6269" y2="124.6269"/><line style="stroke:#000000;stroke-width:1;" x1="0" x2="576.8702" y1="127.6269" y2="127.6269"/><rect fill="#EEEEEE" height="25.706" style="stroke:#000000;stroke-width:2;" width="79.91" x="248.4801" y="112.7739"/><text fill="#000000" font-family="sans-serif" font-size="13" font-weight="bold" lengthAdjust="spacing" textLength="62.53" x="254.4801" y="130.6709">Pr&#233;requis</text><g class="message" data-participant-1="usr" data-participant-2="app"><polygon fill="#181818" points="382.5651,168.186,392.5651,172.186,382.5651,176.186,386.5651,172.186" style="stroke:#181818;stroke-width:1;"/><line style="stroke:#181818;stroke-width:1;" x1="95.0339" x2="388.5651" y1="172.186" y2="172.186"/><text fill="#000000" font-family="sans-serif" font-size="13" font-weight="bold" lengthAdjust="spacing" textLength="7.436" x="200.0424" y="166.377">1</text><text fill="#000000" font-family="sans-serif" font-size="13" lengthAdjust="spacing" textLength="78.0781" x="211.4785" y="166.377">se connecter</text></g><g class="message" data-participant-1="usr" data-participant-2="app"><polygon fill="#181818" points="382.5651,199.892,392.5651,203.892,382.5651,207.892,386.5651,203.892" style="stroke:#181818;stroke-width:1;"/><line style="stroke:#181818;stroke-width:1;" x1="95.0339" x2="388.5651" y1="203.892" y2="203.892"/><text fill="#000000" font-family="sans-serif" font-size="13" font-weight="bold" lengthAdjust="spacing" textLength="7.436" x="191.6249" y="198.083">2</text><text fill="#000000" font-family="sans-serif" font-size="13" lengthAdjust="spacing" textLength="94.9131" x="203.0609" y="198.083">Consulter profil</text></g><polygon fill="#FEFFDD" points="27,216.892,461,216.892,471,228.892,461,241.892,27,241.892,17,228.892,27,216.892" style="stroke:#181818;stroke-width:0.5;"/><text fill="#000000" font-family="sans-serif" font-size="13" lengthAdjust="spacing" textLength="143.0781" x="29" y="234.789">Avoir fait le cas d'usage</text><text fill="#000000" font-family="sans-serif" font-size="13" lengthAdjust="spacing" text-decoration="underline" textLength="156.0651" x="175.4581" y="234.789">Consulter recomendation</text><text fill="#000000" font-family="sans-serif" font-size="13" lengthAdjust="spacing" textLength="15.899" x="334.9033" y="234.789">ou</text><text fill="#000000" font-family="sans-serif" font-size="13" lengthAdjust="spacing" text-decoration="underline" textLength="105.1571" x="354.1823" y="234.789">Rechercher profil</text><rect fill="#EEEEEE" height="3" style="stroke:#EEEEEE;stroke-width:1;" width="576.8702" x="0" y="269.451"/><line style="stroke:#000000;stroke-width:1;" x1="0" x2="576.8702" y1="269.451" y2="269.451"/><line style="stroke:#000000;stroke-width:1;" x1="0" x2="576.8702" y1="272.451" y2="272.451"/><rect fill="#EEEEEE" height="25.706" style="stroke:#000000;stroke-width:2;" width="81.782" x="247.5441" y="257.598"/><text fill="#000000" font-family="sans-serif" font-size="13" font-weight="bold" lengthAdjust="spacing" textLength="64.402" x="253.5441" y="275.495">Processus</text><path d="M48,300.304 L114.918,300.304 L114.918,310.01 L104.918,320.01 L48,320.01 L48,300.304" fill="#EEEEEE" style="stroke:#000000;stroke-width:1.5;"/><rect fill="none" height="159.5301" style="stroke:#000000;stroke-width:1.5;" width="518.8702" x="48" y="300.304"/><text fill="#000000" font-family="sans-serif" font-size="13" font-weight="bold" lengthAdjust="spacing" textLength="21.918" x="63" y="315.201">opt</text><text fill="#000000" font-family="sans-serif" font-size="11" font-weight="bold" lengthAdjust="spacing" textLength="158.6079" x="129.918" y="314.0629">[Sur le profil d'un utilisateur]</text><g class="message" data-participant-1="usr" data-participant-2="app"><polygon fill="#181818" points="382.5651,339.716,392.5651,343.716,382.5651,347.716,386.5651,343.716" style="stroke:#181818;stroke-width:1;"/><line style="stroke:#181818;stroke-width:1;" x1="95.0339" x2="388.5651" y1="343.716" y2="343.716"/><text fill="#000000" font-family="sans-serif" font-size="13" font-weight="bold" lengthAdjust="spacing" textLength="7.436" x="154.5359" y="337.907">3</text><text fill="#000000" font-family="sans-serif" font-size="13" lengthAdjust="spacing" textLength="169.0912" x="165.9719" y="337.907">S&#233;lectionne option du profil</text></g><g class="message" data-participant-1="usr" data-participant-2="app"><polygon fill="#181818" points="382.5651,371.4221,392.5651,375.4221,382.5651,379.4221,386.5651,375.4221" style="stroke:#181818;stroke-width:1;"/><line style="stroke:#181818;stroke-width:1;" x1="95.0339" x2="388.5651" y1="375.4221" y2="375.4221"/><text fill="#000000" font-family="sans-serif" font-size="13" font-weight="bold" lengthAdjust="spacing" textLength="7.436" x="107.0339" y="369.6131">4</text><text fill="#000000" font-family="sans-serif" font-size="13" lengthAdjust="spacing" textLength="264.0952" x="118.4699" y="369.6131">S&#233;lectionne option "Int&#233;resser par le profil"</text></g><g class="message" data-participant-1="app" data-participant-2="usr"><polygon fill="#181818" points="106.0339,403.1281,96.0339,407.1281,106.0339,411.1281,102.0339,407.1281" style="stroke:#181818;stroke-width:1;"/><line style="stroke:#181818;stroke-width:1;" x1="100.0339" x2="393.5651" y1="407.1281" y2="407.1281"/><text fill="#000000" font-family="sans-serif" font-size="13" font-weight="bold" lengthAdjust="spacing" textLength="7.436" x="175.6414" y="401.3191">5</text><text fill="#000000" font-family="sans-serif" font-size="13" lengthAdjust="spacing" textLength="126.8801" x="187.0774" y="401.3191">Validation de l'action</text></g><g class="message" data-participant-1="app" data-participant-2="app"><line style="stroke:#181818;stroke-width:1;" x1="394.5651" x2="436.5651" y1="438.8341" y2="438.8341"/><line style="stroke:#181818;stroke-width:1;" x1="436.5651" x2="436.5651" y1="438.8341" y2="451.8341"/><line style="stroke:#181818;stroke-width:1;" x1="395.5651" x2="436.5651" y1="451.8341" y2="451.8341"/><polygon fill="#181818" points="405.5651,447.8341,395.5651,451.8341,405.5651,455.8341,401.5651,451.8341" style="stroke:#181818;stroke-width:1;"/><text fill="#000000" font-family="sans-serif" font-size="13" font-weight="bold" lengthAdjust="spacing" textLength="7.436" x="401.5651" y="433.0251">6</text><text fill="#000000" font-family="sans-serif" font-size="13" lengthAdjust="spacing" textLength="141.8691" x="413.0011" y="433.0251">Notifie de l'utilisateur 2</text></g><path d="M48,473.8341 L114.918,473.8341 L114.918,483.5401 L104.918,493.5401 L48,493.5401 L48,473.8341" fill="#EEEEEE" style="stroke:#000000;stroke-width:1.5;"/><rect fill="none" height="127.8241" style="stroke:#000000;stroke-width:1.5;" width="518.8702" x="48" y="473.8341"/><text fill="#000000" font-family="sans-serif" font-size="13" font-weight="bold" lengthAdjust="spacing" textLength="21.918" x="63" y="488.7311">opt</text><text fill="#000000" font-family="sans-serif" font-size="11" font-weight="bold" lengthAdjust="spacing" textLength="175.6467" x="129.918" y="487.593">[depuis l'onglet recomendation]</text><g class="message" data-participant-1="usr" data-participant-2="app"><polygon fill="#181818" points="382.5651,513.2461,392.5651,517.2461,382.5651,521.2461,386.5651,517.2461" style="stroke:#181818;stroke-width:1;"/><line style="stroke:#181818;stroke-width:1;" x1="95.0339" x2="388.5651" y1="517.2461" y2="517.2461"/><text fill="#000000" font-family="sans-serif" font-size="13" font-weight="bold" lengthAdjust="spacing" textLength="7.436" x="107.0339" y="511.4371">7</text><text fill="#000000" font-family="sans-serif" font-size="13" lengthAdjust="spacing" textLength="264.0952" x="118.4699" y="511.4371">S&#233;lectionne option "Int&#233;resser par le profil"</text></g><g class="message" data-participant-1="app" data-participant-2="usr"><polygon fill="#181818" points="106.0339,544.9521,96.0339,548.9521,106.0339,552.9521,102.0339,548.9521" style="stroke:#181818;stroke-width:1;"/><line style="stroke:#181818;stroke-width:1;" x1="100.0339" x2="393.5651" y1="548.9521" y2="548.9521"/><text fill="#000000" font-family="sans-serif" font-size="13" font-weight="bold" lengthAdjust="spacing" textLength="7.436" x="175.6414" y="543.1431">8</text><text fill="#000000" font-family="sans-serif" font-size="13" lengthAdjust="spacing" textLength="126.8801" x="187.0774" y="543.1431">Validation de l'action</text></g><g class="message" data-participant-1="app" data-participant-2="app"><line style="stroke:#181818;stroke-width:1;" x1="394.5651" x2="436.5651" y1="580.6582" y2="580.6582"/><line style="stroke:#181818;stroke-width:1;" x1="436.5651" x2="436.5651" y1="580.6582" y2="593.6582"/><line style="stroke:#181818;stroke-width:1;" x1="395.5651" x2="436.5651" y1="593.6582" y2="593.6582"/><polygon fill="#181818" points="405.5651,589.6582,395.5651,593.6582,405.5651,597.6582,401.5651,593.6582" style="stroke:#181818;stroke-width:1;"/><text fill="#000000" font-family="sans-serif" font-size="13" font-weight="bold" lengthAdjust="spacing" textLength="7.436" x="401.5651" y="574.8492">9</text><text fill="#000000" font-family="sans-serif" font-size="13" lengthAdjust="spacing" textLength="141.8691" x="413.0011" y="574.8492">Notifie de l'utilisateur 2</text></g><path d="M38,615.6582 L104.918,615.6582 L104.918,625.3642 L94.918,635.3642 L38,635.3642 L38,615.6582" fill="#EEEEEE" style="stroke:#000000;stroke-width:1.5;"/><rect fill="none" height="186.2361" style="stroke:#000000;stroke-width:1.5;" width="420.441" x="38" y="615.6582"/><text fill="#000000" font-family="sans-serif" font-size="13" font-weight="bold" lengthAdjust="spacing" textLength="21.918" x="53" y="630.5552">opt</text><text fill="#000000" font-family="sans-serif" font-size="11" font-weight="bold" lengthAdjust="spacing" textLength="218.8984" x="119.918" y="629.4171">[utilisateur 2 int&#233;ress&#233; par utilisateur 1]</text><path d="M48,642.3642 L114.918,642.3642 L114.918,652.0702 L104.918,662.0702 L48,662.0702 L48,642.3642" fill="#EEEEEE" style="stroke:#000000;stroke-width:1.5;"/><rect fill="none" height="87.118" style="stroke:#000000;stroke-width:1.5;" width="400.441" x="48" y="642.3642"/><text fill="#000000" font-family="sans-serif" font-size="13" font-weight="bold" lengthAdjust="spacing" textLength="21.918" x="63" y="657.2612">opt</text><text fill="#000000" font-family="sans-serif" font-size="11" font-weight="bold" lengthAdjust="spacing" textLength="240.8323" x="129.918" y="656.1231">[utilisateur 1 pas int&#233;ress&#233; par utilisateur 2]</text><g class="message" data-participant-1="usr" data-participant-2="app"><polygon fill="#181818" points="382.5651,681.7762,392.5651,685.7762,382.5651,689.7762,386.5651,685.7762" style="stroke:#181818;stroke-width:1;"/><line style="stroke:#181818;stroke-width:1;" x1="95.0339" x2="388.5651" y1="685.7762" y2="685.7762"/><text fill="#000000" font-family="sans-serif" font-size="13" font-weight="bold" lengthAdjust="spacing" textLength="14.872" x="142.0104" y="679.9672">10</text><text fill="#000000" font-family="sans-serif" font-size="13" lengthAdjust="spacing" textLength="186.7062" x="160.8824" y="679.9672">valide le profil de l'utilisateur 2</text></g><polygon fill="#FEFFDD" points="67,698.7762,422,698.7762,432,710.7762,422,723.7762,67,723.7762,57,710.7762,67,698.7762" style="stroke:#181818;stroke-width:0.5;"/><text fill="#000000" font-family="sans-serif" font-size="13" lengthAdjust="spacing" textLength="283.4653" x="102.9878" y="716.6732">Les utilisateur peuvent s'envoyer des mesages</text><path d="M48,743.4822 L114.918,743.4822 L114.918,753.1882 L104.918,763.1882 L48,763.1882 L48,743.4822" fill="#EEEEEE" style="stroke:#000000;stroke-width:1.5;"/><rect fill="none" height="51.412" style="stroke:#000000;stroke-width:1.5;" width="400.441" x="48" y="743.4822"/><text fill="#000000" font-family="sans-serif" font-size="13" font-weight="bold" lengthAdjust="spacing" textLength="21.918" x="63" y="758.3792">opt</text><text fill="#000000" font-family="sans-serif" font-size="11" font-weight="bold" lengthAdjust="spacing" textLength="240.8323" x="129.918" y="757.2411">[utilisateur 1 pas int&#233;ress&#233; par utilisateur 2]</text><g class="message" data-participant-1="usr" data-participant-2="app"><polygon fill="#181818" points="382.5651,782.8943,392.5651,786.8943,382.5651,790.8943,386.5651,786.8943" style="stroke:#181818;stroke-width:1;"/><line style="stroke:#181818;stroke-width:1;" x1="95.0339" x2="388.5651" y1="786.8943" y2="786.8943"/><text fill="#000000" font-family="sans-serif" font-size="13" font-weight="bold" lengthAdjust="spacing" textLength="14.872" x="136.3164" y="781.0853">11</text><text fill="#000000" font-family="sans-serif" font-size="13" lengthAdjust="spacing" textLength="198.0942" x="155.1884" y="781.0853">invalide le profil de l'utilisateur 2</text></g><!--SRC=[pLJDZXCn3BxdAQovzCHXzxXIaQezLGA4gE0w2XctjJQDi_afsaVgS_J5i2UmxNGGSE10f1criVtzsDROMZZKmrTC9ZzHY3RP0sHyhXWSliUSxGvNddO178OooRAkSDgK5u-mP-_vcp7Z5NIV2tdAjc1D7TWCDISZDOKSHHiATAiOFJbRYCEOO6CqPX-ueA0cpjc0dlNZ6loYNj3W7Z2Ncxk1m-rLJ1IKIwHfVaUXd4z9t63g38O1bCgOvH8-9WqyLygmN3PMKGjltgecU91MWECGqAdtUVYHGwvUOaB9M_8jPUvaTMHAiBKaIWLHB0-Bghs5lhzW97Hy47bZO_eUk4hu4xez9dr-SFHzmxpnmKxyrT66CHmBRAGHGjQAb2_0LOz-OMPpFdanIkeN145-m50dplwOtwqlhGQP-KL1rn2qL10Kw06-M4_DBGmeCxGZsYInKNtWGbl2bZLP21sd6Ozw7Z3gAFs2myvZcNRqFxUW-gUx_hgsvzCev3fwroXkY-uaCV-syBuLpdjnL2TulJ9pfPVI-OwFvntc2Ll4UfGF1-G5XYE_I4S7oJYWxlvrtUio__nd_ha_2d_jSEINrtS0]--></g></svg>