<svg xmlns="http://www.w3.org/2000/svg" xmlns:xlink="http://www.w3.org/1999/xlink" contentStyleType="text/css" data-diagram-type="SEQUENCE" height="657px" preserveAspectRatio="none" style="width:386px;height:657px;background:#FFFFFF;" version="1.1" viewBox="0 0 386 657" width="386px" zoomAndPan="magnify"><defs/><g><rect fill="none" height="241.924" style="stroke:#000000;stroke-width:1.5;" width="359.0679" x="10" y="341.01"/><rect fill="none" height="96.118" style="stroke:#000000;stroke-width:1.5;" width="339.0679" x="20" y="479.816"/><g><title>Utilisateur</title><rect fill="#000000" fill-opacity="0.00000" height="542.8661" width="8" x="63.0339" y="57.0679"/><line style="stroke:#181818;stroke-width:0.5;stroke-dasharray:5,5;" x1="67" x2="67" y1="57.0679" y2="599.934"/></g><g><title>Application</title><rect fill="#000000" fill-opacity="0.00000" height="542.8661" width="8" x="301.1921" y="57.0679"/><line style="stroke:#181818;stroke-width:0.5;stroke-dasharray:5,5;" x1="304.3162" x2="304.3162" y1="57.0679" y2="599.934"/></g><g class="participant participant-head" data-participant="u"><text fill="#000000" font-family="sans-serif" font-size="14" lengthAdjust="spacing" textLength="68.0677" x="30" y="52.9659">Utilisateur</text><ellipse cx="67.0339" cy="10" fill="#E2E2F0" rx="4.5" ry="4.5" style="stroke:#181818;stroke-width:0.5;"/><path d="M54.5339,16.5 L54.5339,21.5 L64.0339,21.5 L64.0339,23.7574 L54.5339,33.2574 L58.7765,37.5 L67.0339,29.2426 L75.2912,37.5 L79.5339,33.2574 L70.0339,23.7574 L70.0339,21.5 L79.5339,21.5 L79.5339,16.5 L54.5339,16.5" fill="#E2E2F0" style="stroke:#181818;stroke-width:0.5;"/></g><g class="participant participant-tail" data-participant="u"><text fill="#000000" font-family="sans-serif" font-size="14" lengthAdjust="spacing" textLength="68.0677" x="30" y="613.9">Utilisateur</text><ellipse cx="67.0339" cy="623.002" fill="#E2E2F0" rx="4.5" ry="4.5" style="stroke:#181818;stroke-width:0.5;"/><path d="M54.5339,629.502 L54.5339,634.502 L64.0339,634.502 L64.0339,636.7593 L54.5339,646.2593 L58.7765,650.502 L67.0339,642.2446 L75.2912,650.502 L79.5339,646.2593 L70.0339,636.7593 L70.0339,634.502 L79.5339,634.502 L79.5339,629.502 L54.5339,629.502" fill="#E2E2F0" style="stroke:#181818;stroke-width:0.5;"/></g><g class="participant participant-head" data-participant="app"><rect fill="#E2E2F0" height="33.0679" rx="2.5" ry="2.5" style="stroke:#181818;stroke-width:0.5;" width="87.7517" x="261.3162" y="23"/><text fill="#000000" font-family="sans-serif" font-size="14" lengthAdjust="spacing" textLength="73.7517" x="268.3162" y="44.9659">Application</text></g><g class="participant participant-tail" data-participant="app"><rect fill="#E2E2F0" height="33.0679" rx="2.5" ry="2.5" style="stroke:#181818;stroke-width:0.5;" width="87.7517" x="261.3162" y="598.934"/><text fill="#000000" font-family="sans-serif" font-size="14" lengthAdjust="spacing" textLength="73.7517" x="268.3162" y="620.9">Application</text></g><rect fill="#EEEEEE" height="3" style="stroke:#EEEEEE;stroke-width:1;" width="379.0679" x="0" y="88.9209"/><line style="stroke:#000000;stroke-width:1;" x1="0" x2="379.0679" y1="88.9209" y2="88.9209"/><line style="stroke:#000000;stroke-width:1;" x1="0" x2="379.0679" y1="91.9209" y2="91.9209"/><rect fill="#EEEEEE" height="25.706" style="stroke:#000000;stroke-width:2;" width="79.91" x="149.5789" y="77.0679"/><text fill="#000000" font-family="sans-serif" font-size="13" font-weight="bold" lengthAdjust="spacing" textLength="62.53" x="155.5789" y="94.9649">Pr&#233;requis</text><g class="message" data-participant-1="u" data-participant-2="app"><polygon fill="#181818" points="293.1921,132.4799,303.1921,136.4799,293.1921,140.4799,297.1921,136.4799" style="stroke:#181818;stroke-width:1;"/><line style="stroke:#181818;stroke-width:1;" x1="67.0339" x2="299.1921" y1="136.4799" y2="136.4799"/><text fill="#000000" font-family="sans-serif" font-size="13" font-weight="bold" lengthAdjust="spacing" textLength="7.436" x="129.4739" y="130.6709">1</text><text fill="#000000" font-family="sans-serif" font-size="13" lengthAdjust="spacing" textLength="101.8421" x="140.9099" y="130.6709">a valid&#233; un profil</text></g><polygon fill="#FEFFDD" points="16,149.4799,355,149.4799,365,161.4799,355,174.4799,16,174.4799,6,161.4799,16,149.4799" style="stroke:#181818;stroke-width:0.5;"/><text fill="#000000" font-family="sans-serif" font-size="13" lengthAdjust="spacing" textLength="255.2552" x="18" y="167.377">Processus 1 d&#233;crit dans le cas d'utilisation</text><text fill="#000000" font-family="sans-serif" font-size="13" lengthAdjust="spacing" text-decoration="underline" textLength="77.0901" x="276.6353" y="167.377">valider profil</text><rect fill="#EEEEEE" height="3" style="stroke:#EEEEEE;stroke-width:1;" width="379.0679" x="0" y="202.039"/><line style="stroke:#000000;stroke-width:1;" x1="0" x2="379.0679" y1="202.039" y2="202.039"/><line style="stroke:#000000;stroke-width:1;" x1="0" x2="379.0679" y1="205.039" y2="205.039"/><rect fill="#EEEEEE" height="25.706" style="stroke:#000000;stroke-width:2;" width="81.782" x="148.6429" y="190.186"/><text fill="#000000" font-family="sans-serif" font-size="13" font-weight="bold" lengthAdjust="spacing" textLength="64.402" x="154.6429" y="208.083">Processus</text><g class="message" data-participant-1="u" data-participant-2="app"><polygon fill="#181818" points="293.1921,245.598,303.1921,249.598,293.1921,253.598,297.1921,249.598" style="stroke:#181818;stroke-width:1;"/><line style="stroke:#181818;stroke-width:1;" x1="67.0339" x2="299.1921" y1="249.598" y2="249.598"/><text fill="#000000" font-family="sans-serif" font-size="13" font-weight="bold" lengthAdjust="spacing" textLength="7.436" x="121.4399" y="243.789">2</text><text fill="#000000" font-family="sans-serif" font-size="13" lengthAdjust="spacing" textLength="117.9101" x="132.8759" y="243.789">envoie un message</text></g><g class="message" data-participant-1="app" data-participant-2="u"><polygon fill="#181818" points="78.0339,277.304,68.0339,281.304,78.0339,285.304,74.0339,281.304" style="stroke:#181818;stroke-width:1;"/><line style="stroke:#181818;stroke-width:1;" x1="72.0339" x2="304.1921" y1="281.304" y2="281.304"/><text fill="#000000" font-family="sans-serif" font-size="13" font-weight="bold" lengthAdjust="spacing" textLength="7.436" x="95.6934" y="275.495">3</text><text fill="#000000" font-family="sans-serif" font-size="13" lengthAdjust="spacing" textLength="169.4031" x="107.1294" y="275.495">bloque l'envoie de message</text></g><g class="message" data-participant-1="u" data-participant-2="u"><line style="stroke:#181818;stroke-width:1;" x1="67.0339" x2="109.0339" y1="313.01" y2="313.01"/><line style="stroke:#181818;stroke-width:1;" x1="109.0339" x2="109.0339" y1="313.01" y2="326.01"/><line style="stroke:#181818;stroke-width:1;" x1="68.0339" x2="109.0339" y1="326.01" y2="326.01"/><polygon fill="#181818" points="78.0339,322.01,68.0339,326.01,78.0339,330.01,74.0339,326.01" style="stroke:#181818;stroke-width:1;"/><text fill="#000000" font-family="sans-serif" font-size="13" font-weight="bold" lengthAdjust="spacing" textLength="7.436" x="74.0339" y="307.201">4</text><text fill="#000000" font-family="sans-serif" font-size="13" lengthAdjust="spacing" textLength="120.3671" x="85.4699" y="307.201">attend une r&#233;ponce</text></g><path d="M10,341.01 L72.459,341.01 L72.459,350.716 L62.459,360.716 L10,360.716 L10,341.01" fill="#EEEEEE" style="stroke:#000000;stroke-width:1.5;"/><rect fill="none" height="241.924" style="stroke:#000000;stroke-width:1.5;" width="359.0679" x="10" y="341.01"/><text fill="#000000" font-family="sans-serif" font-size="13" font-weight="bold" lengthAdjust="spacing" textLength="17.459" x="25" y="355.907">alt</text><text fill="#000000" font-family="sans-serif" font-size="11" font-weight="bold" lengthAdjust="spacing" textLength="118.9862" x="87.459" y="354.7689">[il n'y a pas de match]</text><g class="message" data-participant-1="app" data-participant-2="u"><polygon fill="#181818" points="78.0339,380.4221,68.0339,384.4221,78.0339,388.4221,74.0339,384.4221" style="stroke:#181818;stroke-width:1;"/><line style="stroke:#181818;stroke-width:1;" x1="72.0339" x2="304.1921" y1="384.4221" y2="384.4221"/><text fill="#000000" font-family="sans-serif" font-size="13" font-weight="bold" lengthAdjust="spacing" textLength="7.436" x="92.4174" y="378.6131">5</text><text fill="#000000" font-family="sans-serif" font-size="13" lengthAdjust="spacing" textLength="175.9552" x="103.8534" y="378.6131">informe qu'il n'y a pas match</text></g><line style="stroke:#000000;stroke-width:1;stroke-dasharray:2,2;" x1="10" x2="369.0679" y1="393.4221" y2="393.4221"/><text fill="#000000" font-family="sans-serif" font-size="11" font-weight="bold" lengthAdjust="spacing" textLength="70.5755" x="15" y="405.181">[il y a match]</text><g class="message" data-participant-1="app" data-participant-2="u"><polygon fill="#181818" points="78.0339,429.11,68.0339,433.11,78.0339,437.11,74.0339,433.11" style="stroke:#181818;stroke-width:1;"/><line style="stroke:#181818;stroke-width:1;" x1="72.0339" x2="304.1921" y1="433.11" y2="433.11"/><text fill="#000000" font-family="sans-serif" font-size="13" font-weight="bold" lengthAdjust="spacing" textLength="7.436" x="110.3444" y="427.301">6</text><text fill="#000000" font-family="sans-serif" font-size="13" lengthAdjust="spacing" textLength="140.1011" x="121.7804" y="427.301">informe qu'il y a match</text></g><g class="message" data-participant-1="app" data-participant-2="u"><polygon fill="#181818" points="78.0339,460.816,68.0339,464.816,78.0339,468.816,74.0339,464.816" style="stroke:#181818;stroke-width:1;"/><line style="stroke:#181818;stroke-width:1;" x1="72.0339" x2="304.1921" y1="464.816" y2="464.816"/><text fill="#000000" font-family="sans-serif" font-size="13" font-weight="bold" lengthAdjust="spacing" textLength="7.436" x="88.0299" y="459.007">7</text><text fill="#000000" font-family="sans-serif" font-size="13" lengthAdjust="spacing" textLength="184.7301" x="99.4659" y="459.007">d&#233;bloque l'envoie de message</text></g><path d="M20,479.816 L93.288,479.816 L93.288,489.522 L83.288,499.522 L20,499.522 L20,479.816" fill="#EEEEEE" style="stroke:#000000;stroke-width:1.5;"/><rect fill="none" height="96.118" style="stroke:#000000;stroke-width:1.5;" width="339.0679" x="20" y="479.816"/><text fill="#000000" font-family="sans-serif" font-size="13" font-weight="bold" lengthAdjust="spacing" textLength="28.288" x="35" y="494.713">loop</text><text fill="#000000" font-family="sans-serif" font-size="11" font-weight="bold" lengthAdjust="spacing" textLength="170.2348" x="108.288" y="493.5749">[tant que la conversation dure]</text><g class="message" data-participant-1="u" data-participant-2="app"><polygon fill="#181818" points="293.1921,519.228,303.1921,523.228,293.1921,527.228,297.1921,523.228" style="stroke:#181818;stroke-width:1;"/><line style="stroke:#181818;stroke-width:1;" x1="67.0339" x2="299.1921" y1="523.228" y2="523.228"/><text fill="#000000" font-family="sans-serif" font-size="13" font-weight="bold" lengthAdjust="spacing" textLength="7.436" x="79.0339" y="517.419">8</text><text fill="#000000" font-family="sans-serif" font-size="13" lengthAdjust="spacing" textLength="202.7222" x="90.4699" y="517.419">envoie un ou plusieurs messages</text></g><g class="message" data-participant-1="u" data-participant-2="u"><line style="stroke:#181818;stroke-width:1;" x1="67.0339" x2="109.0339" y1="554.934" y2="554.934"/><line style="stroke:#181818;stroke-width:1;" x1="109.0339" x2="109.0339" y1="554.934" y2="567.934"/><line style="stroke:#181818;stroke-width:1;" x1="68.0339" x2="109.0339" y1="567.934" y2="567.934"/><polygon fill="#181818" points="78.0339,563.934,68.0339,567.934,78.0339,571.934,74.0339,567.934" style="stroke:#181818;stroke-width:1;"/><text fill="#000000" font-family="sans-serif" font-size="13" font-weight="bold" lengthAdjust="spacing" textLength="7.436" x="74.0339" y="549.125">9</text><text fill="#000000" font-family="sans-serif" font-size="13" lengthAdjust="spacing" textLength="120.3671" x="85.4699" y="549.125">attend une r&#233;ponce</text></g><!--SRC=[VPB1Ri8m38RlUGgBIqySTaKg4Wym2MdQkJAfWMXfd2Kn4u_4S_1YSzh2nBHHAHVxy-y_Vve_N8YOS81CdqB1qYlbZ0VQU7S8O2aKIYRVARI5qrivUu8ZUyzV1gLma66dc1cxi7WlphkCXIGj03E8qU7Yh8iO2YmsCNfdiJWEOnjZDCQqBMpJzPBKXilGjaPWkQwz5I2SqBl-UW4941FldJV7m8NKJkAS3UYtJMpLkcHu0KLjSWLw31dKgjKjVIEpBTqBNJTAKfhrkivGwA6AJavkOWz6A9pOKNKnJ2aPBTUkh63dMGC4tynGJtT8PWHBgKia4EXD8slQ1dq1vo4qPxrch3vr3eiz6lZHTc7FQI3ubEQ1dK3ocQf6hKwL_oR_8ZIh9zOzSuHIdsqa42o74wKvnLuIZU7BSlqh81Q8NhBJVo3VrAQ7UfQ65iRp3G00]--></g></svg>